STARTFONT 2.1
COMMENT
COMMENT Converted from OpenType font "KH-Dot-Hibiya-32.ttf" by "otf2bdf 3.0".
COMMENT
FONT -FreeType-KH Dot Hibiya 32-Medium-R-Normal--33-240-100-100-P-306-ISO10646-1
SIZE 24 100 100
FONTBOUNDINGBOX 33 33 0 -5
STARTPROPERTIES 19
FOUNDRY "FreeType"
FAMILY_NAME "KH Dot Hibiya 32"
WEIGHT_NAME "Medium"
SLANT "R"
SETWIDTH_NAME "Normal"
ADD_STYLE_NAME ""
PIXEL_SIZE 33
POINT_SIZE 240
RESOLUTION_X 100
RESOLUTION_Y 100
SPACING "P"
AVERAGE_WIDTH 306
CHARSET_REGISTRY "ISO10646"
CHARSET_ENCODING "1"
FONT_ASCENT 28
FONT_DESCENT 4
COPYRIGHT "Copyright (c) Keitarou Hiraki, Font Silo. 1990-2015"
_OTF_FONTFILE "KH-Dot-Hibiya-32.ttf"
_OTF_PSNAME "KH-Dot-Hibiya-32"
ENDPROPERTIES
CHARS 7623
STARTCHAR 0020
ENCODING 32
SWIDTH 510 0
DWIDTH 17 0
BBX 0 0 0 0
BITMAP
ENDCHAR
STARTCHAR 0021
ENCODING 33
SWIDTH 510 0
DWIDTH 17 0
BBX 4 25 6 -1
BITMAP
60
F0
F0
F0
60
60
60
60
60
60
60
60
60
60
60
60
00
00
00
00
60
F0
F0
60
60
ENDCHAR
STARTCHAR 0022
ENCODING 34
SWIDTH 510 0
DWIDTH 17 0
BBX 10 10 2 16
BITMAP
6180
E380
F3C0
71C0
30C0
30C0
2080
6180
4100
8200
ENDCHAR
STARTCHAR 0023
ENCODING 35
SWIDTH 510 0
DWIDTH 17 0
BBX 17 25 0 -1
BITMAP
040800
040800
040800
040800
040800
040800
7FFF80
7FFF80
081000
081000
081000
081000
081000
081000
081000
081000
FFFE00
FFFE00
102000
102000
102000
102000
102000
102000
102000
ENDCHAR
STARTCHAR 0024
ENCODING 36
SWIDTH 510 0
DWIDTH 17 0
BBX 14 31 1 -4
BITMAP
0200
0200
0200
0F88
3268
6238
6218
C208
C208
C208
6200
6200
3A00
1E00
0780
03E0
0270
0238
0218
820C
820C
820C
C218
C218
E230
B260
8F80
8F80
0200
0200
0200
ENDCHAR
STARTCHAR 0025
ENCODING 37
SWIDTH 510 0
DWIDTH 17 0
BBX 17 25 0 -1
BITMAP
1C0000
630200
410200
C18400
C18800
C18800
C19000
412000
632000
1C4000
008000
008000
010000
020000
023800
04C600
088200
098380
118380
218380
218380
408200
80C600
803800
803800
ENDCHAR
STARTCHAR 0026
ENCODING 38
SWIDTH 510 0
DWIDTH 17 0
BBX 17 25 0 -1
BITMAP
070000
38C000
306000
603000
603000
603000
603000
306000
30C000
190000
1E0000
0C3F80
1C0400
260400
660400
430800
C18800
C18800
C0D000
C0D000
606000
607180
31BE00
0E0C00
0E0C00
ENDCHAR
STARTCHAR 0027
ENCODING 39
SWIDTH 510 0
DWIDTH 17 0
BBX 4 10 3 16
BITMAP
60
E0
F0
70
30
30
20
60
40
80
ENDCHAR
STARTCHAR 0028
ENCODING 40
SWIDTH 510 0
DWIDTH 17 0
BBX 8 31 6 -4
BITMAP
01
02
04
08
18
30
30
60
60
60
C0
C0
C0
C0
C0
C0
C0
C0
C0
C0
60
60
60
30
30
18
08
08
04
02
01
ENDCHAR
STARTCHAR 0029
ENCODING 41
SWIDTH 510 0
DWIDTH 17 0
BBX 8 31 2 -4
BITMAP
80
40
20
10
18
0C
0C
06
06
06
03
03
03
03
03
03
03
03
03
03
06
06
06
0C
0C
18
10
10
20
40
80
ENDCHAR
STARTCHAR 002A
ENCODING 42
SWIDTH 510 0
DWIDTH 17 0
BBX 15 17 0 4
BITMAP
0100
0380
0380
8102
610C
711C
1930
0540
0380
0540
1930
711C
610C
8102
0380
0380
0100
ENDCHAR
STARTCHAR 002B
ENCODING 43
SWIDTH 510 0
DWIDTH 17 0
BBX 14 16 1 4
BITMAP
0200
0200
0200
0200
0200
0200
0200
FFFC
0200
0200
0200
0200
0200
0200
0200
0200
ENDCHAR
STARTCHAR 002C
ENCODING 44
SWIDTH 510 0
DWIDTH 17 0
BBX 4 11 3 -4
BITMAP
60
E0
F0
70
30
30
20
20
60
40
80
ENDCHAR
STARTCHAR 002D
ENCODING 45
SWIDTH 510 0
DWIDTH 17 0
BBX 14 1 1 12
BITMAP
FFFC
ENDCHAR
STARTCHAR 002E
ENCODING 46
SWIDTH 510 0
DWIDTH 17 0
BBX 4 4 6 2
BITMAP
60
F0
F0
60
ENDCHAR
STARTCHAR 002F
ENCODING 47
SWIDTH 510 0
DWIDTH 17 0
BBX 14 29 1 -3
BITMAP
0004
0004
0008
0008
0010
0010
0020
0020
0040
0040
0080
0080
0100
0100
0200
0200
0400
0400
0800
0800
1000
1000
2000
2000
4000
4000
4000
8000
8000
ENDCHAR
STARTCHAR 0030
ENCODING 48
SWIDTH 510 0
DWIDTH 17 0
BBX 12 25 2 -1
BITMAP
0F00
30C0
6060
6060
C030
C030
C030
C030
C030
C030
C030
C030
C030
C030
C030
C030
C030
C030
C030
C030
6060
6060
30C0
0F00
0F00
ENDCHAR
STARTCHAR 0031
ENCODING 49
SWIDTH 510 0
DWIDTH 17 0
BBX 9 25 3 -1
BITMAP
0400
0C00
1C00
FC00
0C00
0C00
0C00
0C00
0C00
0C00
0C00
0C00
0C00
0C00
0C00
0C00
0C00
0C00
0C00
0C00
0C00
0C00
0C00
7F80
7F80
ENDCHAR
STARTCHAR 0032
ENCODING 50
SWIDTH 510 0
DWIDTH 17 0
BBX 12 25 2 -1
BITMAP
0F00
30C0
6060
C060
C030
C030
0030
0030
0060
0060
00C0
0180
0300
0600
0C00
0800
1800
3000
2010
6010
4010
C030
FFF0
FFF0
FFF0
ENDCHAR
STARTCHAR 0033
ENCODING 51
SWIDTH 510 0
DWIDTH 17 0
BBX 12 25 2 -1
BITMAP
1E00
3180
60C0
60C0
6060
0060
0060
0060
00C0
00C0
0180
1F00
00C0
0060
0060
0030
0030
0030
C030
C030
C060
6060
30C0
0F00
0F00
ENDCHAR
STARTCHAR 0034
ENCODING 52
SWIDTH 510 0
DWIDTH 17 0
BBX 14 25 1 -1
BITMAP
0060
0060
00E0
00E0
0160
0160
0260
0260
0460
0460
0860
0860
1060
1060
2060
2060
4060
FFFC
0060
0060
0060
0060
0060
01F8
01F8
ENDCHAR
STARTCHAR 0035
ENCODING 53
SWIDTH 510 0
DWIDTH 17 0
BBX 12 25 2 -1
BITMAP
7FE0
7FC0
4000
4000
4000
4000
4000
4000
4700
58C0
7060
6060
4030
0030
0030
0030
0030
0030
6030
E030
C060
6060
30C0
0F00
0F00
ENDCHAR
STARTCHAR 0036
ENCODING 54
SWIDTH 510 0
DWIDTH 17 0
BBX 12 25 2 -1
BITMAP
0F00
30C0
6060
6030
C030
C030
C000
C000
C000
C700
D8C0
F060
E060
E030
C030
C030
C030
C030
C030
C030
6060
6060
30C0
0F00
0F00
ENDCHAR
STARTCHAR 0037
ENCODING 55
SWIDTH 510 0
DWIDTH 17 0
BBX 12 25 2 -1
BITMAP
FFF0
FFF0
C020
8020
8040
8040
0080
0080
0180
0100
0100
0300
0300
0200
0600
0600
0600
0C00
0C00
0C00
0C00
0C00
0C00
0C00
0C00
ENDCHAR
STARTCHAR 0038
ENCODING 56
SWIDTH 510 0
DWIDTH 17 0
BBX 12 25 2 -1
BITMAP
0F00
30C0
6060
6060
C030
C030
C030
C030
6060
6060
30C0
0F00
30C0
6060
6060
C030
C030
C030
C030
C030
6060
6060
30C0
0F00
0F00
ENDCHAR
STARTCHAR 0039
ENCODING 57
SWIDTH 510 0
DWIDTH 17 0
BBX 12 25 2 -1
BITMAP
0F00
30C0
6060
6060
C030
C030
C030
C030
C030
C030
C030
6070
60F0
31B0
0E30
0030
0030
0030
C030
C030
C060
6060
30C0
0F00
0F00
ENDCHAR
STARTCHAR 003A
ENCODING 58
SWIDTH 510 0
DWIDTH 17 0
BBX 4 16 6 2
BITMAP
60
F0
F0
60
00
00
00
00
00
00
00
00
60
F0
F0
60
ENDCHAR
STARTCHAR 003B
ENCODING 59
SWIDTH 510 0
DWIDTH 17 0
BBX 4 23 6 -5
BITMAP
60
F0
F0
60
00
00
00
00
00
00
00
00
60
E0
F0
70
30
30
30
20
60
40
80
ENDCHAR
STARTCHAR 003C
ENCODING 60
SWIDTH 510 0
DWIDTH 17 0
BBX 14 28 1 -2
BITMAP
0004
0008
0010
0020
0040
0080
0100
0200
0400
0800
1000
2000
4000
8000
4000
2000
1000
0800
0400
0200
0100
0080
0040
0020
0010
0008
0008
0004
ENDCHAR
STARTCHAR 003D
ENCODING 61
SWIDTH 510 0
DWIDTH 17 0
BBX 14 6 1 9
BITMAP
FFFC
0000
0000
0000
0000
FFFC
ENDCHAR
STARTCHAR 003E
ENCODING 62
SWIDTH 510 0
DWIDTH 17 0
BBX 14 28 1 -2
BITMAP
8000
4000
2000
1000
0800
0400
0200
0100
0080
0040
0020
0010
0008
0004
0008
0010
0020
0040
0080
0100
0200
0400
0800
1000
2000
4000
4000
8000
ENDCHAR
STARTCHAR 003F
ENCODING 63
SWIDTH 510 0
DWIDTH 17 0
BBX 14 25 1 -1
BITMAP
0FC0
3030
6018
C018
C00C
E00C
600C
000C
000C
0018
0018
0030
03C0
0300
0300
0300
0300
0300
0000
0000
0300
0780
0780
0300
0300
ENDCHAR
STARTCHAR 0040
ENCODING 64
SWIDTH 510 0
DWIDTH 17 0
BBX 17 25 0 -1
BITMAP
03C000
0C3000
180800
300400
200400
61B200
637200
C63200
C63200
CC3200
CC3200
CC3200
CC6200
CC6200
CC6400
CC6400
CC6800
C6F000
636000
600180
600200
300C00
183800
07E000
07E000
ENDCHAR
STARTCHAR 0041
ENCODING 65
SWIDTH 510 0
DWIDTH 17 0
BBX 17 25 0 -1
BITMAP
018000
018000
018000
018000
02C000
02C000
02C000
02C000
046000
046000
046000
046000
083000
083000
083000
083000
1FF800
101800
101800
101800
200C00
200C00
200C00
F83F80
F83F80
ENDCHAR
STARTCHAR 0042
ENCODING 66
SWIDTH 510 0
DWIDTH 17 0
BBX 14 25 1 -1
BITMAP
FF80
3060
3030
3030
3018
3018
3018
3018
3030
3030
3060
3F80
3060
3030
3018
3018
300C
300C
300C
3018
3018
3030
30E0
FF00
FF00
ENDCHAR
STARTCHAR 0043
ENCODING 67
SWIDTH 510 0
DWIDTH 17 0
BBX 15 25 0 -1
BITMAP
07C4
1834
301C
200C
600C
6004
6004
C000
C000
C000
C000
C000
C000
C000
C000
C002
C002
6002
6004
6004
2008
3018
1870
07C0
07C0
ENDCHAR
STARTCHAR 0044
ENCODING 68
SWIDTH 510 0
DWIDTH 17 0
BBX 15 25 0 -1
BITMAP
FE00
3180
3060
3030
3018
3018
300C
300C
3006
3006
3006
3006
3006
3006
3006
3006
300C
300C
3018
3018
3030
3060
3180
FE00
FE00
ENDCHAR
STARTCHAR 0045
ENCODING 69
SWIDTH 510 0
DWIDTH 17 0
BBX 14 25 1 -1
BITMAP
FFF8
3018
3018
3008
3008
3008
3000
3000
3010
3010
3030
3FF0
3030
3010
3010
3000
3000
3000
3004
3004
3004
300C
300C
FFFC
FFFC
ENDCHAR
STARTCHAR 0046
ENCODING 70
SWIDTH 510 0
DWIDTH 17 0
BBX 14 25 1 -1
BITMAP
FFFC
300C
300C
3004
3004
3004
3000
3000
3010
3010
3030
3FF0
3030
3010
3010
3000
3000
3000
3000
3000
3000
3000
3000
FE00
FE00
ENDCHAR
STARTCHAR 0047
ENCODING 71
SWIDTH 510 0
DWIDTH 17 0
BBX 17 25 0 -1
BITMAP
07C400
183400
301C00
200C00
600C00
600400
600400
C00000
C00000
C00000
C00000
C00000
C1FF80
C00C00
C00C00
C00C00
C00C00
600C00
600C00
600C00
201C00
303C00
186C00
078400
078400
ENDCHAR
STARTCHAR 0048
ENCODING 72
SWIDTH 510 0
DWIDTH 17 0
BBX 17 25 0 -1
BITMAP
FC3F80
300C00
300C00
300C00
300C00
300C00
300C00
300C00
300C00
300C00
300C00
3FFC00
300C00
300C00
300C00
300C00
300C00
300C00
300C00
300C00
300C00
300C00
300C00
FC3F80
FC3F80
ENDCHAR
STARTCHAR 0049
ENCODING 73
SWIDTH 510 0
DWIDTH 17 0
BBX 8 25 4 -1
BITMAP
FF
18
18
18
18
18
18
18
18
18
18
18
18
18
18
18
18
18
18
18
18
18
18
FF
FF
ENDCHAR
STARTCHAR 004A
ENCODING 74
SWIDTH 510 0
DWIDTH 17 0
BBX 13 28 1 -4
BITMAP
07F8
00C0
00C0
00C0
00C0
00C0
00C0
00C0
00C0
00C0
00C0
00C0
00C0
00C0
00C0
00C0
00C0
00C0
00C0
00C0
60C0
E0C0
C0C0
C180
C180
4180
6300
1C00
ENDCHAR
STARTCHAR 004B
ENCODING 75
SWIDTH 510 0
DWIDTH 17 0
BBX 15 25 0 -1
BITMAP
FC7C
3010
3020
3020
3040
3080
3080
3100
3200
3200
3600
3B00
3300
3180
3180
30C0
30C0
3060
3060
3030
3030
3018
3018
FCFE
FCFE
ENDCHAR
STARTCHAR 004C
ENCODING 76
SWIDTH 510 0
DWIDTH 17 0
BBX 14 25 0 -1
BITMAP
FE00
3000
3000
3000
3000
3000
3000
3000
3000
3000
3000
3000
3000
3000
3000
3000
3000
3000
3004
3004
3004
300C
300C
FFFC
FFFC
ENDCHAR
STARTCHAR 004D
ENCODING 77
SWIDTH 510 0
DWIDTH 17 0
BBX 17 25 0 -1
BITMAP
F01F80
301C00
381C00
382C00
382C00
2C2C00
2C2C00
2C2C00
2C4C00
2C4C00
264C00
264C00
268C00
268C00
268C00
238C00
230C00
230C00
230C00
210C00
210C00
210C00
200C00
F83F80
F83F80
ENDCHAR
STARTCHAR 004E
ENCODING 78
SWIDTH 510 0
DWIDTH 17 0
BBX 17 25 0 -1
BITMAP
F01F80
380400
380400
2C0400
2C0400
2C0400
260400
260400
230400
230400
230400
218400
218400
20C400
20C400
206400
206400
206400
203400
203400
201C00
201C00
200C00
F80C00
F80C00
ENDCHAR
STARTCHAR 004F
ENCODING 79
SWIDTH 510 0
DWIDTH 17 0
BBX 15 25 0 -1
BITMAP
07C0
1830
3018
2008
600C
600C
600C
C006
C006
C006
C006
C006
C006
C006
C006
C006
C006
600C
600C
600C
2008
3018
1830
07C0
07C0
ENDCHAR
STARTCHAR 0050
ENCODING 80
SWIDTH 510 0
DWIDTH 17 0
BBX 14 25 1 -1
BITMAP
FFC0
3030
3018
3018
300C
300C
300C
300C
300C
3018
3018
3030
3FC0
3000
3000
3000
3000
3000
3000
3000
3000
3000
3000
FE00
FE00
ENDCHAR
STARTCHAR 0051
ENCODING 81
SWIDTH 510 0
DWIDTH 17 0
BBX 17 28 0 -4
BITMAP
07C000
183000
301800
200800
600C00
600C00
600C00
C00600
C00600
C00600
C00600
C00600
C00600
C00600
C00600
C00600
C00600
600C00
600C00
638C00
244800
383800
183000
07E000
07E000
001180
001E00
000C00
ENDCHAR
STARTCHAR 0052
ENCODING 82
SWIDTH 510 0
DWIDTH 17 0
BBX 17 25 0 -1
BITMAP
FFC000
303000
301800
301800
300C00
300C00
300C00
300C00
301800
301800
303000
3FC000
306000
303000
303000
301800
301800
301800
300C00
300C00
300C00
300C00
300C00
FC3F80
FC3F80
ENDCHAR
STARTCHAR 0053
ENCODING 83
SWIDTH 510 0
DWIDTH 17 0
BBX 14 25 1 -1
BITMAP
0F88
3068
6038
6018
C008
C008
C008
6000
6000
3800
1E00
0780
01E0
0070
0038
0018
800C
800C
800C
C018
C018
E030
B060
8F80
8F80
ENDCHAR
STARTCHAR 0054
ENCODING 84
SWIDTH 510 0
DWIDTH 17 0
BBX 17 25 0 -1
BITMAP
FFFF80
C18380
C18380
818180
818180
818180
018000
018000
018000
018000
018000
018000
018000
018000
018000
018000
018000
018000
018000
018000
018000
018000
018000
0FF000
0FF000
ENDCHAR
STARTCHAR 0055
ENCODING 85
SWIDTH 510 0
DWIDTH 17 0
BBX 15 25 0 -1
BITMAP
FC3E
3008
3008
3008
3008
3008
3008
3008
3008
3008
3008
3008
3008
3008
3008
3008
3008
3008
3008
3008
1810
1810
0C20
07C0
07C0
ENDCHAR
STARTCHAR 0056
ENCODING 86
SWIDTH 510 0
DWIDTH 17 0
BBX 17 25 0 -1
BITMAP
FC1F80
300400
300400
300400
180800
180800
180800
180800
0C1000
0C1000
0C1000
0C1000
062000
062000
062000
062000
034000
034000
034000
034000
018000
018000
018000
018000
018000
ENDCHAR
STARTCHAR 0057
ENCODING 87
SWIDTH 510 0
DWIDTH 17 0
BBX 17 25 0 -1
BITMAP
FBEF80
618200
618200
618200
618200
618400
31C400
32C400
32C400
32C400
32C400
326800
1A6800
1A6800
1A6800
1A6800
1A6800
1C3000
0C3000
0C3000
0C3000
0C3000
0C3000
0C3000
0C3000
ENDCHAR
STARTCHAR 0058
ENCODING 88
SWIDTH 510 0
DWIDTH 17 0
BBX 15 25 0 -1
BITMAP
FC7C
3010
3010
1820
1820
1840
0C40
0C40
0680
0680
0300
0300
0380
0380
04C0
04C0
08C0
0860
0860
1030
1030
2018
2018
F87E
F87E
ENDCHAR
STARTCHAR 0059
ENCODING 89
SWIDTH 510 0
DWIDTH 17 0
BBX 17 25 0 -1
BITMAP
FC1F80
300400
300400
180800
180800
0C1000
0C1000
062000
062000
034000
034000
018000
018000
018000
018000
018000
018000
018000
018000
018000
018000
018000
018000
0FF000
0FF000
ENDCHAR
STARTCHAR 005A
ENCODING 90
SWIDTH 510 0
DWIDTH 17 0
BBX 14 25 1 -1
BITMAP
7FF8
6018
6030
4030
4060
4060
00C0
00C0
0180
0180
0300
0300
0600
0600
0C00
0C00
1800
1800
3004
3004
6004
600C
C00C
FFFC
FFFC
ENDCHAR
STARTCHAR 005B
ENCODING 91
SWIDTH 510 0
DWIDTH 17 0
BBX 10 29 4 -1
BITMAP
FFC0
C000
C000
C000
C000
C000
C000
C000
C000
C000
C000
C000
C000
C000
C000
C000
C000
C000
C000
C000
C000
C000
C000
C000
C000
C000
C000
FFC0
FFC0
ENDCHAR
STARTCHAR 005C
ENCODING 92
SWIDTH 510 0
DWIDTH 17 0
BBX 17 25 0 -1
BITMAP
FC1F80
300400
300400
180800
180800
0C1000
0C1000
062000
062000
034000
FFFF80
018000
018000
018000
FFFF80
018000
018000
018000
018000
018000
018000
018000
018000
0FF000
0FF000
ENDCHAR
STARTCHAR 005D
ENCODING 93
SWIDTH 510 0
DWIDTH 17 0
BBX 10 29 2 -1
BITMAP
FFC0
00C0
00C0
00C0
00C0
00C0
00C0
00C0
00C0
00C0
00C0
00C0
00C0
00C0
00C0
00C0
00C0
00C0
00C0
00C0
00C0
00C0
00C0
00C0
00C0
00C0
00C0
FFC0
FFC0
ENDCHAR
STARTCHAR 005E
ENCODING 94
SWIDTH 510 0
DWIDTH 17 0
BBX 15 8 0 18
BITMAP
0100
0380
07C0
0C60
1830
2008
4004
8002
ENDCHAR
STARTCHAR 005F
ENCODING 95
SWIDTH 510 0
DWIDTH 17 0
BBX 14 2 1 -1
BITMAP
FFFC
FFFC
ENDCHAR
STARTCHAR 0060
ENCODING 96
SWIDTH 510 0
DWIDTH 17 0
BBX 4 10 6 16
BITMAP
10
20
60
40
C0
C0
E0
F0
70
60
ENDCHAR
STARTCHAR 0061
ENCODING 97
SWIDTH 510 0
DWIDTH 17 0
BBX 16 19 1 -1
BITMAP
0FC0
3860
7030
6030
0030
0030
0030
03F0
1C30
3030
6030
C030
C030
C030
C070
C0B3
633C
3C18
3C18
ENDCHAR
STARTCHAR 0062
ENCODING 98
SWIDTH 510 0
DWIDTH 17 0
BBX 15 28 0 -1
BITMAP
1000
F000
3000
3000
3000
3000
3000
3000
3000
31E0
3618
3C0C
380C
3006
3006
3006
3006
3006
3006
3006
3006
3006
3006
380C
3C0C
3618
31E0
31E0
ENDCHAR
STARTCHAR 0063
ENCODING 99
SWIDTH 510 0
DWIDTH 17 0
BBX 14 19 1 -1
BITMAP
0780
1860
3030
6038
6018
C000
C000
C000
C000
C000
C000
C004
C004
6008
6018
3030
18E0
0780
0780
ENDCHAR
STARTCHAR 0064
ENCODING 100
SWIDTH 510 0
DWIDTH 17 0
BBX 16 28 1 -1
BITMAP
0008
0078
0018
0018
0018
0018
0018
0018
0018
0F18
30D8
6078
6038
C038
C018
C018
C018
C018
C018
C018
C018
C018
C018
6038
6078
30D8
0F1F
0F1F
ENDCHAR
STARTCHAR 0065
ENCODING 101
SWIDTH 510 0
DWIDTH 17 0
BBX 16 19 1 -1
BITMAP
0780
1860
3030
6018
6018
C00C
C00C
C00C
FFFC
C000
C000
C003
C003
6004
600C
3018
1870
07C0
07C0
ENDCHAR
STARTCHAR 0066
ENCODING 102
SWIDTH 510 0
DWIDTH 17 0
BBX 12 28 2 -1
BITMAP
03C0
0660
0430
0C30
0C00
0C00
0C00
0C00
0C00
FFC0
0C00
0C00
0C00
0C00
0C00
0C00
0C00
0C00
0C00
0C00
0C00
0C00
0C00
0C00
0C00
0C00
3F00
3F00
ENDCHAR
STARTCHAR 0067
ENCODING 103
SWIDTH 510 0
DWIDTH 17 0
BBX 14 23 1 -4
BITMAP
000C
0F9C
306C
3060
6030
6030
6030
6030
3060
3060
6F80
6000
6000
3FE0
1FF8
2018
400C
C00C
C00C
C00C
C018
6070
1F80
ENDCHAR
STARTCHAR 0068
ENCODING 104
SWIDTH 510 0
DWIDTH 17 0
BBX 17 28 0 -1
BITMAP
100000
F00000
300000
300000
300000
300000
300000
300000
300000
33E000
3C3000
381800
301800
300C00
300C00
300C00
300C00
300C00
300C00
300C00
300C00
300C00
300C00
300C00
300C00
300C00
FC3F80
FC3F80
ENDCHAR
STARTCHAR 0069
ENCODING 105
SWIDTH 510 0
DWIDTH 17 0
BBX 6 28 5 -1
BITMAP
30
78
78
30
00
00
00
00
00
10
F0
30
30
30
30
30
30
30
30
30
30
30
30
30
30
30
FC
FC
ENDCHAR
STARTCHAR 006A
ENCODING 106
SWIDTH 510 0
DWIDTH 17 0
BBX 11 31 1 -4
BITMAP
00C0
01E0
01E0
00C0
0000
0000
0000
0000
0000
0040
03C0
00C0
00C0
00C0
00C0
00C0
00C0
00C0
00C0
00C0
00C0
00C0
00C0
00C0
60C0
E0C0
C0C0
C0C0
6180
2380
1E00
ENDCHAR
STARTCHAR 006B
ENCODING 107
SWIDTH 510 0
DWIDTH 17 0
BBX 14 28 1 -1
BITMAP
1000
F000
3000
3000
3000
3000
3000
3000
3000
30F8
3020
3040
3080
3100
3200
3400
3E00
3600
3300
3180
3180
30C0
30C0
3060
3030
3030
FCFC
FCFC
ENDCHAR
STARTCHAR 006C
ENCODING 108
SWIDTH 510 0
DWIDTH 17 0
BBX 6 28 5 -1
BITMAP
10
F0
30
30
30
30
30
30
30
30
30
30
30
30
30
30
30
30
30
30
30
30
30
30
30
30
FC
FC
ENDCHAR
STARTCHAR 006D
ENCODING 109
SWIDTH 510 0
DWIDTH 17 0
BBX 17 19 0 -1
BITMAP
263800
FB4C00
718600
618600
618600
618600
618600
618600
618600
618600
618600
618600
618600
618600
618600
618600
618600
FBEF80
FBEF80
ENDCHAR
STARTCHAR 006E
ENCODING 110
SWIDTH 510 0
DWIDTH 17 0
BBX 17 19 0 -1
BITMAP
13E000
FC3000
381800
301800
300C00
300C00
300C00
300C00
300C00
300C00
300C00
300C00
300C00
300C00
300C00
300C00
300C00
FC3F80
FC3F80
ENDCHAR
STARTCHAR 006F
ENCODING 111
SWIDTH 510 0
DWIDTH 17 0
BBX 14 19 1 -1
BITMAP
0780
1860
3030
6018
6018
C00C
C00C
C00C
C00C
C00C
C00C
C00C
C00C
6018
6018
3030
1860
0780
0780
ENDCHAR
STARTCHAR 0070
ENCODING 112
SWIDTH 510 0
DWIDTH 17 0
BBX 14 22 1 -4
BITMAP
11C0
F630
3C18
3818
300C
300C
300C
300C
300C
300C
300C
300C
300C
300C
3818
3C18
3630
31C0
31C0
3000
3000
FC00
ENDCHAR
STARTCHAR 0071
ENCODING 113
SWIDTH 510 0
DWIDTH 17 0
BBX 14 22 1 -4
BITMAP
0E10
31B0
60F0
4070
C030
C030
C030
C030
C030
C030
C030
C030
C030
C030
6070
60F0
31B0
0E30
0E30
0030
0030
00FC
ENDCHAR
STARTCHAR 0072
ENCODING 114
SWIDTH 510 0
DWIDTH 17 0
BBX 14 19 1 -1
BITMAP
11E0
F638
3C1C
380C
3800
3000
3000
3000
3000
3000
3000
3000
3000
3000
3000
3000
3000
FC00
FC00
ENDCHAR
STARTCHAR 0073
ENCODING 115
SWIDTH 510 0
DWIDTH 17 0
BBX 14 19 1 -1
BITMAP
1F88
7068
6038
C018
C008
C008
7000
3E00
0FC0
01F0
0038
8018
800C
800C
C00C
E018
B030
8FC0
8FC0
ENDCHAR
STARTCHAR 0074
ENCODING 116
SWIDTH 510 0
DWIDTH 17 0
BBX 12 25 2 -1
BITMAP
0400
0C00
0C00
0C00
0C00
0C00
FFC0
0C00
0C00
0C00
0C00
0C00
0C00
0C00
0C00
0C00
0C00
0C00
0C00
0C00
0C10
0C20
06C0
0380
0380
ENDCHAR
STARTCHAR 0075
ENCODING 117
SWIDTH 510 0
DWIDTH 17 0
BBX 17 19 0 -1
BITMAP
100400
F03C00
300C00
300C00
300C00
300C00
300C00
300C00
300C00
300C00
300C00
300C00
300C00
300C00
181C00
183C00
0C6C00
038F80
038F80
ENDCHAR
STARTCHAR 0076
ENCODING 118
SWIDTH 510 0
DWIDTH 17 0
BBX 14 19 1 -1
BITMAP
FC7C
3010
3010
3010
1820
1820
1820
1820
0C40
0C40
0C40
0680
0680
0680
0300
0300
0300
0300
0300
ENDCHAR
STARTCHAR 0077
ENCODING 119
SWIDTH 510 0
DWIDTH 17 0
BBX 17 19 0 -1
BITMAP
FBEF80
308400
308400
308400
31C400
31C400
31C400
194800
194800
1A6800
1A6800
1A6800
1A6800
0C3000
0C3000
0C3000
0C3000
0C3000
0C3000
ENDCHAR
STARTCHAR 0078
ENCODING 120
SWIDTH 510 0
DWIDTH 17 0
BBX 14 19 1 -1
BITMAP
FC7C
3010
3010
1820
1840
0C40
0C80
0680
0700
0300
0580
0580
08C0
0860
1060
2030
2030
F8FC
F8FC
ENDCHAR
STARTCHAR 0079
ENCODING 121
SWIDTH 510 0
DWIDTH 17 0
BBX 14 22 1 -4
BITMAP
FC7C
3010
3010
3010
1820
1820
1820
0C40
0C40
0C40
0680
0680
0680
0300
0300
0200
0200
4400
4400
C400
C800
7000
ENDCHAR
STARTCHAR 007A
ENCODING 122
SWIDTH 510 0
DWIDTH 17 0
BBX 14 19 1 -1
BITMAP
7FF8
6030
4060
4060
40C0
00C0
0180
0300
0300
0600
0600
0C00
1800
1804
3004
3004
600C
FFFC
FFFC
ENDCHAR
STARTCHAR 007B
ENCODING 123
SWIDTH 510 0
DWIDTH 17 0
BBX 10 31 4 -4
BITMAP
01C0
0600
0400
0C00
0C00
0C00
0C00
0C00
0C00
0C00
0C00
0C00
0800
1800
E000
1800
0800
0C00
0C00
0C00
0C00
0C00
0C00
0C00
0C00
0C00
0C00
0C00
0400
0600
01C0
ENDCHAR
STARTCHAR 007C
ENCODING 124
SWIDTH 510 0
DWIDTH 17 0
BBX 2 33 6 -5
BITMAP
C0
C0
C0
C0
C0
C0
C0
C0
C0
C0
C0
C0
C0
C0
C0
C0
C0
C0
C0
C0
C0
C0
C0
C0
C0
C0
C0
C0
C0
C0
C0
C0
C0
ENDCHAR
STARTCHAR 007D
ENCODING 125
SWIDTH 510 0
DWIDTH 17 0
BBX 10 31 2 -4
BITMAP
E000
1800
0800
0C00
0C00
0C00
0C00
0C00
0C00
0C00
0C00
0C00
0400
0600
01C0
0600
0400
0C00
0C00
0C00
0C00
0C00
0C00
0C00
0C00
0C00
0C00
0C00
0800
1800
E000
ENDCHAR
STARTCHAR 00A0
ENCODING 160
SWIDTH 510 0
DWIDTH 17 0
BBX 0 0 0 0
BITMAP
ENDCHAR
STARTCHAR 00A2
ENCODING 162
SWIDTH 990 0
DWIDTH 33 0
BBX 16 25 9 -4
BITMAP
0004
0004
0008
0008
07F0
1818
302C
6026
6046
C046
C180
C180
C300
C300
C401
C401
6802
6802
3004
1818
27E0
27E0
2000
4000
4000
ENDCHAR
STARTCHAR 00A3
ENCODING 163
SWIDTH 990 0
DWIDTH 33 0
BBX 22 25 5 -1
BITMAP
007F00
0180C0
030060
060030
060030
060060
060000
060000
060000
030000
030000
FFFF00
018000
018000
00C000
00C000
00C000
00C000
3EC000
43C000
80F004
81BC18
431FF0
3C03C0
3C03C0
ENDCHAR
STARTCHAR 00A5
ENCODING 165
SWIDTH 510 0
DWIDTH 17 0
BBX 17 25 0 -1
BITMAP
FC1F80
300400
300400
180800
180800
0C1000
0C1000
062000
062000
034000
FFFF80
018000
018000
018000
FFFF80
018000
018000
018000
018000
018000
018000
018000
018000
0FF000
0FF000
ENDCHAR
STARTCHAR 00A7
ENCODING 167
SWIDTH 990 0
DWIDTH 33 0
BBX 15 29 8 -3
BITMAP
0FE0
3838
600C
C006
C00E
C00C
6000
3800
1F80
17E0
60F8
C01C
800C
C006
C006
7002
3C06
0FC4
03F8
003C
000C
0006
6006
E006
C006
600C
600C
3838
0FE0
ENDCHAR
STARTCHAR 00A8
ENCODING 168
SWIDTH 990 0
DWIDTH 33 0
BBX 11 3 11 23
BITMAP
E0E0
E0E0
E0E0
ENDCHAR
STARTCHAR 00AC
ENCODING 172
SWIDTH 990 0
DWIDTH 33 0
BBX 30 14 1 -4
BITMAP
FFFFFFFC
00000004
00000004
00000004
00000004
00000004
00000004
00000004
00000004
00000004
00000004
00000004
00000004
00000004
ENDCHAR
STARTCHAR 00B0
ENCODING 176
SWIDTH 990 0
DWIDTH 33 0
BBX 7 7 1 19
BITMAP
38
44
82
82
82
44
38
ENDCHAR
STARTCHAR 00B1
ENCODING 177
SWIDTH 990 0
DWIDTH 33 0
BBX 25 24 4 1
BITMAP
00180000
00180000
00180000
00180000
00180000
00180000
00180000
00180000
00180000
FFFFFF80
00180000
00180000
00180000
00180000
00180000
00180000
00180000
00180000
00180000
00180000
00000000
00000000
00000000
FFFFFF80
ENDCHAR
STARTCHAR 00B4
ENCODING 180
SWIDTH 990 0
DWIDTH 33 0
BBX 9 4 11 23
BITMAP
0700
0F80
3C00
C000
ENDCHAR
STARTCHAR 00B6
ENCODING 182
SWIDTH 990 0
DWIDTH 33 0
BBX 16 27 7 -2
BITMAP
0FFF
3FFF
7F03
7F03
FF03
FF03
FF03
FF03
7F03
7F03
3F03
0F03
0303
0303
0303
0303
0303
0303
0303
0303
0303
0303
0303
0303
0303
0303
0303
ENDCHAR
STARTCHAR 00D7
ENCODING 215
SWIDTH 990 0
DWIDTH 33 0
BBX 20 19 6 3
BITMAP
800010
400020
200040
100080
080100
040200
020400
010800
00B000
006000
00B000
010800
020400
040200
080100
100080
200040
400020
800010
ENDCHAR
STARTCHAR 00F7
ENCODING 247
SWIDTH 990 0
DWIDTH 33 0
BBX 25 17 4 4
BITMAP
001C0000
003E0000
003E0000
001C0000
00000000
00000000
00000000
00000000
FFFFFF80
00000000
00000000
00000000
00000000
001C0000
003E0000
003E0000
001C0000
ENDCHAR
STARTCHAR 0391
ENCODING 913
SWIDTH 990 0
DWIDTH 33 0
BBX 26 25 3 -1
BITMAP
000E0000
000E0000
000E0000
00170000
00170000
00170000
00218000
00218000
0040C000
0040C000
0040C000
00806000
00806000
01003000
01003000
01FFF000
02001800
02001800
04000C00
04000C00
04000C00
08000600
18000F00
FF003FC0
FF003FC0
ENDCHAR
STARTCHAR 0392
ENCODING 914
SWIDTH 990 0
DWIDTH 33 0
BBX 20 25 6 -1
BITMAP
FFFC00
380380
1800C0
1800C0
180060
180060
180060
180060
1800C0
1800C0
180380
1FFC00
180380
1800C0
180060
180060
180030
180030
180030
180060
180060
1800C0
380380
FFFC00
FFFC00
ENDCHAR
STARTCHAR 0393
ENCODING 915
SWIDTH 990 0
DWIDTH 33 0
BBX 20 25 8 -1
BITMAP
FFFFE0
3800E0
180060
180020
180030
180010
180010
180000
180000
180000
180000
180000
180000
180000
180000
180000
180000
180000
180000
180000
180000
180000
3C0000
FFC000
FFC000
ENDCHAR
STARTCHAR 0394
ENCODING 916
SWIDTH 990 0
DWIDTH 33 0
BBX 23 25 5 -1
BITMAP
007000
007000
007800
00B800
009C00
009C00
010600
010600
020300
020300
020180
040180
0400C0
0800C0
080060
080060
100030
100030
200018
200018
20000C
40000C
7FFFFE
FFFFFE
FFFFFE
ENDCHAR
STARTCHAR 0395
ENCODING 917
SWIDTH 990 0
DWIDTH 33 0
BBX 21 25 6 -1
BITMAP
FFFFE0
3800E0
180060
180030
180010
180010
180000
180000
180200
180200
180600
1FFE00
180600
180200
180200
180200
180000
180008
180008
180018
180010
180030
380070
FFFFF0
FFFFF0
ENDCHAR
STARTCHAR 0396
ENCODING 918
SWIDTH 990 0
DWIDTH 33 0
BBX 22 25 6 -1
BITMAP
3FFFF0
380060
3000C0
2001C0
600180
400300
400700
000600
000C00
003C00
003800
007000
00E000
01E000
018000
030000
070000
060004
0C0004
18000C
380008
300018
600038
FFFFF8
FFFFF8
ENDCHAR
STARTCHAR 0397
ENCODING 919
SWIDTH 990 0
DWIDTH 33 0
BBX 25 25 4 -1
BITMAP
FF007F80
3C001E00
18000C00
18000C00
18000C00
18000C00
18000C00
18000C00
18000C00
18000C00
18000C00
1FFFFC00
18000C00
18000C00
18000C00
18000C00
18000C00
18000C00
18000C00
18000C00
18000C00
18000C00
3C001E00
FF007F80
FF007F80
ENDCHAR
STARTCHAR 0398
ENCODING 920
SWIDTH 990 0
DWIDTH 33 0
BBX 23 25 5 -1
BITMAP
00FE00
030180
0C0060
180030
300018
300018
60000C
60000C
60000C
C40046
C40046
C7FFC6
C7FFC6
C40046
C40046
60000C
60000C
60000C
300018
300018
180030
0C0060
030180
00FE00
00FE00
ENDCHAR
STARTCHAR 0399
ENCODING 921
SWIDTH 990 0
DWIDTH 33 0
BBX 11 25 11 -1
BITMAP
FFE0
1F00
0E00
0E00
0E00
0E00
0E00
0E00
0E00
0E00
0E00
0E00
0E00
0E00
0E00
0E00
0E00
0E00
0E00
0E00
0E00
0E00
1F00
FFE0
FFE0
ENDCHAR
STARTCHAR 039A
ENCODING 922
SWIDTH 990 0
DWIDTH 33 0
BBX 25 25 5 -1
BITMAP
FF03FC00
3C00F000
18004000
18008000
18010000
18020000
18040000
18180000
18300000
18400000
18800000
19C00000
1AF00000
1C780000
183C0000
181E0000
18070000
18038000
1801C000
1800E000
18007000
18003800
3C001C00
FF00FF80
FF00FF80
ENDCHAR
STARTCHAR 039B
ENCODING 923
SWIDTH 990 0
DWIDTH 33 0
BBX 26 25 3 -1
BITMAP
000E0000
000E0000
000E0000
00170000
00170000
00170000
00218000
00218000
0040C000
0040C000
0040C000
00806000
00806000
01003000
01003000
01003000
02001800
02001800
04000C00
04000C00
04000C00
08000600
18000F00
FF003FC0
FF003FC0
ENDCHAR
STARTCHAR 039C
ENCODING 924
SWIDTH 990 0
DWIDTH 33 0
BBX 30 25 1 -1
BITMAP
F80000FC
380000F0
1C0000E0
1C000160
16000160
16000260
13000260
13000460
11800460
11800860
10C00860
10C00860
10C01060
10601060
10602060
10302060
10304060
10184060
10198060
100D8060
100F0060
10070060
380400F0
FE0403FC
FE0403FC
ENDCHAR
STARTCHAR 039D
ENCODING 925
SWIDTH 990 0
DWIDTH 33 0
BBX 24 25 4 -1
BITMAP
FC007F
3C001C
160008
170008
130008
118008
11C008
10C008
10E008
107808
103808
103C08
101E08
100E08
100F08
100388
100188
1001C8
1000E8
100068
100078
100038
380018
FE0018
FE0018
ENDCHAR
STARTCHAR 039E
ENCODING 926
SWIDTH 990 0
DWIDTH 33 0
BBX 21 25 6 -1
BITMAP
1FFFF8
1FFFF8
180010
300010
200020
200020
000000
000000
000000
040040
040040
07FFC0
0FFF80
080080
080080
000000
000000
000000
200020
200020
400060
4000C0
FFFFC0
FFFFC0
FFFFC0
ENDCHAR
STARTCHAR 039F
ENCODING 927
SWIDTH 990 0
DWIDTH 33 0
BBX 23 25 5 -1
BITMAP
00FE00
030180
0C0060
180030
300018
300018
60000C
60000C
60000C
C00006
C00006
C00006
C00006
C00006
C00006
60000C
60000C
60000C
300018
300018
180030
0C0060
030180
00FE00
00FE00
ENDCHAR
STARTCHAR 03A0
ENCODING 928
SWIDTH 990 0
DWIDTH 33 0
BBX 23 25 5 -1
BITMAP
FFFFFE
3C0078
180030
180030
180030
180030
180030
180030
180030
180030
180030
180030
180030
180030
180030
180030
180030
180030
180030
180030
180030
180030
3C0078
FF01FE
FF01FE
ENDCHAR
STARTCHAR 03A1
ENCODING 929
SWIDTH 990 0
DWIDTH 33 0
BBX 20 25 7 -1
BITMAP
FFFC00
3C0380
1800C0
180060
180060
180030
180030
180030
180060
180060
1800C0
180380
1FFC00
180000
180000
180000
180000
180000
180000
180000
180000
180000
3C0000
FFC000
FFC000
ENDCHAR
STARTCHAR 03A3
ENCODING 931
SWIDTH 990 0
DWIDTH 33 0
BBX 22 25 5 -1
BITMAP
FFFFF0
700030
380010
1C0018
0E0008
070008
038000
01C000
00F000
007800
003C00
001C00
003800
007000
00C000
018000
030004
060004
0C0008
180008
300018
600030
FFFFF0
FFFFF0
FFFFF0
ENDCHAR
STARTCHAR 03A4
ENCODING 932
SWIDTH 990 0
DWIDTH 33 0
BBX 25 25 4 -1
BITMAP
7FFFFF00
701C0700
601C0300
401C0100
C01C0180
801C0080
801C0080
001C0000
001C0000
001C0000
001C0000
001C0000
001C0000
001C0000
001C0000
001C0000
001C0000
001C0000
001C0000
001C0000
001C0000
001C0000
003E0000
01FFC000
01FFC000
ENDCHAR
STARTCHAR 03A5
ENCODING 933
SWIDTH 990 0
DWIDTH 33 0
BBX 25 25 4 -1
BITMAP
0F007000
1FC1FC00
30C18600
60630300
40220100
803E0080
001C0000
001C0000
001C0000
001C0000
001C0000
001C0000
001C0000
001C0000
001C0000
001C0000
001C0000
001C0000
001C0000
001C0000
001C0000
001C0000
003E0000
01FFC000
01FFC000
ENDCHAR
STARTCHAR 03A6
ENCODING 934
SWIDTH 990 0
DWIDTH 33 0
BBX 21 25 6 -1
BITMAP
07FF00
00F800
007000
007000
03FE00
0C7180
307060
607030
607030
C07018
C07018
C07018
C07018
C07018
C07018
607030
607030
307060
0C7180
03FE00
007000
007000
00F800
07FF00
07FF00
ENDCHAR
STARTCHAR 03A7
ENCODING 935
SWIDTH 990 0
DWIDTH 33 0
BBX 27 25 3 -1
BITMAP
7FC03FC0
0E000700
07000400
03800800
01801000
00C02000
00E02000
00704000
00308000
001D0000
001F0000
000E0000
000F0000
00118000
0011C000
0020E000
00407000
00803000
00801800
01001C00
02000E00
04000700
1C000380
FFC01FE0
FFC01FE0
ENDCHAR
STARTCHAR 03A8
ENCODING 936
SWIDTH 990 0
DWIDTH 33 0
BBX 27 25 3 -1
BITMAP
003F8000
000E0000
380E0380
7C0E07C0
460E0C40
860E0C20
060E0C00
060E0C00
060E0C00
060E0C00
060E0C00
060E0C00
060E0C00
030E1800
030E1800
018E3000
00CE6000
003F8000
000E0000
000E0000
000E0000
000E0000
001F0000
007FC000
007FC000
ENDCHAR
STARTCHAR 03A9
ENCODING 937
SWIDTH 990 0
DWIDTH 33 0
BBX 23 25 5 -1
BITMAP
00FE00
030180
0C0060
180030
300018
300018
60000C
60000C
60000C
60000C
60000C
60000C
300018
300018
180030
0C0060
0600C0
030180
008200
808202
808202
808202
FF83FE
FF83FE
FF83FE
ENDCHAR
STARTCHAR 03B1
ENCODING 945
SWIDTH 990 0
DWIDTH 33 0
BBX 18 17 7 -1
BITMAP
03C000
0C6100
181180
300980
200980
600B00
600B00
C00A00
C00E00
C00C00
C01840
C01840
C07880
60EF80
31C700
0E0000
0E0000
ENDCHAR
STARTCHAR 03B2
ENCODING 946
SWIDTH 990 0
DWIDTH 33 0
BBX 17 27 7 -4
BITMAP
007C00
01C300
030300
020180
060180
040180
0C0180
0C0180
080300
180600
18F800
18F000
300C00
300600
300300
300300
300300
600300
700300
780600
6C0600
660C00
C1F000
C1F000
C00000
C00000
C00000
ENDCHAR
STARTCHAR 03B3
ENCODING 947
SWIDTH 990 0
DWIDTH 33 0
BBX 17 20 7 -4
BITMAP
1E0180
3F0380
61C600
40CC00
80C800
00D000
00E000
00C000
01C000
01C000
030000
030000
030000
060000
060000
060000
060000
0E0000
0C0000
0C0000
ENDCHAR
STARTCHAR 03B4
ENCODING 948
SWIDTH 990 0
DWIDTH 33 0
BBX 14 25 9 -1
BITMAP
0F80
1060
1038
101C
080C
0C00
0700
0380
01C0
07E0
1870
3018
6018
600C
C00C
C00C
C00C
C00C
C00C
C018
6018
6030
3060
0F80
0F80
ENDCHAR
STARTCHAR 03B5
ENCODING 949
SWIDTH 990 0
DWIDTH 33 0
BBX 13 17 10 -1
BITMAP
07C0
1E60
3810
3000
3000
3000
1FC0
0FC0
3800
6000
C000
C008
C010
C060
7FC0
3F00
3F00
ENDCHAR
STARTCHAR 03B6
ENCODING 950
SWIDTH 990 0
DWIDTH 33 0
BBX 14 27 9 -4
BITMAP
0700
0C1C
103C
1070
11C0
0F80
0700
0C00
1800
1000
3000
2000
6000
4000
C000
8000
8000
C000
7F00
3FE0
01F0
0018
0008
0008
1808
1C30
07E0
ENDCHAR
STARTCHAR 03B7
ENCODING 951
SWIDTH 990 0
DWIDTH 33 0
BBX 16 20 8 -4
BITMAP
3C3C
66C6
8783
0603
0603
0C03
0C03
1806
1806
3006
300C
300C
600C
6018
6018
0018
0018
0030
0030
0030
ENDCHAR
STARTCHAR 03B8
ENCODING 952
SWIDTH 990 0
DWIDTH 33 0
BBX 16 24 8 -1
BITMAP
00F0
038C
0606
0C06
0C03
1803
1803
3003
3003
6003
7FFF
6006
6006
C006
C00C
C00C
C00C
C018
C018
6030
60E0
31C0
0E00
0E00
ENDCHAR
STARTCHAR 03B9
ENCODING 953
SWIDTH 990 0
DWIDTH 33 0
BBX 12 17 11 -1
BITMAP
1C00
1C00
1C00
3000
3000
3000
6000
6000
6000
C000
C000
C010
C020
C0C0
7F80
3E00
3E00
ENDCHAR
STARTCHAR 03BA
ENCODING 954
SWIDTH 990 0
DWIDTH 33 0
BBX 17 17 9 -1
BITMAP
0C0700
0C0F80
0C1980
0C3000
186000
1B8000
1C0000
338000
31C000
31C000
61C080
61C100
61C600
C1FC00
C07800
C00000
C00000
ENDCHAR
STARTCHAR 03BB
ENCODING 955
SWIDTH 990 0
DWIDTH 33 0
BBX 19 24 7 -1
BITMAP
03C000
07E000
00E000
007000
007000
001000
001000
001000
001000
007000
00D000
011000
031000
061000
041800
0C0800
180800
300C00
300C00
600600
600700
C003A0
C001C0
C001C0
ENDCHAR
STARTCHAR 03BC
ENCODING 956
SWIDTH 990 0
DWIDTH 33 0
BBX 20 20 6 -4
BITMAP
018060
018060
038060
0300E0
0300C0
0600C0
060180
060180
0C0180
0C0100
080300
080200
180610
140C20
3477C0
338380
338380
600000
C00000
C00000
ENDCHAR
STARTCHAR 03BD
ENCODING 957
SWIDTH 990 0
DWIDTH 33 0
BBX 17 17 9 -1
BITMAP
E00000
700080
300080
180080
180100
180100
180200
180600
180400
100C00
301800
207000
23E000
6F8000
7C0000
700000
700000
ENDCHAR
STARTCHAR 03BE
ENCODING 958
SWIDTH 990 0
DWIDTH 33 0
BBX 15 28 9 -4
BITMAP
07F0
0818
0800
0800
0400
03FE
07FE
0C00
1000
2000
2000
1000
0FFC
07FC
1C00
3000
4000
8000
E000
7FC0
1FF8
003C
000C
0004
0004
3008
3C30
0FC0
ENDCHAR
STARTCHAR 03BF
ENCODING 959
SWIDTH 990 0
DWIDTH 33 0
BBX 16 17 8 -1
BITMAP
03F0
0C0C
1806
3006
6003
6003
C003
C003
C003
C003
C006
C006
600C
6018
3030
0FC0
0FC0
ENDCHAR
STARTCHAR 03C0
ENCODING 960
SWIDTH 990 0
DWIDTH 33 0
BBX 20 19 7 -1
BITMAP
000010
000020
3FFFE0
7FFFC0
420C00
820C00
061800
041800
0C1800
0C1800
187000
187000
307040
30E080
60E180
60E300
C0FE00
C07C00
C07C00
ENDCHAR
STARTCHAR 03C1
ENCODING 961
SWIDTH 990 0
DWIDTH 33 0
BBX 16 20 8 -4
BITMAP
01F0
060C
0C06
0C06
1803
1803
3003
3003
3003
3003
6006
7006
700C
6818
6430
C3C0
C3C0
C000
C000
C000
ENDCHAR
STARTCHAR 03C3
ENCODING 963
SWIDTH 990 0
DWIDTH 33 0
BBX 19 19 7 -1
BITMAP
000020
000040
03FFC0
0FFF80
180800
300400
600600
600300
C00300
C00300
C00300
C00300
C00600
C00600
600C00
601800
307000
0FC000
0FC000
ENDCHAR
STARTCHAR 03C4
ENCODING 964
SWIDTH 990 0
DWIDTH 33 0
BBX 20 19 7 -1
BITMAP
000010
000020
3FFFE0
7FFFC0
41C000
81C000
030000
030000
030000
060000
060000
060000
0C0000
0C0200
0C0400
0C1800
0FF000
07C000
07C000
ENDCHAR
STARTCHAR 03C5
ENCODING 965
SWIDTH 990 0
DWIDTH 33 0
BBX 15 17 9 -1
BITMAP
6038
701C
300C
3006
3006
3006
6006
6006
6006
C00C
C00C
C018
C030
C060
6380
3C00
3C00
ENDCHAR
STARTCHAR 03C6
ENCODING 966
SWIDTH 990 0
DWIDTH 33 0
BBX 18 26 7 -4
BITMAP
001800
001800
001800
001800
007000
007000
03F800
0C6600
306380
60E180
60C0C0
C0C0C0
C0C0C0
C1C0C0
C10180
C10180
610300
330C00
0FF000
030000
020000
060000
060000
060000
060000
060000
ENDCHAR
STARTCHAR 03C7
ENCODING 967
SWIDTH 990 0
DWIDTH 33 0
BBX 18 20 7 -4
BITMAP
0700C0
0FC1C0
18C180
20E300
006600
006C00
006800
007000
006000
00E000
016000
036000
066000
0C6000
186040
306080
306080
601180
E01F00
C00E00
ENDCHAR
STARTCHAR 03C8
ENCODING 968
SWIDTH 990 0
DWIDTH 33 0
BBX 17 26 8 -4
BITMAP
003000
003000
003000
003000
002000
00E000
70E300
98C780
18C180
18C180
19C180
318180
318180
318300
638300
620300
620600
620C00
361800
1FE000
060000
040000
040000
0C0000
0C0000
0C0000
ENDCHAR
STARTCHAR 03C9
ENCODING 969
SWIDTH 990 0
DWIDTH 33 0
BBX 21 17 6 -1
BITMAP
030040
0C0020
180030
300010
303818
603818
603818
607818
C07018
C07018
C07018
C0F030
C0B030
C1B060
6338C0
3C0F00
3C0F00
ENDCHAR
STARTCHAR 0401
ENCODING 1025
SWIDTH 990 0
DWIDTH 33 0
BBX 21 29 6 -1
BITMAP
070700
070700
000000
000000
FFFFE0
3800E0
180060
180030
180010
180010
180000
180000
180200
180200
180600
1FFE00
180600
180200
180200
180200
180000
180008
180008
180018
180010
180030
380070
FFFFF0
FFFFF0
ENDCHAR
STARTCHAR 0410
ENCODING 1040
SWIDTH 990 0
DWIDTH 33 0
BBX 26 25 3 -1
BITMAP
000E0000
000E0000
000E0000
00170000
00170000
00170000
00218000
00218000
0040C000
0040C000
0040C000
00806000
00806000
01003000
01003000
01FFF000
02001800
02001800
04000C00
04000C00
04000C00
08000600
18000F00
FF003FC0
FF003FC0
ENDCHAR
STARTCHAR 0411
ENCODING 1041
SWIDTH 990 0
DWIDTH 33 0
BBX 20 25 6 -1
BITMAP
FFFFC0
3801C0
1800C0
180060
180020
180020
180000
180000
180000
180000
180000
1FFC00
180380
1800C0
180060
180060
180030
180030
180030
180060
180060
1800C0
380380
FFFC00
FFFC00
ENDCHAR
STARTCHAR 0412
ENCODING 1042
SWIDTH 990 0
DWIDTH 33 0
BBX 20 25 6 -1
BITMAP
FFFC00
380380
1800C0
1800C0
180060
180060
180060
180060
1800C0
1800C0
180380
1FFC00
180380
1800C0
180060
180060
180030
180030
180030
180060
180060
1800C0
380380
FFFC00
FFFC00
ENDCHAR
STARTCHAR 0413
ENCODING 1043
SWIDTH 990 0
DWIDTH 33 0
BBX 20 25 8 -1
BITMAP
FFFFE0
3800E0
180060
180020
180030
180010
180010
180000
180000
180000
180000
180000
180000
180000
180000
180000
180000
180000
180000
180000
180000
180000
3C0000
FFC000
FFC000
ENDCHAR
STARTCHAR 0414
ENCODING 1044
SWIDTH 990 0
DWIDTH 33 0
BBX 25 29 3 -5
BITMAP
03FFFF00
00C03C00
00401800
00401800
00401800
00401800
00401800
00401800
00401800
00401800
00401800
00401800
00801800
00801800
00801800
00801800
01001800
01001800
01001800
02001800
02001800
04001800
08001800
3FFFFF00
3FFFFF00
30000300
20000100
40000100
80000080
ENDCHAR
STARTCHAR 0415
ENCODING 1045
SWIDTH 990 0
DWIDTH 33 0
BBX 21 25 6 -1
BITMAP
FFFFE0
3800E0
180060
180030
180010
180010
180000
180000
180200
180200
180600
1FFE00
180600
180200
180200
180200
180000
180008
180008
180018
180010
180030
380070
FFFFF0
FFFFF0
ENDCHAR
STARTCHAR 0416
ENCODING 1046
SWIDTH 990 0
DWIDTH 33 0
BBX 29 25 2 -1
BITMAP
383FE0E0
7C0F81F0
64070130
04070100
02070200
02070200
02070200
01070400
01070400
00870800
00C71800
00FFF800
01870C00
03070600
03070600
06070300
06070300
06070300
0C070180
0C070180
0C070180
180700C0
380F80E0
FF3FE7F8
FF3FE7F8
ENDCHAR
STARTCHAR 0417
ENCODING 1047
SWIDTH 990 0
DWIDTH 33 0
BBX 18 25 7 -1
BITMAP
07F800
1C0600
700300
600300
400180
000180
000180
000180
000300
000300
000E00
01F800
000600
000380
000180
0000C0
0000C0
0000C0
8000C0
C00180
C00180
F00300
3C0E00
07F000
07F000
ENDCHAR
STARTCHAR 0418
ENCODING 1048
SWIDTH 990 0
DWIDTH 33 0
BBX 23 25 5 -1
BITMAP
FF01FE
3C0078
180030
180030
180070
1800B0
1800B0
180130
180230
180430
180430
181830
183030
184030
184030
188030
190030
1A0030
1A0030
1C0030
180030
180030
3C0078
FF01FE
FF01FE
ENDCHAR
STARTCHAR 0419
ENCODING 1049
SWIDTH 990 0
DWIDTH 33 0
BBX 23 29 5 -1
BITMAP
030180
030180
018300
007C00
FF01FE
3C0078
180030
180030
180070
1800B0
1800B0
180130
180230
180430
180430
181830
183030
184030
184030
188030
190030
1A0030
1A0030
1C0030
180030
180030
3C0078
FF01FE
FF01FE
ENDCHAR
STARTCHAR 041A
ENCODING 1050
SWIDTH 990 0
DWIDTH 33 0
BBX 25 25 5 -1
BITMAP
FF003800
3C007C00
18006C00
1800C000
18008000
18010000
18010000
18020000
18040000
18180000
18700000
1FC00000
18F00000
18780000
183C0000
181E0000
18070000
18038000
1801C000
1800E000
18007000
18003800
3C001C00
FF00FF80
FF00FF80
ENDCHAR
STARTCHAR 041B
ENCODING 1051
SWIDTH 990 0
DWIDTH 33 0
BBX 23 25 4 -1
BITMAP
0FFFFE
01C078
008038
008030
008030
008030
008030
008030
008030
008030
008030
008030
008030
008030
010030
010030
010030
010030
010030
620030
E20030
C40030
C80078
7001FE
7001FE
ENDCHAR
STARTCHAR 041C
ENCODING 1052
SWIDTH 990 0
DWIDTH 33 0
BBX 30 25 1 -1
BITMAP
F80000FC
380000F0
1C0000E0
1C000160
16000160
16000260
13000260
13000460
11800460
11800860
10C00860
10C00860
10C01060
10601060
10602060
10302060
10304060
10184060
10198060
100D8060
100F0060
10070060
380400F0
FE0403FC
FE0403FC
ENDCHAR
STARTCHAR 041D
ENCODING 1053
SWIDTH 990 0
DWIDTH 33 0
BBX 25 25 4 -1
BITMAP
FF007F80
3C001E00
18000C00
18000C00
18000C00
18000C00
18000C00
18000C00
18000C00
18000C00
18000C00
1FFFFC00
18000C00
18000C00
18000C00
18000C00
18000C00
18000C00
18000C00
18000C00
18000C00
18000C00
3C001E00
FF007F80
FF007F80
ENDCHAR
STARTCHAR 041E
ENCODING 1054
SWIDTH 990 0
DWIDTH 33 0
BBX 23 25 5 -1
BITMAP
00FE00
030180
0C0060
180030
300018
300018
60000C
60000C
60000C
C00006
C00006
C00006
C00006
C00006
C00006
60000C
60000C
60000C
300018
300018
180030
0C0060
030180
00FE00
00FE00
ENDCHAR
STARTCHAR 041F
ENCODING 1055
SWIDTH 990 0
DWIDTH 33 0
BBX 23 25 5 -1
BITMAP
FFFFFE
3C0078
180030
180030
180030
180030
180030
180030
180030
180030
180030
180030
180030
180030
180030
180030
180030
180030
180030
180030
180030
180030
3C0078
FF01FE
FF01FE
ENDCHAR
STARTCHAR 0420
ENCODING 1056
SWIDTH 990 0
DWIDTH 33 0
BBX 20 25 7 -1
BITMAP
FFFC00
3C0380
1800C0
180060
180060
180030
180030
180030
180060
180060
1800C0
180380
1FFC00
180000
180000
180000
180000
180000
180000
180000
180000
180000
3C0000
FFC000
FFC000
ENDCHAR
STARTCHAR 0421
ENCODING 1057
SWIDTH 990 0
DWIDTH 33 0
BBX 23 25 5 -1
BITMAP
00FF04
0300C4
0C003C
18000C
30000C
300004
600004
600000
C00000
C00000
C00000
C00000
C00000
C00000
C00000
C00002
600002
600004
300004
300008
180010
0C0020
0300C0
00FF00
00FF00
ENDCHAR
STARTCHAR 0422
ENCODING 1058
SWIDTH 990 0
DWIDTH 33 0
BBX 25 25 4 -1
BITMAP
7FFFFF00
701C0700
601C0300
401C0100
C01C0180
801C0080
801C0080
001C0000
001C0000
001C0000
001C0000
001C0000
001C0000
001C0000
001C0000
001C0000
001C0000
001C0000
001C0000
001C0000
001C0000
001C0000
003E0000
01FFC000
01FFC000
ENDCHAR
STARTCHAR 0423
ENCODING 1059
SWIDTH 990 0
DWIDTH 33 0
BBX 22 25 6 -1
BITMAP
FE01FC
380070
180020
180020
0C0040
0C0040
060080
060080
030100
030100
018200
018200
00E400
00E400
007800
007800
003000
003000
186000
386000
308000
308000
110000
0E0000
0E0000
ENDCHAR
STARTCHAR 0424
ENCODING 1060
SWIDTH 990 0
DWIDTH 33 0
BBX 21 25 6 -1
BITMAP
07FF00
00F800
007000
007000
03FE00
0C7180
307060
607030
607030
C07018
C07018
C07018
C07018
C07018
C07018
607030
607030
307060
0C7180
03FE00
007000
007000
00F800
07FF00
07FF00
ENDCHAR
STARTCHAR 0425
ENCODING 1061
SWIDTH 990 0
DWIDTH 33 0
BBX 27 25 3 -1
BITMAP
7FC03FC0
0E000700
07000400
03800800
01801000
00C02000
00E02000
00704000
00308000
001D0000
001F0000
000E0000
000F0000
00118000
0011C000
0020E000
00407000
00803000
00801800
01001C00
02000E00
04000700
1C000380
FFC01FE0
FFC01FE0
ENDCHAR
STARTCHAR 0426
ENCODING 1062
SWIDTH 990 0
DWIDTH 33 0
BBX 24 29 5 -5
BITMAP
FF01FE
3C0078
180030
180030
180030
180030
180030
180030
180030
180030
180030
180030
180030
180030
180030
180030
180030
180030
180030
180030
180030
180030
380030
FFFFFE
FFFFFE
000006
000002
000002
000001
ENDCHAR
STARTCHAR 0427
ENCODING 1063
SWIDTH 990 0
DWIDTH 33 0
BBX 22 25 5 -1
BITMAP
FF03FC
3C00F0
180060
180060
180060
180060
180060
180060
180060
180060
180060
180060
0C00E0
0C01E0
060660
01F860
000060
000060
000060
000060
000060
000060
0000F0
0003FC
0003FC
ENDCHAR
STARTCHAR 0428
ENCODING 1064
SWIDTH 990 0
DWIDTH 33 0
BBX 29 25 2 -1
BITMAP
FF1FC7F8
3C0F81E0
180700C0
180700C0
180700C0
180700C0
180700C0
180700C0
180700C0
180700C0
180700C0
180700C0
180700C0
180700C0
180700C0
180700C0
180700C0
180700C0
180700C0
180700C0
180700C0
180700C0
3C0F81E0
FFFFFFF8
FFFFFFF8
ENDCHAR
STARTCHAR 0429
ENCODING 1065
SWIDTH 990 0
DWIDTH 33 0
BBX 30 29 2 -5
BITMAP
FF1FC7F8
3C0F81E0
180700C0
180700C0
180700C0
180700C0
180700C0
180700C0
180700C0
180700C0
180700C0
180700C0
180700C0
180700C0
180700C0
180700C0
180700C0
180700C0
180700C0
180700C0
180700C0
180700C0
3C0F81E0
FFFFFFF8
FFFFFFF8
00000018
00000008
00000008
00000004
ENDCHAR
STARTCHAR 042A
ENCODING 1066
SWIDTH 990 0
DWIDTH 33 0
BBX 23 25 5 -1
BITMAP
7FFC00
71F000
60C000
C0C000
80C000
80C000
00C000
00C000
00C000
00FF80
00C070
00C018
00C00C
00C00C
00C006
00C006
00C006
00C006
00C006
00C00C
00C00C
00C018
01F070
07FF80
07FF80
ENDCHAR
STARTCHAR 042B
ENCODING 1067
SWIDTH 990 0
DWIDTH 33 0
BBX 26 25 3 -1
BITMAP
FF003FC0
3C000F00
18000600
18000600
18000600
18000600
18000600
18000600
18000600
1FE00600
181C0600
18070600
18018600
18018600
1800C600
1800C600
1800C600
1800C600
1800C600
18018600
18018600
18070600
3C1C0F00
FFE03FC0
FFE03FC0
ENDCHAR
STARTCHAR 042C
ENCODING 1068
SWIDTH 990 0
DWIDTH 33 0
BBX 18 25 8 -1
BITMAP
FF8000
3C0000
180000
180000
180000
180000
180000
180000
180000
1FF000
180C00
180300
180180
180180
1800C0
1800C0
1800C0
1800C0
1800C0
180180
180180
180300
3C0C00
FFF000
FFF000
ENDCHAR
STARTCHAR 042D
ENCODING 1069
SWIDTH 990 0
DWIDTH 33 0
BBX 20 25 7 -1
BITMAP
0FF000
F80C00
E00300
C00180
8000C0
000060
000060
000060
000030
030030
07E070
08F1B0
107F30
000E30
000030
000030
000060
000060
800060
8000C0
C00180
E00300
F80C00
0FF000
0FF000
ENDCHAR
STARTCHAR 042E
ENCODING 1070
SWIDTH 990 0
DWIDTH 33 0
BBX 28 25 2 -1
BITMAP
FF00FC00
3C070300
180E0180
181800C0
18300060
18300060
18300060
18600030
18600030
18600030
18600030
1FE00030
18600030
18600030
18600030
18600030
18600030
18300060
18300060
18300060
181800C0
180E0180
3C070300
FF00FC00
FF00FC00
ENDCHAR
STARTCHAR 042F
ENCODING 1071
SWIDTH 990 0
DWIDTH 33 0
BBX 23 25 4 -1
BITMAP
007FFE
038078
060030
060030
0C0030
0C0030
0C0030
0C0030
060030
060030
038030
007FF0
003830
003830
006030
006030
00C030
018030
018030
030030
060030
0C0030
300078
C003FE
C003FE
ENDCHAR
STARTCHAR 0430
ENCODING 1072
SWIDTH 990 0
DWIDTH 33 0
BBX 17 18 9 -1
BITMAP
07C000
183000
301800
601800
601800
001800
01F800
0F1800
381800
601800
601800
C01800
C01800
C03880
C05900
639F00
3C0E00
3C0E00
ENDCHAR
STARTCHAR 0431
ENCODING 1073
SWIDTH 990 0
DWIDTH 33 0
BBX 15 24 9 -1
BITMAP
0002
000C
07F8
1FE0
3800
6000
4000
C7E0
9818
B00C
E00C
C006
C006
C006
C006
C006
C006
C006
600C
600C
3018
1830
07C0
07C0
ENDCHAR
STARTCHAR 0432
ENCODING 1074
SWIDTH 990 0
DWIDTH 33 0
BBX 15 18 9 -1
BITMAP
FFC0
7030
3018
300C
300C
300C
3018
3030
3FE0
3018
300C
3006
3006
3006
300C
7018
FFE0
FFE0
ENDCHAR
STARTCHAR 0433
ENCODING 1075
SWIDTH 990 0
DWIDTH 33 0
BBX 15 18 10 -1
BITMAP
FFFC
781C
300C
3006
3002
3000
3000
3000
3000
3000
3000
3000
3000
3000
3000
7800
FF00
FF00
ENDCHAR
STARTCHAR 0434
ENCODING 1076
SWIDTH 990 0
DWIDTH 33 0
BBX 19 21 6 -4
BITMAP
0FFFC0
030780
010300
010300
010300
010300
010300
010300
010300
020300
020300
020300
040300
040300
080300
100300
7FFFC0
7FFFC0
6000C0
400040
800020
ENDCHAR
STARTCHAR 0435
ENCODING 1077
SWIDTH 990 0
DWIDTH 33 0
BBX 16 18 8 -1
BITMAP
07E0
1818
300C
6006
6006
C003
C003
FFFF
C000
C000
C000
C000
6001
6002
3004
1818
07E0
07E0
ENDCHAR
STARTCHAR 0436
ENCODING 1078
SWIDTH 990 0
DWIDTH 33 0
BBX 25 18 4 -1
BITMAP
307F0600
783E0F00
681C0B00
041C1000
041C1000
021C2000
011C4000
01FFC000
031C6000
061C3000
061C3000
0C1C1800
0C1C1800
181C0C00
181C0C00
383E0E00
FE7F3F80
FE7F3F80
ENDCHAR
STARTCHAR 0437
ENCODING 1079
SWIDTH 990 0
DWIDTH 33 0
BBX 13 18 10 -1
BITMAP
3F80
E060
C030
8018
0018
0018
0018
0030
0FC0
0030
0018
0018
0018
8018
C030
E060
3F80
3F80
ENDCHAR
STARTCHAR 0438
ENCODING 1080
SWIDTH 990 0
DWIDTH 33 0
BBX 19 18 7 -1
BITMAP
FC07E0
7803C0
300180
300380
300580
300980
301180
306180
30C180
310180
320180
340180
380180
300180
300180
7803C0
FC07E0
FC07E0
ENDCHAR
STARTCHAR 0439
ENCODING 1081
SWIDTH 990 0
DWIDTH 33 0
BBX 19 23 7 -1
BITMAP
0C0600
0C0600
060C00
01F000
000000
FC07E0
7803C0
300180
300380
300580
300980
301180
306180
30C180
310180
320180
340180
380180
300180
300180
7803C0
FC07E0
FC07E0
ENDCHAR
STARTCHAR 043A
ENCODING 1082
SWIDTH 990 0
DWIDTH 33 0
BBX 18 18 8 -1
BITMAP
FC0700
780F80
300980
301000
301000
302000
31C000
3E0000
378000
33C000
31E000
30F000
303800
301C00
300E00
780700
FC1FC0
FC1FC0
ENDCHAR
STARTCHAR 043B
ENCODING 1083
SWIDTH 990 0
DWIDTH 33 0
BBX 19 18 6 -1
BITMAP
07FFE0
0183C0
008180
008180
008180
008180
008180
008180
008180
010180
010180
010180
020180
C20180
C40180
C803C0
7007E0
7007E0
ENDCHAR
STARTCHAR 043C
ENCODING 1084
SWIDTH 990 0
DWIDTH 33 0
BBX 20 18 6 -1
BITMAP
F001F0
7801E0
3802C0
2C02C0
2C02C0
2C04C0
2604C0
2604C0
2308C0
2308C0
2330C0
21B0C0
21B0C0
20E0C0
20E0C0
7061E0
F803F0
F803F0
ENDCHAR
STARTCHAR 043D
ENCODING 1085
SWIDTH 990 0
DWIDTH 33 0
BBX 19 18 7 -1
BITMAP
FC07E0
7803C0
300180
300180
300180
300180
300180
300180
3FFF80
300180
300180
300180
300180
300180
300180
7803C0
FC07E0
FC07E0
ENDCHAR
STARTCHAR 043E
ENCODING 1086
SWIDTH 990 0
DWIDTH 33 0
BBX 17 18 8 -1
BITMAP
07F000
180C00
300600
600300
600300
C00180
C00180
C00180
C00180
C00180
C00180
C00180
600300
600300
300600
180C00
07F000
07F000
ENDCHAR
STARTCHAR 043F
ENCODING 1087
SWIDTH 990 0
DWIDTH 33 0
BBX 19 18 7 -1
BITMAP
FFFFE0
7803C0
300180
300180
300180
300180
300180
300180
300180
300180
300180
300180
300180
300180
300180
7803C0
FC07E0
FC07E0
ENDCHAR
STARTCHAR 0440
ENCODING 1088
SWIDTH 990 0
DWIDTH 33 0
BBX 18 21 7 -4
BITMAP
08F800
1B0600
7E0300
1C0180
180180
1800C0
1800C0
1800C0
1800C0
1800C0
1800C0
1800C0
180180
1C0180
1E0300
1B0600
18F800
18F800
180000
3C0000
FF0000
ENDCHAR
STARTCHAR 0441
ENCODING 1089
SWIDTH 990 0
DWIDTH 33 0
BBX 16 18 9 -1
BITMAP
07E0
1818
300C
6006
6006
C006
C000
C000
C000
C000
C001
C001
6002
6002
3004
1818
07E0
07E0
ENDCHAR
STARTCHAR 0442
ENCODING 1090
SWIDTH 990 0
DWIDTH 33 0
BBX 19 18 7 -1
BITMAP
7FFFC0
70E1C0
60E0C0
C0E060
80E020
00E000
00E000
00E000
00E000
00E000
00E000
00E000
00E000
00E000
00E000
01F000
07FC00
07FC00
ENDCHAR
STARTCHAR 0443
ENCODING 1091
SWIDTH 990 0
DWIDTH 33 0
BBX 20 21 7 -4
BITMAP
FE07F0
3800C0
180080
180100
0C0100
0C0200
060200
060200
030400
030400
01C800
01C800
00F000
00F000
006000
306000
30C000
30C000
30C000
190000
0E0000
ENDCHAR
STARTCHAR 0444
ENCODING 1092
SWIDTH 990 0
DWIDTH 33 0
BBX 19 27 7 -4
BITMAP
006000
00E000
03E000
00E000
00E000
00E000
1CE700
33F980
61F0C0
60E0C0
C0E060
C0E060
C0E060
C0E060
C0E060
C0E060
C0E060
C0E060
60E0C0
61F0C0
32E980
1CE700
00E000
00E000
00E000
01F000
03F800
ENDCHAR
STARTCHAR 0445
ENCODING 1093
SWIDTH 990 0
DWIDTH 33 0
BBX 21 18 6 -1
BITMAP
7F83F0
1C00C0
0E0080
060100
030200
018400
01E800
00F000
007800
00BC00
010C00
020600
040300
080380
1001C0
3000E0
FE07F8
FE07F8
ENDCHAR
STARTCHAR 0446
ENCODING 1094
SWIDTH 990 0
DWIDTH 33 0
BBX 20 21 8 -4
BITMAP
FC0FC0
780780
300300
300300
300300
300300
300300
300300
300300
300300
300300
300300
300300
300300
300300
700300
FFFFE0
FFFFE0
000060
000020
000010
ENDCHAR
STARTCHAR 0447
ENCODING 1095
SWIDTH 990 0
DWIDTH 33 0
BBX 17 18 8 -1
BITMAP
FC1F80
780F00
300600
300600
300600
300600
300600
300600
180E00
1C3600
07C600
000600
000600
000600
000600
000F00
001F80
001F80
ENDCHAR
STARTCHAR 0448
ENCODING 1096
SWIDTH 990 0
DWIDTH 33 0
BBX 23 18 5 -1
BITMAP
FCFE7E
787C3C
303818
303818
303818
303818
303818
303818
303818
303818
303818
303818
303818
303818
303818
787C3C
FFFFFE
FFFFFE
ENDCHAR
STARTCHAR 0449
ENCODING 1097
SWIDTH 990 0
DWIDTH 33 0
BBX 25 21 5 -4
BITMAP
FCFE7E00
787C3C00
30381800
30381800
30381800
30381800
30381800
30381800
30381800
30381800
30381800
30381800
30381800
30381800
30381800
787C3C00
FFFFFF00
FFFFFF00
00000300
00000100
00000080
ENDCHAR
STARTCHAR 044A
ENCODING 1098
SWIDTH 990 0
DWIDTH 33 0
BBX 19 18 6 -1
BITMAP
7F8000
670000
C60000
860000
060000
060000
060000
07FE00
060180
0600C0
060060
060060
060060
060060
0600C0
0E0180
1FFE00
1FFE00
ENDCHAR
STARTCHAR 044B
ENCODING 1099
SWIDTH 990 0
DWIDTH 33 0
BBX 22 18 5 -1
BITMAP
FC00FC
780078
300030
300030
300030
300030
300030
3FC030
303830
301C30
300630
300630
300630
300630
301C30
703878
FFC0FC
FFC0FC
ENDCHAR
STARTCHAR 044C
ENCODING 1100
SWIDTH 990 0
DWIDTH 33 0
BBX 16 18 9 -1
BITMAP
FC00
7800
3000
3000
3000
3000
3000
3FF0
300C
3006
3003
3003
3003
3003
3006
700C
FFF0
FFF0
ENDCHAR
STARTCHAR 044D
ENCODING 1101
SWIDTH 990 0
DWIDTH 33 0
BBX 15 18 9 -1
BITMAP
3FC0
E030
C018
800C
000C
0006
0C06
1F8E
23F6
0066
0006
0006
000C
800C
C018
E030
3FC0
3FC0
ENDCHAR
STARTCHAR 044E
ENCODING 1102
SWIDTH 990 0
DWIDTH 33 0
BBX 23 18 5 -1
BITMAP
FC07C0
783830
307018
30C00C
30C00C
318006
318006
318006
3F8006
318006
318006
318006
30C00C
30C00C
307018
783830
FC07C0
FC07C0
ENDCHAR
STARTCHAR 044F
ENCODING 1103
SWIDTH 990 0
DWIDTH 33 0
BBX 18 18 7 -1
BITMAP
03FFC0
0C0380
180300
300300
300300
300300
180300
0C0300
03FF00
01C300
030300
030300
060300
0C0300
180300
300780
C00FC0
C00FC0
ENDCHAR
STARTCHAR 0451
ENCODING 1105
SWIDTH 990 0
DWIDTH 33 0
BBX 16 23 8 -1
BITMAP
1C1C
1C1C
0000
0000
0000
07E0
1818
300C
6006
6006
C003
C003
FFFF
C000
C000
C000
C000
6001
6002
3004
1818
07E0
07E0
ENDCHAR
STARTCHAR 2000
ENCODING 8192
SWIDTH 990 0
DWIDTH 33 0
BBX 0 0 0 0
BITMAP
ENDCHAR
STARTCHAR 2001
ENCODING 8193
SWIDTH 990 0
DWIDTH 33 0
BBX 0 0 0 0
BITMAP
ENDCHAR
STARTCHAR 2002
ENCODING 8194
SWIDTH 990 0
DWIDTH 33 0
BBX 0 0 0 0
BITMAP
ENDCHAR
STARTCHAR 2003
ENCODING 8195
SWIDTH 990 0
DWIDTH 33 0
BBX 0 0 0 0
BITMAP
ENDCHAR
STARTCHAR 2004
ENCODING 8196
SWIDTH 990 0
DWIDTH 33 0
BBX 0 0 0 0
BITMAP
ENDCHAR
STARTCHAR 2005
ENCODING 8197
SWIDTH 990 0
DWIDTH 33 0
BBX 0 0 0 0
BITMAP
ENDCHAR
STARTCHAR 2006
ENCODING 8198
SWIDTH 990 0
DWIDTH 33 0
BBX 0 0 0 0
BITMAP
ENDCHAR
STARTCHAR 2007
ENCODING 8199
SWIDTH 990 0
DWIDTH 33 0
BBX 0 0 0 0
BITMAP
ENDCHAR
STARTCHAR 2008
ENCODING 8200
SWIDTH 990 0
DWIDTH 33 0
BBX 0 0 0 0
BITMAP
ENDCHAR
STARTCHAR 2009
ENCODING 8201
SWIDTH 990 0
DWIDTH 33 0
BBX 0 0 0 0
BITMAP
ENDCHAR
STARTCHAR 200A
ENCODING 8202
SWIDTH 990 0
DWIDTH 33 0
BBX 0 0 0 0
BITMAP
ENDCHAR
STARTCHAR 200B
ENCODING 8203
SWIDTH 510 0
DWIDTH 17 0
BBX 0 0 0 0
BITMAP
ENDCHAR
STARTCHAR 200C
ENCODING 8204
SWIDTH 510 0
DWIDTH 17 0
BBX 0 0 0 0
BITMAP
ENDCHAR
STARTCHAR 200D
ENCODING 8205
SWIDTH 510 0
DWIDTH 17 0
BBX 0 0 0 0
BITMAP
ENDCHAR
STARTCHAR 200E
ENCODING 8206
SWIDTH 510 0
DWIDTH 17 0
BBX 0 0 0 0
BITMAP
ENDCHAR
STARTCHAR 200F
ENCODING 8207
SWIDTH 510 0
DWIDTH 17 0
BBX 0 0 0 0
BITMAP
ENDCHAR
STARTCHAR 2010
ENCODING 8208
SWIDTH 990 0
DWIDTH 33 0
BBX 13 1 10 12
BITMAP
FFF8
ENDCHAR
STARTCHAR 2015
ENCODING 8213
SWIDTH 990 0
DWIDTH 33 0
BBX 33 1 0 12
BITMAP
FFFFFFFF80
ENDCHAR
STARTCHAR 2016
ENCODING 8214
SWIDTH 990 0
DWIDTH 33 0
BBX 7 33 13 -5
BITMAP
82
82
82
82
82
82
82
82
82
82
82
82
82
82
82
82
82
82
82
82
82
82
82
82
82
82
82
82
82
82
82
82
82
ENDCHAR
STARTCHAR 2018
ENCODING 8216
SWIDTH 990 0
DWIDTH 33 0
BBX 4 9 26 19
BITMAP
10
20
60
40
C0
E0
F0
F0
60
ENDCHAR
STARTCHAR 2019
ENCODING 8217
SWIDTH 990 0
DWIDTH 33 0
BBX 4 9 3 18
BITMAP
60
F0
F0
70
30
20
60
40
80
ENDCHAR
STARTCHAR 201C
ENCODING 8220
SWIDTH 990 0
DWIDTH 33 0
BBX 10 9 20 19
BITMAP
1040
2080
6180
4100
C300
E380
F3C0
F3C0
6180
ENDCHAR
STARTCHAR 201D
ENCODING 8221
SWIDTH 990 0
DWIDTH 33 0
BBX 10 9 3 18
BITMAP
6180
F3C0
F3C0
71C0
30C0
2080
6180
4100
8200
ENDCHAR
STARTCHAR 2020
ENCODING 8224
SWIDTH 990 0
DWIDTH 33 0
BBX 16 31 8 -4
BITMAP
0180
03C0
07E0
03C0
0180
2184
718E
FFFF
718E
2184
0180
0180
03C0
07E0
03C0
03C0
03C0
03C0
03C0
03C0
03C0
03C0
03C0
0180
0180
0180
0180
0180
0180
0180
0180
ENDCHAR
STARTCHAR 2021
ENCODING 8225
SWIDTH 990 0
DWIDTH 33 0
BBX 16 31 8 -4
BITMAP
0180
03C0
07E0
03C0
2184
718E
FFFF
718E
2184
03C0
07E0
03C0
03C0
0180
0180
0180
0180
03C0
03C0
07E0
03C0
2184
718E
FFFF
718E
2184
03C0
03C0
07E0
03C0
0180
ENDCHAR
STARTCHAR 2025
ENCODING 8229
SWIDTH 990 0
DWIDTH 33 0
BBX 21 4 6 10
BITMAP
600030
F00078
F00078
600030
ENDCHAR
STARTCHAR 2026
ENCODING 8230
SWIDTH 990 0
DWIDTH 33 0
BBX 27 4 3 10
BITMAP
600E00C0
F01F01E0
F01F01E0
600E00C0
ENDCHAR
STARTCHAR 2030
ENCODING 8240
SWIDTH 990 0
DWIDTH 33 0
BBX 32 32 0 -5
BITMAP
00000800
0E000800
31801000
20801000
60C02000
60C0C000
60C0C000
60C18000
60C20000
60C20000
60C40000
60C80000
20880000
31900000
0E200000
0023C038
004C30C6
00881082
00981983
01181983
02181983
02181983
04181983
08181983
08181983
10181983
20081082
20081082
200C30C6
4003C038
80000000
80000000
ENDCHAR
STARTCHAR 2032
ENCODING 8242
SWIDTH 990 0
DWIDTH 33 0
BBX 6 9 2 18
BITMAP
10
1C
18
30
30
20
40
40
80
ENDCHAR
STARTCHAR 2033
ENCODING 8243
SWIDTH 990 0
DWIDTH 33 0
BBX 11 9 2 18
BITMAP
1080
1CE0
18C0
3180
3180
2100
4200
4200
8400
ENDCHAR
STARTCHAR 203B
ENCODING 8251
SWIDTH 990 0
DWIDTH 33 0
BBX 29 29 2 -3
BITMAP
80000008
400F8010
200F8020
100F8040
080F8080
04000100
02000200
01000400
00800800
00401000
00202000
00104000
780880F0
780700F0
780700F0
780880F0
00104000
00202000
00401000
00800800
01000400
02000200
04000100
080F8080
100F8040
200F8020
200F8020
400F8010
80000000
ENDCHAR
STARTCHAR 203E
ENCODING 8254
SWIDTH 510 0
DWIDTH 17 0
BBX 14 1 1 25
BITMAP
FFFC
ENDCHAR
STARTCHAR 2103
ENCODING 8451
SWIDTH 990 0
DWIDTH 33 0
BBX 29 27 2 -1
BITMAP
38000000
44000000
8203FC10
820E0310
823000F0
44600030
38C00030
00C00010
01800010
01800000
03000000
03000000
03000000
03000000
03000000
03000000
03000000
03000008
01800008
01800010
00C00010
00C00020
00600040
00300080
000E0300
0003FC00
0003FC00
ENDCHAR
STARTCHAR 2116
ENCODING 8470
SWIDTH 990 0
DWIDTH 33 0
BBX 31 25 1 -1
BITMAP
F87F0000
38180000
2C180000
2C180000
2C180000
26180000
26180000
26180000
23180F00
231830C0
23186060
21986060
2199C030
2199C030
2199C030
20D9C030
20D9C030
20D9C030
2079C030
2079C030
20786060
2038606E
203830CE
F8380F0E
F8380F0E
ENDCHAR
STARTCHAR 2121
ENCODING 8481
SWIDTH 990 0
DWIDTH 33 0
BBX 32 25 0 -1
BITMAP
FFFE0000
C3060000
83020000
83020000
83020000
03000000
03000000
03000000
033FFBF0
030C18C0
030C08C0
030C08C0
030C00C0
030C10C0
030C10C0
030FF0C0
030C10C0
030C10C0
030C00C0
030C08C1
030C08C1
030C08C1
030C18C3
1FFFFBFF
1FFFFBFF
ENDCHAR
STARTCHAR 212B
ENCODING 8491
SWIDTH 990 0
DWIDTH 33 0
BBX 26 28 3 -1
BITMAP
000E0000
00110000
00208000
00208000
00110000
000E0000
000E0000
000E0000
00170000
00170000
00118000
00218000
00218000
0040C000
0040C000
00806000
00806000
01003000
01003000
01FFF000
02001800
02001800
04000C00
04000C00
08000600
18000F00
FF003FC0
FF003FC0
ENDCHAR
STARTCHAR 2160
ENCODING 8544
SWIDTH 990 0
DWIDTH 33 0
BBX 10 27 11 -2
BITMAP
FFC0
1E00
1E00
1E00
1E00
1E00
1E00
1E00
1E00
1E00
1E00
1E00
1E00
1E00
1E00
1E00
1E00
1E00
1E00
1E00
1E00
1E00
1E00
1E00
1E00
1E00
FFC0
ENDCHAR
STARTCHAR 2161
ENCODING 8545
SWIDTH 990 0
DWIDTH 33 0
BBX 17 27 8 -2
BITMAP
FFFF80
1C1C00
1C1C00
1C1C00
1C1C00
1C1C00
1C1C00
1C1C00
1C1C00
1C1C00
1C1C00
1C1C00
1C1C00
1C1C00
1C1C00
1C1C00
1C1C00
1C1C00
1C1C00
1C1C00
1C1C00
1C1C00
1C1C00
1C1C00
1C1C00
1C1C00
FFFF80
ENDCHAR
STARTCHAR 2162
ENCODING 8546
SWIDTH 990 0
DWIDTH 33 0
BBX 24 27 4 -2
BITMAP
FFFFFF
1C3C38
1C3C38
1C3C38
1C3C38
1C3C38
1C3C38
1C3C38
1C3C38
1C3C38
1C3C38
1C3C38
1C3C38
1C3C38
1C3C38
1C3C38
1C3C38
1C3C38
1C3C38
1C3C38
1C3C38
1C3C38
1C3C38
1C3C38
1C3C38
1C3C38
FFFFFF
ENDCHAR
STARTCHAR 2163
ENCODING 8547
SWIDTH 990 0
DWIDTH 33 0
BBX 27 27 4 -2
BITMAP
FFFC0FE0
1DC00100
1DC00100
1DC00100
1CE00100
1CE00200
1CE00200
1C780200
1C780400
1C780400
1C3C0400
1C3C0400
1C3C0800
1C1E0800
1C1E0800
1C1E1000
1C0F1000
1C0F1000
1C0F2000
1C03A000
1C03A000
1C03C000
1C01C000
1C01C000
1C008000
1C008000
FF808000
ENDCHAR
STARTCHAR 2164
ENCODING 8548
SWIDTH 990 0
DWIDTH 33 0
BBX 25 27 4 -2
BITMAP
FF803F80
1C000400
1C000400
0E000400
0E000800
0E000800
07000800
07001000
07001000
03801000
03802000
03802000
01C02000
01C04000
01C04000
00E04000
00E08000
00E08000
00788000
00790000
003D0000
003D0000
003E0000
001E0000
001C0000
001C0000
000C0000
ENDCHAR
STARTCHAR 2165
ENCODING 8549
SWIDTH 990 0
DWIDTH 33 0
BBX 27 27 1 -2
BITMAP
FF807FE0
1C001700
1C001700
1C001700
0E001700
0E002700
0E002700
07002700
07004700
07004700
03804700
03804700
03818700
01C18700
01C18700
01C30700
00E30700
00E30700
00E40700
00740700
00740700
00780700
00380700
00380700
00100700
00100700
00103FE0
ENDCHAR
STARTCHAR 2166
ENCODING 8550
SWIDTH 990 0
DWIDTH 33 0
BBX 30 27 1 -2
BITMAP
FF87FFFC
1C005CE0
1C005CE0
1C019CE0
0E019CE0
0E019CE0
0E019CE0
0E031CE0
07031CE0
07031CE0
07031CE0
07041CE0
03841CE0
03841CE0
03841CE0
03881CE0
01C81CE0
01C81CE0
01D01CE0
01D01CE0
00D01CE0
00F01CE0
00E01CE0
00601CE0
00601CE0
00601CE0
0041FFFC
ENDCHAR
STARTCHAR 2167
ENCODING 8551
SWIDTH 990 0
DWIDTH 33 0
BBX 32 27 0 -2
BITMAP
FF1FFFFF
3802F39C
3802F39C
3804F39C
3804F39C
1C04F39C
1C04F39C
1C08F39C
1C08F39C
0E08F39C
0E08F39C
0E08F39C
0E10F39C
0710F39C
0710F39C
0710F39C
0320F39C
03A0F39C
03A0F39C
03A0F39C
01E0F39C
01C0F39C
01C0F39C
00C0F39C
00C0F39C
00C0F39C
0087FFFF
ENDCHAR
STARTCHAR 2168
ENCODING 8552
SWIDTH 990 0
DWIDTH 33 0
BBX 27 27 4 -2
BITMAP
FFFC1FC0
1DC00200
1CE00200
1CE00400
1C780400
1C780800
1C3C1000
1C3C1000
1C1E2000
1C0F2000
1C0F4000
1C038000
1C038000
1C01C000
1C01C000
1C02E000
1C027000
1C0C7000
1C0C3800
1C181C00
1C181C00
1C200E00
1C400700
1C400700
1C800380
1C800380
FFFC3FE0
ENDCHAR
STARTCHAR 2169
ENCODING 8553
SWIDTH 990 0
DWIDTH 33 0
BBX 26 27 4 -2
BITMAP
FF807F80
1C000800
0E001000
0E001000
07002000
03804000
03804000
01C08000
00E10000
00E10000
007A0000
003C0000
003E0000
003E0000
002F0000
00430000
00838000
0081C000
0100E000
0200E000
02007000
04003800
08001C00
08001C00
10000E00
10000E00
FF007FC0
ENDCHAR
STARTCHAR 2190
ENCODING 8592
SWIDTH 990 0
DWIDTH 33 0
BBX 31 11 1 7
BITMAP
01000000
02000000
0C000000
18000000
30000000
FFFFFFFE
30000000
18000000
0C000000
02000000
01000000
ENDCHAR
STARTCHAR 2191
ENCODING 8593
SWIDTH 990 0
DWIDTH 33 0
BBX 12 31 10 -4
BITMAP
0600
0600
0F00
1F80
36C0
2640
4620
8610
0600
0600
0600
0600
0600
0600
0600
0600
0600
0600
0600
0600
0600
0600
0600
0600
0600
0600
0600
0600
0600
0600
0600
ENDCHAR
STARTCHAR 2192
ENCODING 8594
SWIDTH 990 0
DWIDTH 33 0
BBX 31 11 1 7
BITMAP
00000100
00000080
00000060
00000030
00000018
FFFFFFFE
00000018
00000030
00000060
00000080
00000100
ENDCHAR
STARTCHAR 2193
ENCODING 8595
SWIDTH 990 0
DWIDTH 33 0
BBX 12 31 10 -4
BITMAP
0600
0600
0600
0600
0600
0600
0600
0600
0600
0600
0600
0600
0600
0600
0600
0600
0600
0600
0600
0600
0600
0600
8610
4620
2640
36C0
1F80
1F80
0F00
0600
0600
ENDCHAR
STARTCHAR 21D2
ENCODING 8658
SWIDTH 990 0
DWIDTH 33 0
BBX 32 17 0 4
BITMAP
00000100
00000080
00000040
00000020
00000010
FFFFFFF8
00000004
00000002
00000001
00000002
00000004
FFFFFFF8
00000010
00000020
00000040
00000080
00000100
ENDCHAR
STARTCHAR 21D4
ENCODING 8660
SWIDTH 990 0
DWIDTH 33 0
BBX 31 17 1 4
BITMAP
00800200
01000100
02000080
04000040
08000020
1FFFFFF0
20000008
40000004
80000002
40000004
20000008
1FFFFFF0
08000020
04000040
02000080
01000100
00800200
ENDCHAR
STARTCHAR 2200
ENCODING 8704
SWIDTH 990 0
DWIDTH 33 0
BBX 26 27 3 -2
BITMAP
80000040
80000040
40000080
40000080
20000100
20000100
10000200
10000200
08000400
0FFFFC00
04000800
04000800
02001000
02001000
01002000
01002000
00804000
00804000
00408000
00408000
00210000
00210000
00160000
00160000
000C0000
000C0000
000C0000
ENDCHAR
STARTCHAR 2202
ENCODING 8706
SWIDTH 990 0
DWIDTH 33 0
BBX 18 29 7 -3
BITMAP
007C00
01E700
030180
040080
0800C0
000040
000040
000040
000040
000040
01E0C0
0618C0
0C0CC0
180580
300380
200180
600180
600300
C00300
C00300
C00600
C00600
C00C00
C00C00
601800
607000
607000
30E000
1F0000
ENDCHAR
STARTCHAR 2203
ENCODING 8707
SWIDTH 990 0
DWIDTH 33 0
BBX 22 23 5 1
BITMAP
FFFFFC
000004
000004
000004
000004
000004
000004
000004
000004
000004
000004
FFFFFC
000004
000004
000004
000004
000004
000004
000004
000004
000004
000004
FFFFFC
ENDCHAR
STARTCHAR 2207
ENCODING 8711
SWIDTH 990 0
DWIDTH 33 0
BBX 29 28 2 -3
BITMAP
FFFFFFF8
7FFFFFF0
60000010
30000020
30000020
18000040
18000040
0C000080
0C000080
06000100
06000100
03000200
03000200
01800400
01800400
00C00800
00C00800
00601000
00601000
00302000
00302000
00184000
00184000
000E8000
000E8000
000E8000
00070000
00070000
ENDCHAR
STARTCHAR 2208
ENCODING 8712
SWIDTH 990 0
DWIDTH 33 0
BBX 25 21 4 2
BITMAP
03FFFF80
0C000000
10000000
20000000
40000000
40000000
80000000
80000000
80000000
80000000
FFFFFF80
80000000
80000000
80000000
80000000
40000000
40000000
20000000
10000000
0C000000
03FFFF80
ENDCHAR
STARTCHAR 220B
ENCODING 8715
SWIDTH 990 0
DWIDTH 33 0
BBX 25 21 4 2
BITMAP
FFFFE000
00001800
00000400
00000200
00000100
00000100
00000080
00000080
00000080
00000080
FFFFFF80
00000080
00000080
00000080
00000080
00000100
00000100
00000200
00000400
00001800
FFFFE000
ENDCHAR
STARTCHAR 2211
ENCODING 8721
SWIDTH 990 0
DWIDTH 33 0
BBX 25 26 3 -2
BITMAP
7FFFFE00
1C000600
0E000200
07000200
03800200
01C00000
00E00000
00700000
003C0000
001E0000
000F0000
00070000
000E0000
001C0000
00300000
00600000
00C00000
01800080
03000080
06000080
0C000080
18000180
3FFFFF80
7FFFFF80
7FFFFF80
FFFFFF80
ENDCHAR
STARTCHAR 2212
ENCODING 8722
SWIDTH 990 0
DWIDTH 33 0
BBX 25 1 4 12
BITMAP
FFFFFF80
ENDCHAR
STARTCHAR 221A
ENCODING 8730
SWIDTH 990 0
DWIDTH 33 0
BBX 31 29 0 -4
BITMAP
00003FFE
00002000
00002000
0000E000
0000C000
0000C000
0001C000
00018000
00018000
00038000
00020000
00020000
00060000
10040000
18040000
380C0000
2C080000
4C080000
46180000
86100000
03100000
03300000
01A00000
01E00000
00E00000
00E00000
00C00000
00400000
00400000
ENDCHAR
STARTCHAR 221D
ENCODING 8733
SWIDTH 990 0
DWIDTH 33 0
BBX 31 14 1 5
BITMAP
0FC007E0
38701C38
6018300C
400C6006
C0044002
8007C000
80038000
80038000
8007C000
C0044002
400C6006
6018300C
38701C38
0FC007E0
ENDCHAR
STARTCHAR 221E
ENCODING 8734
SWIDTH 990 0
DWIDTH 33 0
BBX 31 14 1 5
BITMAP
0FC007E0
38701C38
6018300C
400C6004
C0044006
8007C002
80038002
80038002
8007C002
C0044006
400C6004
6018300C
38701C38
0FC007E0
ENDCHAR
STARTCHAR 221F
ENCODING 8735
SWIDTH 990 0
DWIDTH 33 0
BBX 25 24 4 3
BITMAP
80000000
80000000
80000000
80000000
80000000
80000000
80000000
80000000
80000000
80000000
80000000
80000000
80000000
80000000
80000000
80000000
80000000
80000000
80000000
80000000
80000000
80000000
80000000
FFFFFF80
ENDCHAR
STARTCHAR 2220
ENCODING 8736
SWIDTH 990 0
DWIDTH 33 0
BBX 23 21 5 3
BITMAP
000004
000008
000010
000020
000040
000080
000100
000200
000400
001800
003000
004000
008000
010000
020000
040000
080000
100000
200000
400000
FFFFFE
ENDCHAR
STARTCHAR 2227
ENCODING 8743
SWIDTH 990 0
DWIDTH 33 0
BBX 26 27 3 -2
BITMAP
000C0000
000C0000
00160000
00160000
00210000
00210000
00408000
00408000
00804000
00804000
01002000
01002000
02001000
02001000
04000800
04000800
08000400
08000400
10000200
10000200
20000100
20000100
40000080
40000080
80000040
80000040
80000040
ENDCHAR
STARTCHAR 2228
ENCODING 8744
SWIDTH 990 0
DWIDTH 33 0
BBX 26 27 3 -2
BITMAP
80000040
80000040
40000080
40000080
20000100
20000100
10000200
10000200
08000400
08000400
04000800
04000800
02001000
02001000
01002000
01002000
00804000
00804000
00408000
00408000
00210000
00210000
00160000
00160000
000C0000
000C0000
000C0000
ENDCHAR
STARTCHAR 2229
ENCODING 8745
SWIDTH 990 0
DWIDTH 33 0
BBX 21 27 6 -2
BITMAP
01FC00
060300
080080
100040
200020
400010
400010
800008
800008
800008
800008
800008
800008
800008
800008
800008
800008
800008
800008
800008
800008
800008
800008
800008
800008
800008
800008
ENDCHAR
STARTCHAR 222A
ENCODING 8746
SWIDTH 990 0
DWIDTH 33 0
BBX 21 27 6 -2
BITMAP
800008
800008
800008
800008
800008
800008
800008
800008
800008
800008
800008
800008
800008
800008
800008
800008
800008
800008
800008
400010
400010
200020
100040
080080
060300
060300
01FC00
ENDCHAR
STARTCHAR 222B
ENCODING 8747
SWIDTH 990 0
DWIDTH 33 0
BBX 11 29 11 -3
BITMAP
0780
0C40
1060
1060
1000
1000
1000
1C00
1C00
1C00
1C00
0E00
0E00
0E00
0E00
0E00
0E00
0700
0700
0700
0700
0100
0100
0100
C100
C100
C100
6600
3C00
ENDCHAR
STARTCHAR 222C
ENCODING 8748
SWIDTH 990 0
DWIDTH 33 0
BBX 21 29 6 -3
BITMAP
0700E0
088130
10E218
10E218
100200
100200
100200
180300
180300
180300
180300
0C0180
0C0180
0C0180
0C0180
0C0180
0C0180
0600C0
0600C0
0600C0
0600C0
020040
020040
020040
C23840
C23840
C23840
640C80
380700
ENDCHAR
STARTCHAR 222E
ENCODING 8750
SWIDTH 990 0
DWIDTH 33 0
BBX 13 29 10 -3
BITMAP
03C0
0620
0830
0830
0800
0800
0800
0E00
0E00
1FC0
2E20
4710
8708
8708
8708
8708
4710
23A0
1FC0
0380
0380
0080
0080
0080
6080
6080
6080
3300
1E00
ENDCHAR
STARTCHAR 2234
ENCODING 8756
SWIDTH 990 0
DWIDTH 33 0
BBX 21 19 6 3
BITMAP
007000
00F800
00F800
007000
000000
000000
000000
000000
000000
000000
000000
000000
000000
000000
000000
600030
F00078
F00078
600030
ENDCHAR
STARTCHAR 2235
ENCODING 8757
SWIDTH 990 0
DWIDTH 33 0
BBX 21 20 6 2
BITMAP
600030
F00078
F00078
600030
000000
000000
000000
000000
000000
000000
000000
000000
000000
000000
000000
000000
007000
00F800
00F800
007000
ENDCHAR
STARTCHAR 223D
ENCODING 8765
SWIDTH 990 0
DWIDTH 33 0
BBX 31 14 1 5
BITMAP
0FC007E0
38701C38
6018300C
40086004
C001C006
80018002
80038002
80030002
80070002
C0040006
400C2004
6018300C
38701C38
0FC007E0
ENDCHAR
STARTCHAR 2252
ENCODING 8786
SWIDTH 990 0
DWIDTH 33 0
BBX 25 25 4 -1
BITMAP
03000000
07800000
07800000
03000000
00000000
00000000
00000000
00000000
FFFFFF80
FFFFFF80
00000000
00000000
00000000
00000000
FFFFFF80
FFFFFF80
00000000
00000000
00000000
00000000
00006000
0000F000
0000F000
00006000
00006000
ENDCHAR
STARTCHAR 2260
ENCODING 8800
SWIDTH 990 0
DWIDTH 33 0
BBX 25 23 4 1
BITMAP
00008000
00008000
00008000
00010000
00010000
00010000
00020000
00020000
FFFFFF80
000C0000
000C0000
000C0000
00180000
00180000
FFFFFF80
00200000
00200000
00200000
00400000
00400000
00400000
00800000
00800000
ENDCHAR
STARTCHAR 2261
ENCODING 8801
SWIDTH 990 0
DWIDTH 33 0
BBX 25 16 4 4
BITMAP
FFFFFF80
FFFFFF80
00000000
00000000
00000000
00000000
00000000
FFFFFF80
FFFFFF80
00000000
00000000
00000000
00000000
00000000
FFFFFF80
FFFFFF80
ENDCHAR
STARTCHAR 2266
ENCODING 8806
SWIDTH 990 0
DWIDTH 33 0
BBX 27 27 3 -1
BITMAP
000000E0
00000700
00003800
0001C000
001E0000
00E00000
07000000
38000000
C0000000
38000000
07000000
00E00000
001E0000
0001C000
00003800
00000700
000000E0
00000000
00000000
00000000
FFFFFFE0
00000000
00000000
00000000
00000000
FFFFFFE0
FFFFFFE0
ENDCHAR
STARTCHAR 2267
ENCODING 8807
SWIDTH 990 0
DWIDTH 33 0
BBX 27 27 3 -1
BITMAP
E0000000
1C000000
03800000
00700000
000F0000
0000E000
00001C00
00000380
00000060
00000380
00001C00
0000E000
000F0000
00700000
03800000
1C000000
E0000000
00000000
00000000
00000000
FFFFFFE0
00000000
00000000
00000000
00000000
FFFFFFE0
FFFFFFE0
ENDCHAR
STARTCHAR 226A
ENCODING 8810
SWIDTH 990 0
DWIDTH 33 0
BBX 28 26 2 -1
BITMAP
00001830
00002040
0000C180
00030200
000E0C00
00101000
00606000
00808000
03070000
04080000
18300000
20400000
C1800000
20400000
18300000
04080000
03070000
00808000
00606000
00101000
000E0C00
00030200
0000C180
00002040
00001830
00001830
ENDCHAR
STARTCHAR 226B
ENCODING 8811
SWIDTH 990 0
DWIDTH 33 0
BBX 28 26 3 -1
BITMAP
C1800000
20400000
18300000
040C0000
03070000
00808000
00606000
00101000
000E0C00
00010200
0000C180
00002040
00001830
00002040
0000C180
00010200
000E0C00
00101000
00606000
00808000
03070000
040C0000
18300000
20400000
C1800000
C1800000
ENDCHAR
STARTCHAR 2282
ENCODING 8834
SWIDTH 990 0
DWIDTH 33 0
BBX 27 20 3 2
BITMAP
01FFFFE0
06000000
08000000
10000000
20000000
40000000
40000000
80000000
80000000
80000000
80000000
80000000
80000000
40000000
40000000
20000000
10000000
08000000
06000000
01FFFFE0
ENDCHAR
STARTCHAR 2283
ENCODING 8835
SWIDTH 990 0
DWIDTH 33 0
BBX 27 20 3 2
BITMAP
FFFFF000
00000C00
00000200
00000100
00000080
00000040
00000040
00000020
00000020
00000020
00000020
00000020
00000020
00000040
00000040
00000080
00000100
00000200
00000C00
FFFFF000
ENDCHAR
STARTCHAR 2286
ENCODING 8838
SWIDTH 990 0
DWIDTH 33 0
BBX 27 26 3 -1
BITMAP
01FFFFE0
06000000
08000000
10000000
20000000
40000000
40000000
80000000
80000000
80000000
80000000
80000000
40000000
40000000
20000000
10000000
08000000
06000000
01FFFFE0
00000000
00000000
00000000
00000000
00000000
FFFFFFE0
FFFFFFE0
ENDCHAR
STARTCHAR 2287
ENCODING 8839
SWIDTH 990 0
DWIDTH 33 0
BBX 27 26 3 -1
BITMAP
FFFFF000
00000C00
00000200
00000100
00000080
00000040
00000040
00000020
00000020
00000020
00000020
00000020
00000040
00000040
00000080
00000100
00000200
00000C00
FFFFF000
00000000
00000000
00000000
00000000
00000000
FFFFFFE0
FFFFFFE0
ENDCHAR
STARTCHAR 22A5
ENCODING 8869
SWIDTH 990 0
DWIDTH 33 0
BBX 26 24 3 3
BITMAP
000C0000
000C0000
000C0000
000C0000
000C0000
000C0000
000C0000
000C0000
000C0000
000C0000
000C0000
000C0000
000C0000
000C0000
000C0000
000C0000
000C0000
000C0000
000C0000
000C0000
000C0000
000C0000
000C0000
FFFFFFC0
ENDCHAR
STARTCHAR 22BF
ENCODING 8895
SWIDTH 990 0
DWIDTH 33 0
BBX 22 21 4 3
BITMAP
000004
00000C
000014
000024
000044
000084
000104
000204
000C04
001804
002004
004004
008004
010004
020004
040004
080004
100004
200004
400004
FFFFFC
ENDCHAR
STARTCHAR 2312
ENCODING 8978
SWIDTH 990 0
DWIDTH 33 0
BBX 33 6 0 20
BITMAP
001FFC0000
00FFFF8000
07C001F000
1C00001C00
6000000300
8000000080
ENDCHAR
STARTCHAR 2460
ENCODING 9312
SWIDTH 990 0
DWIDTH 33 0
BBX 31 31 1 -4
BITMAP
000FE000
00701C00
01800300
02000080
04018040
08038020
10078010
203F8008
20038008
40038004
40038004
40038004
80038002
80038002
80038002
80038002
80038002
80038002
40038004
40038004
40038004
20038008
20038008
101FF010
08000020
04000040
02000080
02000080
01800300
00701C00
000FE000
ENDCHAR
STARTCHAR 2461
ENCODING 9313
SWIDTH 990 0
DWIDTH 33 0
BBX 31 31 1 -4
BITMAP
000FE000
00701C00
01800300
02000080
0407E040
08181020
10301810
20200808
20600C08
40600C04
40600C04
40000C04
80000802
80001802
80003002
8001C002
80030002
80040002
40080004
40100404
40100404
20200408
203FFC08
107FFC10
08000020
04000040
02000080
02000080
01800300
00701C00
000FE000
ENDCHAR
STARTCHAR 2462
ENCODING 9314
SWIDTH 990 0
DWIDTH 33 0
BBX 31 31 1 -4
BITMAP
000FE000
00701C00
01800300
02000080
04078040
08186020
10303010
20601808
20601808
40601804
40001804
40001004
80003002
800FE002
80007002
80001802
80001802
80000C02
40000C04
40600C04
40600C04
20601808
20201808
10107010
080FC020
04000040
02000080
02000080
01800300
00701C00
000FE000
ENDCHAR
STARTCHAR 2463
ENCODING 9315
SWIDTH 990 0
DWIDTH 33 0
BBX 31 31 1 -4
BITMAP
000FE000
00701C00
01800300
02000080
0401C040
0801C020
1003C010
2003C008
2005C008
4005C004
4009C004
4009C004
8011C002
8011C002
8021C002
8021C002
8041C002
8041C002
40FFFC04
4001C004
4001C004
2001C008
2001C008
1007F010
08000020
04000040
02000080
02000080
01800300
00701C00
000FE000
ENDCHAR
STARTCHAR 2464
ENCODING 9316
SWIDTH 990 0
DWIDTH 33 0
BBX 31 31 1 -4
BITMAP
000FE000
00701C00
01800300
02000080
04000040
08000020
103FF810
203FF808
20200008
40200004
40200004
40200004
8027E002
80383002
80301802
80201802
80000C02
80000C02
40600C04
40600C04
40601804
20301808
20183008
1007C010
08000020
04000040
02000080
02000080
01800300
00701C00
000FE000
ENDCHAR
STARTCHAR 2465
ENCODING 9317
SWIDTH 990 0
DWIDTH 33 0
BBX 31 31 1 -4
BITMAP
000FE000
00701C00
01800300
02000080
04000040
08000020
1007E010
20181808
20300C08
40200C04
40600C04
40600004
80600002
8067E002
80783002
80701802
80600C02
80600C02
40600C04
40600C04
40200C04
20301808
20183008
1007C010
08000020
04000040
02000080
02000080
01800300
00701C00
000FE000
ENDCHAR
STARTCHAR 2466
ENCODING 9318
SWIDTH 990 0
DWIDTH 33 0
BBX 31 31 1 -4
BITMAP
000FE000
00701C00
01800300
02000080
04000040
08000020
107FFC10
207FFC08
20400808
40401004
40001004
40002004
80002002
80004002
80004002
80018002
80018002
80038002
40030004
40070004
40070004
200C0008
200C0008
100C0010
08000020
04000040
02000080
02000080
01800300
00701C00
000FE000
ENDCHAR
STARTCHAR 2467
ENCODING 9319
SWIDTH 990 0
DWIDTH 33 0
BBX 31 31 1 -4
BITMAP
000FE000
00701C00
01800300
02000080
04000040
08000020
1007C010
20183008
20301808
40301804
40301804
40301804
80183002
800FE002
80183002
80301802
80600C02
80600C02
40600C04
40600C04
40600C04
20301808
20183008
1007C010
08000020
04000040
02000080
02000080
01800300
00701C00
000FE000
ENDCHAR
STARTCHAR 2468
ENCODING 9320
SWIDTH 990 0
DWIDTH 33 0
BBX 31 31 1 -4
BITMAP
000FE000
00701C00
01800300
02000080
04000040
08000020
1007C010
20183008
20301808
40600804
40600C04
40600C04
80600C02
80600C02
80301C02
80183C02
800FCC02
80000C02
40000C04
40600C04
40600804
20601808
20303008
100FC010
08000020
04000040
02000080
02000080
01800300
00701C00
000FE000
ENDCHAR
STARTCHAR 2469
ENCODING 9321
SWIDTH 990 0
DWIDTH 33 0
BBX 31 31 1 -4
BITMAP
000FE000
00701C00
01800300
02000080
04000040
08000020
10203810
2061C608
21E18208
40638304
40638304
40638304
80638302
80638302
80638302
80638302
80638302
80638302
40638304
40638304
40638304
20618208
2061C608
11F83810
08000020
04000040
02000080
02000080
01800300
00701C00
000FE000
ENDCHAR
STARTCHAR 246A
ENCODING 9322
SWIDTH 990 0
DWIDTH 33 0
BBX 31 31 1 -4
BITMAP
000FE000
00701C00
01800300
02000080
04000040
08000020
10100810
20301808
20F07808
40301804
40301804
40301804
80301802
80301802
80301802
80301802
80301802
80301802
40301804
40301804
40301804
20301808
20301808
10FC7E10
08000020
04000040
02000080
02000080
01800300
00701C00
000FE000
ENDCHAR
STARTCHAR 246B
ENCODING 9323
SWIDTH 990 0
DWIDTH 33 0
BBX 31 31 1 -4
BITMAP
000FE000
00701C00
01800300
02000080
04000040
08000020
10203810
2061C608
21E38208
40638304
40638304
40600304
80600602
80600602
80600C02
80601802
80603002
80606002
40604004
40618004
40618104
20630108
2063FF08
11FBFF10
08000020
04000040
02000080
02000080
01800300
00701C00
000FE000
ENDCHAR
STARTCHAR 246C
ENCODING 9324
SWIDTH 990 0
DWIDTH 33 0
BBX 31 31 1 -4
BITMAP
000FE000
00701C00
01800300
02000080
04000040
08000020
10203810
2061C608
21E38208
40638304
40638304
40600304
80600202
80600602
80603C02
80600602
80600302
80600302
40600304
40638304
40638304
20638308
2061C608
11F83810
08000020
04000040
02000080
02000080
01800300
00701C00
000FE000
ENDCHAR
STARTCHAR 246D
ENCODING 9325
SWIDTH 990 0
DWIDTH 33 0
BBX 31 31 1 -4
BITMAP
000FE000
00701C00
01800300
02000080
04000040
08000020
10200C10
20600C08
21E01C08
40601C04
40602C04
40602C04
80604C02
80604C02
80618C02
80618C02
80630C02
8067FF82
40600C04
40600C04
40600C04
20600C08
20600C08
11F83F10
08000020
04000040
02000080
02000080
01800300
00701C00
000FE000
ENDCHAR
STARTCHAR 246E
ENCODING 9326
SWIDTH 990 0
DWIDTH 33 0
BBX 31 31 1 -4
BITMAP
000FE000
00701C00
01800300
02000080
04000040
08000020
1021FE10
2061FE08
21E18008
40618004
40618004
40618004
8061B802
8061E602
8061C202
80618302
80600302
80600302
40600304
40638304
40638304
20638608
2061C608
11F83810
08000020
04000040
02000080
02000080
01800300
00701C00
000FE000
ENDCHAR
STARTCHAR 246F
ENCODING 9327
SWIDTH 990 0
DWIDTH 33 0
BBX 31 31 1 -4
BITMAP
000FE000
00701C00
01800300
02000080
04000040
08000020
10203C10
2061C608
21E18608
40638604
40638004
40638004
80638002
8063BC02
8063E202
8063C302
80638302
80638302
40638304
40638304
40638304
20618308
2061C608
11F83810
08000020
04000040
02000080
02000080
01800300
00701C00
000FE000
ENDCHAR
STARTCHAR 2470
ENCODING 9328
SWIDTH 990 0
DWIDTH 33 0
BBX 31 31 1 -4
BITMAP
000FE000
00701C00
01800300
02000080
04000040
08000020
1023FF10
2063FF08
21E30208
40630204
40600404
40600404
80600402
80600802
80600802
80601802
80601002
80603002
40603004
40603004
40606004
20606008
20606008
11F86010
08000020
04000040
02000080
02000080
01800300
00701C00
000FE000
ENDCHAR
STARTCHAR 2471
ENCODING 9329
SWIDTH 990 0
DWIDTH 33 0
BBX 31 31 1 -4
BITMAP
000FE000
00701C00
01800300
02000080
04000040
08000020
10203810
2061C608
21E38308
40638304
40638304
40638304
80618202
80604402
80607C02
80618202
80638302
80638302
40638304
40638304
40638304
20638308
2061C608
11F83810
08000020
04000040
02000080
02000080
01800300
00701C00
000FE000
ENDCHAR
STARTCHAR 2472
ENCODING 9330
SWIDTH 990 0
DWIDTH 33 0
BBX 31 31 1 -4
BITMAP
000FE000
00701C00
01800300
02000080
04000040
08000020
10203C10
2061C208
21E38208
40638304
40638304
40638304
80638302
80638702
80618F02
80607B02
80600302
80600302
40600304
40638304
40638304
20638208
2061C608
11F83810
08000020
04000040
02000080
02000080
01800300
00701C00
000FE000
ENDCHAR
STARTCHAR 2473
ENCODING 9331
SWIDTH 990 0
DWIDTH 33 0
BBX 31 31 1 -4
BITMAP
000FE000
00701C00
01800300
02000080
04000040
08000020
10600C10
21983308
210C2108
430C6184
430C6184
400C6184
800C6182
80186182
80106182
80306182
80606182
80406182
40806184
40806184
41046184
21042108
23FC3308
13FC0C10
08000020
04000040
02000080
02000080
01800300
00701C00
000FE000
ENDCHAR
STARTCHAR 2500
ENCODING 9472
SWIDTH 990 0
DWIDTH 33 0
BBX 33 1 0 12
BITMAP
FFFFFFFF80
ENDCHAR
STARTCHAR 2501
ENCODING 9473
SWIDTH 990 0
DWIDTH 33 0
BBX 33 3 0 11
BITMAP
FFFFFFFF80
FFFFFFFF80
FFFFFFFF80
ENDCHAR
STARTCHAR 2502
ENCODING 9474
SWIDTH 990 0
DWIDTH 33 0
BBX 2 33 15 -5
BITMAP
C0
C0
C0
C0
C0
C0
C0
C0
C0
C0
C0
C0
C0
C0
C0
C0
C0
C0
C0
C0
C0
C0
C0
C0
C0
C0
C0
C0
C0
C0
C0
C0
C0
ENDCHAR
STARTCHAR 2503
ENCODING 9475
SWIDTH 990 0
DWIDTH 33 0
BBX 4 33 14 -5
BITMAP
F0
F0
F0
F0
F0
F0
F0
F0
F0
F0
F0
F0
F0
F0
F0
F0
F0
F0
F0
F0
F0
F0
F0
F0
F0
F0
F0
F0
F0
F0
F0
F0
F0
ENDCHAR
STARTCHAR 2504
ENCODING 9476
SWIDTH 990 0
DWIDTH 33 0
BBX 32 1 0 12
BITMAP
EEEEF777
ENDCHAR
STARTCHAR 2505
ENCODING 9477
SWIDTH 990 0
DWIDTH 33 0
BBX 32 3 0 11
BITMAP
EEEEF777
EEEEF777
EEEEF777
ENDCHAR
STARTCHAR 2506
ENCODING 9478
SWIDTH 990 0
DWIDTH 33 0
BBX 2 32 15 -4
BITMAP
C0
C0
C0
00
C0
C0
C0
00
C0
C0
C0
00
C0
C0
C0
00
C0
C0
C0
00
C0
C0
C0
00
C0
C0
C0
00
00
C0
C0
C0
ENDCHAR
STARTCHAR 2507
ENCODING 9479
SWIDTH 990 0
DWIDTH 33 0
BBX 4 32 14 -4
BITMAP
F0
F0
F0
00
F0
F0
F0
00
F0
F0
F0
00
F0
F0
F0
00
F0
F0
F0
00
F0
F0
F0
00
F0
F0
F0
00
00
F0
F0
F0
ENDCHAR
STARTCHAR 2508
ENCODING 9480
SWIDTH 990 0
DWIDTH 33 0
BBX 30 1 0 12
BITMAP
8888C444
ENDCHAR
STARTCHAR 2509
ENCODING 9481
SWIDTH 990 0
DWIDTH 33 0
BBX 30 3 0 11
BITMAP
8888C444
8888C444
8888C444
ENDCHAR
STARTCHAR 250A
ENCODING 9482
SWIDTH 990 0
DWIDTH 33 0
BBX 2 30 15 -2
BITMAP
C0
00
00
00
C0
00
00
00
C0
00
00
00
C0
00
00
00
C0
00
00
00
C0
00
00
00
C0
00
00
00
00
C0
ENDCHAR
STARTCHAR 250B
ENCODING 9483
SWIDTH 990 0
DWIDTH 33 0
BBX 4 30 14 -2
BITMAP
F0
00
00
00
F0
00
00
00
F0
00
00
00
F0
00
00
00
F0
00
00
00
F0
00
00
00
F0
00
00
00
00
F0
ENDCHAR
STARTCHAR 250C
ENCODING 9484
SWIDTH 990 0
DWIDTH 33 0
BBX 18 18 15 -5
BITMAP
FFFFC0
C00000
C00000
C00000
C00000
C00000
C00000
C00000
C00000
C00000
C00000
C00000
C00000
C00000
C00000
C00000
C00000
C00000
ENDCHAR
STARTCHAR 250D
ENCODING 9485
SWIDTH 990 0
DWIDTH 33 0
BBX 18 19 15 -5
BITMAP
FFFFC0
FFFFC0
FFFFC0
C00000
C00000
C00000
C00000
C00000
C00000
C00000
C00000
C00000
C00000
C00000
C00000
C00000
C00000
C00000
C00000
ENDCHAR
STARTCHAR 250E
ENCODING 9486
SWIDTH 990 0
DWIDTH 33 0
BBX 19 18 14 -5
BITMAP
FFFFE0
F00000
F00000
F00000
F00000
F00000
F00000
F00000
F00000
F00000
F00000
F00000
F00000
F00000
F00000
F00000
F00000
F00000
ENDCHAR
STARTCHAR 250F
ENCODING 9487
SWIDTH 990 0
DWIDTH 33 0
BBX 19 19 14 -5
BITMAP
FFFFE0
FFFFE0
FFFFE0
F00000
F00000
F00000
F00000
F00000
F00000
F00000
F00000
F00000
F00000
F00000
F00000
F00000
F00000
F00000
F00000
ENDCHAR
STARTCHAR 2510
ENCODING 9488
SWIDTH 990 0
DWIDTH 33 0
BBX 17 18 0 -5
BITMAP
FFFF80
000180
000180
000180
000180
000180
000180
000180
000180
000180
000180
000180
000180
000180
000180
000180
000180
000180
ENDCHAR
STARTCHAR 2511
ENCODING 9489
SWIDTH 990 0
DWIDTH 33 0
BBX 17 19 0 -5
BITMAP
FFFF80
FFFF80
FFFF80
000180
000180
000180
000180
000180
000180
000180
000180
000180
000180
000180
000180
000180
000180
000180
000180
ENDCHAR
STARTCHAR 2512
ENCODING 9490
SWIDTH 990 0
DWIDTH 33 0
BBX 18 18 0 -5
BITMAP
FFFFC0
0003C0
0003C0
0003C0
0003C0
0003C0
0003C0
0003C0
0003C0
0003C0
0003C0
0003C0
0003C0
0003C0
0003C0
0003C0
0003C0
0003C0
ENDCHAR
STARTCHAR 2513
ENCODING 9491
SWIDTH 990 0
DWIDTH 33 0
BBX 18 19 0 -5
BITMAP
FFFFC0
FFFFC0
FFFFC0
0003C0
0003C0
0003C0
0003C0
0003C0
0003C0
0003C0
0003C0
0003C0
0003C0
0003C0
0003C0
0003C0
0003C0
0003C0
0003C0
ENDCHAR
STARTCHAR 2514
ENCODING 9492
SWIDTH 990 0
DWIDTH 33 0
BBX 18 16 15 12
BITMAP
C00000
C00000
C00000
C00000
C00000
C00000
C00000
C00000
C00000
C00000
C00000
C00000
C00000
C00000
C00000
FFFFC0
ENDCHAR
STARTCHAR 2515
ENCODING 9493
SWIDTH 990 0
DWIDTH 33 0
BBX 18 17 15 11
BITMAP
C00000
C00000
C00000
C00000
C00000
C00000
C00000
C00000
C00000
C00000
C00000
C00000
C00000
C00000
FFFFC0
FFFFC0
FFFFC0
ENDCHAR
STARTCHAR 2516
ENCODING 9494
SWIDTH 990 0
DWIDTH 33 0
BBX 19 16 14 12
BITMAP
F00000
F00000
F00000
F00000
F00000
F00000
F00000
F00000
F00000
F00000
F00000
F00000
F00000
F00000
F00000
FFFFE0
ENDCHAR
STARTCHAR 2517
ENCODING 9495
SWIDTH 990 0
DWIDTH 33 0
BBX 19 17 14 11
BITMAP
F00000
F00000
F00000
F00000
F00000
F00000
F00000
F00000
F00000
F00000
F00000
F00000
F00000
F00000
FFFFE0
FFFFE0
FFFFE0
ENDCHAR
STARTCHAR 2518
ENCODING 9496
SWIDTH 990 0
DWIDTH 33 0
BBX 17 16 0 12
BITMAP
000180
000180
000180
000180
000180
000180
000180
000180
000180
000180
000180
000180
000180
000180
000180
FFFF80
ENDCHAR
STARTCHAR 2519
ENCODING 9497
SWIDTH 990 0
DWIDTH 33 0
BBX 17 17 0 11
BITMAP
000180
000180
000180
000180
000180
000180
000180
000180
000180
000180
000180
000180
000180
000180
FFFF80
FFFF80
FFFF80
ENDCHAR
STARTCHAR 251A
ENCODING 9498
SWIDTH 990 0
DWIDTH 33 0
BBX 18 16 0 12
BITMAP
0003C0
0003C0
0003C0
0003C0
0003C0
0003C0
0003C0
0003C0
0003C0
0003C0
0003C0
0003C0
0003C0
0003C0
0003C0
FFFFC0
ENDCHAR
STARTCHAR 251B
ENCODING 9499
SWIDTH 990 0
DWIDTH 33 0
BBX 18 17 0 11
BITMAP
0003C0
0003C0
0003C0
0003C0
0003C0
0003C0
0003C0
0003C0
0003C0
0003C0
0003C0
0003C0
0003C0
0003C0
FFFFC0
FFFFC0
FFFFC0
ENDCHAR
STARTCHAR 251C
ENCODING 9500
SWIDTH 990 0
DWIDTH 33 0
BBX 18 33 15 -5
BITMAP
C00000
C00000
C00000
C00000
C00000
C00000
C00000
C00000
C00000
C00000
C00000
C00000
C00000
C00000
C00000
FFFFC0
C00000
C00000
C00000
C00000
C00000
C00000
C00000
C00000
C00000
C00000
C00000
C00000
C00000
C00000
C00000
C00000
C00000
ENDCHAR
STARTCHAR 251D
ENCODING 9501
SWIDTH 990 0
DWIDTH 33 0
BBX 18 33 15 -5
BITMAP
C00000
C00000
C00000
C00000
C00000
C00000
C00000
C00000
C00000
C00000
C00000
C00000
C00000
C00000
FFFFC0
FFFFC0
FFFFC0
C00000
C00000
C00000
C00000
C00000
C00000
C00000
C00000
C00000
C00000
C00000
C00000
C00000
C00000
C00000
C00000
ENDCHAR
STARTCHAR 251E
ENCODING 9502
SWIDTH 990 0
DWIDTH 33 0
BBX 19 33 14 -5
BITMAP
F00000
F00000
F00000
F00000
F00000
F00000
F00000
F00000
F00000
F00000
F00000
F00000
F00000
F00000
F00000
FFFFE0
600000
600000
600000
600000
600000
600000
600000
600000
600000
600000
600000
600000
600000
600000
600000
600000
600000
ENDCHAR
STARTCHAR 251F
ENCODING 9503
SWIDTH 990 0
DWIDTH 33 0
BBX 19 33 14 -5
BITMAP
600000
600000
600000
600000
600000
600000
600000
600000
600000
600000
600000
600000
600000
600000
600000
FFFFE0
F00000
F00000
F00000
F00000
F00000
F00000
F00000
F00000
F00000
F00000
F00000
F00000
F00000
F00000
F00000
F00000
F00000
ENDCHAR
STARTCHAR 2520
ENCODING 9504
SWIDTH 990 0
DWIDTH 33 0
BBX 19 33 14 -5
BITMAP
F00000
F00000
F00000
F00000
F00000
F00000
F00000
F00000
F00000
F00000
F00000
F00000
F00000
F00000
F00000
FFFFE0
F00000
F00000
F00000
F00000
F00000
F00000
F00000
F00000
F00000
F00000
F00000
F00000
F00000
F00000
F00000
F00000
F00000
ENDCHAR
STARTCHAR 2521
ENCODING 9505
SWIDTH 990 0
DWIDTH 33 0
BBX 19 33 14 -5
BITMAP
F00000
F00000
F00000
F00000
F00000
F00000
F00000
F00000
F00000
F00000
F00000
F00000
F00000
F00000
F00000
FFFFE0
600000
600000
600000
600000
600000
600000
600000
600000
600000
600000
600000
600000
600000
600000
600000
600000
600000
ENDCHAR
STARTCHAR 2522
ENCODING 9506
SWIDTH 990 0
DWIDTH 33 0
BBX 19 33 14 -5
BITMAP
600000
600000
600000
600000
600000
600000
600000
600000
600000
600000
600000
600000
600000
600000
600000
FFFFE0
F00000
F00000
F00000
F00000
F00000
F00000
F00000
F00000
F00000
F00000
F00000
F00000
F00000
F00000
F00000
F00000
F00000
ENDCHAR
STARTCHAR 2523
ENCODING 9507
SWIDTH 990 0
DWIDTH 33 0
BBX 19 33 14 -5
BITMAP
F00000
F00000
F00000
F00000
F00000
F00000
F00000
F00000
F00000
F00000
F00000
F00000
F00000
F00000
FFFFE0
FFFFE0
FFFFE0
F00000
F00000
F00000
F00000
F00000
F00000
F00000
F00000
F00000
F00000
F00000
F00000
F00000
F00000
F00000
F00000
ENDCHAR
STARTCHAR 2524
ENCODING 9508
SWIDTH 990 0
DWIDTH 33 0
BBX 17 33 0 -5
BITMAP
000180
000180
000180
000180
000180
000180
000180
000180
000180
000180
000180
000180
000180
000180
000180
FFFF80
000180
000180
000180
000180
000180
000180
000180
000180
000180
000180
000180
000180
000180
000180
000180
000180
000180
ENDCHAR
STARTCHAR 2525
ENCODING 9509
SWIDTH 990 0
DWIDTH 33 0
BBX 17 33 0 -5
BITMAP
000180
000180
000180
000180
000180
000180
000180
000180
000180
000180
000180
000180
000180
000180
FFFF80
FFFF80
FFFF80
000180
000180
000180
000180
000180
000180
000180
000180
000180
000180
000180
000180
000180
000180
000180
000180
ENDCHAR
STARTCHAR 2526
ENCODING 9510
SWIDTH 990 0
DWIDTH 33 0
BBX 18 33 0 -5
BITMAP
0003C0
0003C0
0003C0
0003C0
0003C0
0003C0
0003C0
0003C0
0003C0
0003C0
0003C0
0003C0
0003C0
0003C0
0003C0
FFFFC0
000180
000180
000180
000180
000180
000180
000180
000180
000180
000180
000180
000180
000180
000180
000180
000180
000180
ENDCHAR
STARTCHAR 2527
ENCODING 9511
SWIDTH 990 0
DWIDTH 33 0
BBX 18 33 0 -5
BITMAP
000180
000180
000180
000180
000180
000180
000180
000180
000180
000180
000180
000180
000180
000180
000180
FFFFC0
0003C0
0003C0
0003C0
0003C0
0003C0
0003C0
0003C0
0003C0
0003C0
0003C0
0003C0
0003C0
0003C0
0003C0
0003C0
0003C0
0003C0
ENDCHAR
STARTCHAR 2528
ENCODING 9512
SWIDTH 990 0
DWIDTH 33 0
BBX 18 33 0 -5
BITMAP
0003C0
0003C0
0003C0
0003C0
0003C0
0003C0
0003C0
0003C0
0003C0
0003C0
0003C0
0003C0
0003C0
0003C0
0003C0
FFFFC0
0003C0
0003C0
0003C0
0003C0
0003C0
0003C0
0003C0
0003C0
0003C0
0003C0
0003C0
0003C0
0003C0
0003C0
0003C0
0003C0
0003C0
ENDCHAR
STARTCHAR 2529
ENCODING 9513
SWIDTH 990 0
DWIDTH 33 0
BBX 18 33 0 -5
BITMAP
0003C0
0003C0
0003C0
0003C0
0003C0
0003C0
0003C0
0003C0
0003C0
0003C0
0003C0
0003C0
0003C0
0003C0
FFFFC0
FFFFC0
FFFFC0
000180
000180
000180
000180
000180
000180
000180
000180
000180
000180
000180
000180
000180
000180
000180
000180
ENDCHAR
STARTCHAR 252A
ENCODING 9514
SWIDTH 990 0
DWIDTH 33 0
BBX 18 33 0 -5
BITMAP
000180
000180
000180
000180
000180
000180
000180
000180
000180
000180
000180
000180
000180
000180
000180
FFFFC0
0003C0
0003C0
0003C0
0003C0
0003C0
0003C0
0003C0
0003C0
0003C0
0003C0
0003C0
0003C0
0003C0
0003C0
0003C0
0003C0
0003C0
ENDCHAR
STARTCHAR 252B
ENCODING 9515
SWIDTH 990 0
DWIDTH 33 0
BBX 18 33 0 -5
BITMAP
0003C0
0003C0
0003C0
0003C0
0003C0
0003C0
0003C0
0003C0
0003C0
0003C0
0003C0
0003C0
0003C0
0003C0
FFFFC0
FFFFC0
FFFFC0
0003C0
0003C0
0003C0
0003C0
0003C0
0003C0
0003C0
0003C0
0003C0
0003C0
0003C0
0003C0
0003C0
0003C0
0003C0
0003C0
ENDCHAR
STARTCHAR 252C
ENCODING 9516
SWIDTH 990 0
DWIDTH 33 0
BBX 33 18 0 -5
BITMAP
FFFFFFFF80
0001800000
0001800000
0001800000
0001800000
0001800000
0001800000
0001800000
0001800000
0001800000
0001800000
0001800000
0001800000
0001800000
0001800000
0001800000
0001800000
0001800000
ENDCHAR
STARTCHAR 252D
ENCODING 9517
SWIDTH 990 0
DWIDTH 33 0
BBX 33 19 0 -5
BITMAP
FFFF800000
FFFFFFFF80
FFFF800000
0001800000
0001800000
0001800000
0001800000
0001800000
0001800000
0001800000
0001800000
0001800000
0001800000
0001800000
0001800000
0001800000
0001800000
0001800000
0001800000
ENDCHAR
STARTCHAR 252E
ENCODING 9518
SWIDTH 990 0
DWIDTH 33 0
BBX 33 19 0 -5
BITMAP
0001FFFF80
FFFFFFFF80
0001FFFF80
0001800000
0001800000
0001800000
0001800000
0001800000
0001800000
0001800000
0001800000
0001800000
0001800000
0001800000
0001800000
0001800000
0001800000
0001800000
0001800000
ENDCHAR
STARTCHAR 252F
ENCODING 9519
SWIDTH 990 0
DWIDTH 33 0
BBX 33 19 0 -5
BITMAP
FFFFFFFF80
FFFFFFFF80
FFFFFFFF80
0001800000
0001800000
0001800000
0001800000
0001800000
0001800000
0001800000
0001800000
0001800000
0001800000
0001800000
0001800000
0001800000
0001800000
0001800000
0001800000
ENDCHAR
STARTCHAR 2530
ENCODING 9520
SWIDTH 990 0
DWIDTH 33 0
BBX 33 18 0 -5
BITMAP
FFFFFFFF80
0003C00000
0003C00000
0003C00000
0003C00000
0003C00000
0003C00000
0003C00000
0003C00000
0003C00000
0003C00000
0003C00000
0003C00000
0003C00000
0003C00000
0003C00000
0003C00000
0003C00000
ENDCHAR
STARTCHAR 2531
ENCODING 9521
SWIDTH 990 0
DWIDTH 33 0
BBX 33 19 0 -5
BITMAP
FFFFC00000
FFFFFFFF80
FFFFC00000
0003C00000
0003C00000
0003C00000
0003C00000
0003C00000
0003C00000
0003C00000
0003C00000
0003C00000
0003C00000
0003C00000
0003C00000
0003C00000
0003C00000
0003C00000
0003C00000
ENDCHAR
STARTCHAR 2532
ENCODING 9522
SWIDTH 990 0
DWIDTH 33 0
BBX 33 19 0 -5
BITMAP
0003FFFF80
FFFFFFFF80
0003FFFF80
0003C00000
0003C00000
0003C00000
0003C00000
0003C00000
0003C00000
0003C00000
0003C00000
0003C00000
0003C00000
0003C00000
0003C00000
0003C00000
0003C00000
0003C00000
0003C00000
ENDCHAR
STARTCHAR 2533
ENCODING 9523
SWIDTH 990 0
DWIDTH 33 0
BBX 33 19 0 -5
BITMAP
FFFFFFFF80
FFFFFFFF80
FFFFFFFF80
0003C00000
0003C00000
0003C00000
0003C00000
0003C00000
0003C00000
0003C00000
0003C00000
0003C00000
0003C00000
0003C00000
0003C00000
0003C00000
0003C00000
0003C00000
0003C00000
ENDCHAR
STARTCHAR 2534
ENCODING 9524
SWIDTH 990 0
DWIDTH 33 0
BBX 33 16 0 12
BITMAP
0001800000
0001800000
0001800000
0001800000
0001800000
0001800000
0001800000
0001800000
0001800000
0001800000
0001800000
0001800000
0001800000
0001800000
0001800000
FFFFFFFF80
ENDCHAR
STARTCHAR 2535
ENCODING 9525
SWIDTH 990 0
DWIDTH 33 0
BBX 33 17 0 11
BITMAP
0001800000
0001800000
0001800000
0001800000
0001800000
0001800000
0001800000
0001800000
0001800000
0001800000
0001800000
0001800000
0001800000
0001800000
FFFF800000
FFFFFFFF80
FFFF800000
ENDCHAR
STARTCHAR 2536
ENCODING 9526
SWIDTH 990 0
DWIDTH 33 0
BBX 33 17 0 11
BITMAP
0001800000
0001800000
0001800000
0001800000
0001800000
0001800000
0001800000
0001800000
0001800000
0001800000
0001800000
0001800000
0001800000
0001800000
0001FFFF80
FFFFFFFF80
0001FFFF80
ENDCHAR
STARTCHAR 2537
ENCODING 9527
SWIDTH 990 0
DWIDTH 33 0
BBX 33 17 0 11
BITMAP
0001800000
0001800000
0001800000
0001800000
0001800000
0001800000
0001800000
0001800000
0001800000
0001800000
0001800000
0001800000
0001800000
0001800000
FFFFFFFF80
FFFFFFFF80
FFFFFFFF80
ENDCHAR
STARTCHAR 2538
ENCODING 9528
SWIDTH 990 0
DWIDTH 33 0
BBX 33 16 0 12
BITMAP
0003C00000
0003C00000
0003C00000
0003C00000
0003C00000
0003C00000
0003C00000
0003C00000
0003C00000
0003C00000
0003C00000
0003C00000
0003C00000
0003C00000
0003C00000
FFFFFFFF80
ENDCHAR
STARTCHAR 2539
ENCODING 9529
SWIDTH 990 0
DWIDTH 33 0
BBX 33 17 0 11
BITMAP
0003C00000
0003C00000
0003C00000
0003C00000
0003C00000
0003C00000
0003C00000
0003C00000
0003C00000
0003C00000
0003C00000
0003C00000
0003C00000
0003C00000
FFFFC00000
FFFFFFFF80
FFFFC00000
ENDCHAR
STARTCHAR 253A
ENCODING 9530
SWIDTH 990 0
DWIDTH 33 0
BBX 33 17 0 11
BITMAP
0003C00000
0003C00000
0003C00000
0003C00000
0003C00000
0003C00000
0003C00000
0003C00000
0003C00000
0003C00000
0003C00000
0003C00000
0003C00000
0003C00000
0003FFFF80
FFFFFFFF80
0003FFFF80
ENDCHAR
STARTCHAR 253B
ENCODING 9531
SWIDTH 990 0
DWIDTH 33 0
BBX 33 17 0 11
BITMAP
0003C00000
0003C00000
0003C00000
0003C00000
0003C00000
0003C00000
0003C00000
0003C00000
0003C00000
0003C00000
0003C00000
0003C00000
0003C00000
0003C00000
FFFFFFFF80
FFFFFFFF80
FFFFFFFF80
ENDCHAR
STARTCHAR 253C
ENCODING 9532
SWIDTH 990 0
DWIDTH 33 0
BBX 33 33 0 -5
BITMAP
0001800000
0001800000
0001800000
0001800000
0001800000
0001800000
0001800000
0001800000
0001800000
0001800000
0001800000
0001800000
0001800000
0001800000
0001800000
FFFFFFFF80
0001800000
0001800000
0001800000
0001800000
0001800000
0001800000
0001800000
0001800000
0001800000
0001800000
0001800000
0001800000
0001800000
0001800000
0001800000
0001800000
0001800000
ENDCHAR
STARTCHAR 253D
ENCODING 9533
SWIDTH 990 0
DWIDTH 33 0
BBX 33 33 0 -5
BITMAP
0001800000
0001800000
0001800000
0001800000
0001800000
0001800000
0001800000
0001800000
0001800000
0001800000
0001800000
0001800000
0001800000
0001800000
FFFF800000
FFFFFFFF80
FFFF800000
0001800000
0001800000
0001800000
0001800000
0001800000
0001800000
0001800000
0001800000
0001800000
0001800000
0001800000
0001800000
0001800000
0001800000
0001800000
0001800000
ENDCHAR
STARTCHAR 253E
ENCODING 9534
SWIDTH 990 0
DWIDTH 33 0
BBX 33 33 0 -5
BITMAP
0001800000
0001800000
0001800000
0001800000
0001800000
0001800000
0001800000
0001800000
0001800000
0001800000
0001800000
0001800000
0001800000
0001800000
0001FFFF80
FFFFFFFF80
0001FFFF80
0001800000
0001800000
0001800000
0001800000
0001800000
0001800000
0001800000
0001800000
0001800000
0001800000
0001800000
0001800000
0001800000
0001800000
0001800000
0001800000
ENDCHAR
STARTCHAR 253F
ENCODING 9535
SWIDTH 990 0
DWIDTH 33 0
BBX 33 33 0 -5
BITMAP
0001800000
0001800000
0001800000
0001800000
0001800000
0001800000
0001800000
0001800000
0001800000
0001800000
0001800000
0001800000
0001800000
0001800000
FFFFFFFF80
FFFFFFFF80
FFFFFFFF80
0001800000
0001800000
0001800000
0001800000
0001800000
0001800000
0001800000
0001800000
0001800000
0001800000
0001800000
0001800000
0001800000
0001800000
0001800000
0001800000
ENDCHAR
STARTCHAR 2540
ENCODING 9536
SWIDTH 990 0
DWIDTH 33 0
BBX 33 33 0 -5
BITMAP
0003C00000
0003C00000
0003C00000
0003C00000
0003C00000
0003C00000
0003C00000
0003C00000
0003C00000
0003C00000
0003C00000
0003C00000
0003C00000
0003C00000
0003C00000
FFFFFFFF80
0001800000
0001800000
0001800000
0001800000
0001800000
0001800000
0001800000
0001800000
0001800000
0001800000
0001800000
0001800000
0001800000
0001800000
0001800000
0001800000
0001800000
ENDCHAR
STARTCHAR 2541
ENCODING 9537
SWIDTH 990 0
DWIDTH 33 0
BBX 33 33 0 -5
BITMAP
0001800000
0001800000
0001800000
0001800000
0001800000
0001800000
0001800000
0001800000
0001800000
0001800000
0001800000
0001800000
0001800000
0001800000
0001800000
FFFFFFFF80
0003C00000
0003C00000
0003C00000
0003C00000
0003C00000
0003C00000
0003C00000
0003C00000
0003C00000
0003C00000
0003C00000
0003C00000
0003C00000
0003C00000
0003C00000
0003C00000
0003C00000
ENDCHAR
STARTCHAR 2542
ENCODING 9538
SWIDTH 990 0
DWIDTH 33 0
BBX 33 33 0 -5
BITMAP
0003C00000
0003C00000
0003C00000
0003C00000
0003C00000
0003C00000
0003C00000
0003C00000
0003C00000
0003C00000
0003C00000
0003C00000
0003C00000
0003C00000
0003C00000
FFFFFFFF80
0003C00000
0003C00000
0003C00000
0003C00000
0003C00000
0003C00000
0003C00000
0003C00000
0003C00000
0003C00000
0003C00000
0003C00000
0003C00000
0003C00000
0003C00000
0003C00000
0003C00000
ENDCHAR
STARTCHAR 2543
ENCODING 9539
SWIDTH 990 0
DWIDTH 33 0
BBX 33 33 0 -5
BITMAP
0003C00000
0003C00000
0003C00000
0003C00000
0003C00000
0003C00000
0003C00000
0003C00000
0003C00000
0003C00000
0003C00000
0003C00000
0003C00000
0003C00000
FFFFC00000
FFFFFFFF80
FFFFC00000
0001800000
0001800000
0001800000
0001800000
0001800000
0001800000
0001800000
0001800000
0001800000
0001800000
0001800000
0001800000
0001800000
0001800000
0001800000
0001800000
ENDCHAR
STARTCHAR 2544
ENCODING 9540
SWIDTH 990 0
DWIDTH 33 0
BBX 33 33 0 -5
BITMAP
0003C00000
0003C00000
0003C00000
0003C00000
0003C00000
0003C00000
0003C00000
0003C00000
0003C00000
0003C00000
0003C00000
0003C00000
0003C00000
0003C00000
0003FFFF80
FFFFFFFF80
0003FFFF80
0001800000
0001800000
0001800000
0001800000
0001800000
0001800000
0001800000
0001800000
0001800000
0001800000
0001800000
0001800000
0001800000
0001800000
0001800000
0001800000
ENDCHAR
STARTCHAR 2545
ENCODING 9541
SWIDTH 990 0
DWIDTH 33 0
BBX 33 33 0 -5
BITMAP
0001800000
0001800000
0001800000
0001800000
0001800000
0001800000
0001800000
0001800000
0001800000
0001800000
0001800000
0001800000
0001800000
0001800000
FFFFC00000
FFFFFFFF80
FFFFC00000
0003C00000
0003C00000
0003C00000
0003C00000
0003C00000
0003C00000
0003C00000
0003C00000
0003C00000
0003C00000
0003C00000
0003C00000
0003C00000
0003C00000
0003C00000
0003C00000
ENDCHAR
STARTCHAR 2546
ENCODING 9542
SWIDTH 990 0
DWIDTH 33 0
BBX 33 33 0 -5
BITMAP
0001800000
0001800000
0001800000
0001800000
0001800000
0001800000
0001800000
0001800000
0001800000
0001800000
0001800000
0001800000
0001800000
0001800000
0003FFFF80
FFFFFFFF80
0003FFFF80
0003C00000
0003C00000
0003C00000
0003C00000
0003C00000
0003C00000
0003C00000
0003C00000
0003C00000
0003C00000
0003C00000
0003C00000
0003C00000
0003C00000
0003C00000
0003C00000
ENDCHAR
STARTCHAR 2547
ENCODING 9543
SWIDTH 990 0
DWIDTH 33 0
BBX 33 33 0 -5
BITMAP
0003C00000
0003C00000
0003C00000
0003C00000
0003C00000
0003C00000
0003C00000
0003C00000
0003C00000
0003C00000
0003C00000
0003C00000
0003C00000
0003C00000
FFFFFFFF80
FFFFFFFF80
FFFFFFFF80
0001800000
0001800000
0001800000
0001800000
0001800000
0001800000
0001800000
0001800000
0001800000
0001800000
0001800000
0001800000
0001800000
0001800000
0001800000
0001800000
ENDCHAR
STARTCHAR 2548
ENCODING 9544
SWIDTH 990 0
DWIDTH 33 0
BBX 33 33 0 -5
BITMAP
0001800000
0001800000
0001800000
0001800000
0001800000
0001800000
0001800000
0001800000
0001800000
0001800000
0001800000
0001800000
0001800000
0001800000
FFFFFFFF80
FFFFFFFF80
FFFFFFFF80
0003C00000
0003C00000
0003C00000
0003C00000
0003C00000
0003C00000
0003C00000
0003C00000
0003C00000
0003C00000
0003C00000
0003C00000
0003C00000
0003C00000
0003C00000
0003C00000
ENDCHAR
STARTCHAR 2549
ENCODING 9545
SWIDTH 990 0
DWIDTH 33 0
BBX 33 33 0 -5
BITMAP
0003C00000
0003C00000
0003C00000
0003C00000
0003C00000
0003C00000
0003C00000
0003C00000
0003C00000
0003C00000
0003C00000
0003C00000
0003C00000
0003C00000
FFFFC00000
FFFFFFFF80
FFFFC00000
0003C00000
0003C00000
0003C00000
0003C00000
0003C00000
0003C00000
0003C00000
0003C00000
0003C00000
0003C00000
0003C00000
0003C00000
0003C00000
0003C00000
0003C00000
0003C00000
ENDCHAR
STARTCHAR 254A
ENCODING 9546
SWIDTH 990 0
DWIDTH 33 0
BBX 33 33 0 -5
BITMAP
0003C00000
0003C00000
0003C00000
0003C00000
0003C00000
0003C00000
0003C00000
0003C00000
0003C00000
0003C00000
0003C00000
0003C00000
0003C00000
0003C00000
0003FFFF80
FFFFFFFF80
0003FFFF80
0003C00000
0003C00000
0003C00000
0003C00000
0003C00000
0003C00000
0003C00000
0003C00000
0003C00000
0003C00000
0003C00000
0003C00000
0003C00000
0003C00000
0003C00000
0003C00000
ENDCHAR
STARTCHAR 254B
ENCODING 9547
SWIDTH 990 0
DWIDTH 33 0
BBX 33 33 0 -5
BITMAP
0003C00000
0003C00000
0003C00000
0003C00000
0003C00000
0003C00000
0003C00000
0003C00000
0003C00000
0003C00000
0003C00000
0003C00000
0003C00000
0003C00000
FFFFFFFF80
FFFFFFFF80
FFFFFFFF80
0003C00000
0003C00000
0003C00000
0003C00000
0003C00000
0003C00000
0003C00000
0003C00000
0003C00000
0003C00000
0003C00000
0003C00000
0003C00000
0003C00000
0003C00000
0003C00000
ENDCHAR
STARTCHAR 2581
ENCODING 9601
SWIDTH 990 0
DWIDTH 33 0
BBX 17 4 0 -5
BITMAP
FFFF80
FFFF80
FFFF80
FFFF80
ENDCHAR
STARTCHAR 2582
ENCODING 9602
SWIDTH 990 0
DWIDTH 33 0
BBX 17 9 0 -5
BITMAP
FFFF80
FFFF80
FFFF80
FFFF80
FFFF80
FFFF80
FFFF80
FFFF80
FFFF80
ENDCHAR
STARTCHAR 2583
ENCODING 9603
SWIDTH 990 0
DWIDTH 33 0
BBX 17 13 0 -5
BITMAP
FFFF80
FFFF80
FFFF80
FFFF80
FFFF80
FFFF80
FFFF80
FFFF80
FFFF80
FFFF80
FFFF80
FFFF80
FFFF80
ENDCHAR
STARTCHAR 2584
ENCODING 9604
SWIDTH 990 0
DWIDTH 33 0
BBX 17 17 0 -5
BITMAP
FFFF80
FFFF80
FFFF80
FFFF80
FFFF80
FFFF80
FFFF80
FFFF80
FFFF80
FFFF80
FFFF80
FFFF80
FFFF80
FFFF80
FFFF80
FFFF80
FFFF80
ENDCHAR
STARTCHAR 2585
ENCODING 9605
SWIDTH 990 0
DWIDTH 33 0
BBX 17 21 0 -5
BITMAP
FFFF80
FFFF80
FFFF80
FFFF80
FFFF80
FFFF80
FFFF80
FFFF80
FFFF80
FFFF80
FFFF80
FFFF80
FFFF80
FFFF80
FFFF80
FFFF80
FFFF80
FFFF80
FFFF80
FFFF80
FFFF80
ENDCHAR
STARTCHAR 2586
ENCODING 9606
SWIDTH 990 0
DWIDTH 33 0
BBX 17 25 0 -5
BITMAP
FFFF80
FFFF80
FFFF80
FFFF80
FFFF80
FFFF80
FFFF80
FFFF80
FFFF80
FFFF80
FFFF80
FFFF80
FFFF80
FFFF80
FFFF80
FFFF80
FFFF80
FFFF80
FFFF80
FFFF80
FFFF80
FFFF80
FFFF80
FFFF80
FFFF80
ENDCHAR
STARTCHAR 2587
ENCODING 9607
SWIDTH 990 0
DWIDTH 33 0
BBX 17 28 0 -5
BITMAP
FFFF80
FFFF80
FFFF80
FFFF80
FFFF80
FFFF80
FFFF80
FFFF80
FFFF80
FFFF80
FFFF80
FFFF80
FFFF80
FFFF80
FFFF80
FFFF80
FFFF80
FFFF80
FFFF80
FFFF80
FFFF80
FFFF80
FFFF80
FFFF80
FFFF80
FFFF80
FFFF80
FFFF80
ENDCHAR
STARTCHAR 2588
ENCODING 9608
SWIDTH 990 0
DWIDTH 33 0
BBX 17 33 0 -5
BITMAP
FFFF80
FFFF80
FFFF80
FFFF80
FFFF80
FFFF80
FFFF80
FFFF80
FFFF80
FFFF80
FFFF80
FFFF80
FFFF80
FFFF80
FFFF80
FFFF80
FFFF80
FFFF80
FFFF80
FFFF80
FFFF80
FFFF80
FFFF80
FFFF80
FFFF80
FFFF80
FFFF80
FFFF80
FFFF80
FFFF80
FFFF80
FFFF80
FFFF80
ENDCHAR
STARTCHAR 2589
ENCODING 9609
SWIDTH 990 0
DWIDTH 33 0
BBX 14 33 0 -5
BITMAP
FFFC
FFFC
FFFC
FFFC
FFFC
FFFC
FFFC
FFFC
FFFC
FFFC
FFFC
FFFC
FFFC
FFFC
FFFC
FFFC
FFFC
FFFC
FFFC
FFFC
FFFC
FFFC
FFFC
FFFC
FFFC
FFFC
FFFC
FFFC
FFFC
FFFC
FFFC
FFFC
FFFC
ENDCHAR
STARTCHAR 258A
ENCODING 9610
SWIDTH 990 0
DWIDTH 33 0
BBX 12 33 0 -5
BITMAP
FFF0
FFF0
FFF0
FFF0
FFF0
FFF0
FFF0
FFF0
FFF0
FFF0
FFF0
FFF0
FFF0
FFF0
FFF0
FFF0
FFF0
FFF0
FFF0
FFF0
FFF0
FFF0
FFF0
FFF0
FFF0
FFF0
FFF0
FFF0
FFF0
FFF0
FFF0
FFF0
FFF0
ENDCHAR
STARTCHAR 258B
ENCODING 9611
SWIDTH 990 0
DWIDTH 33 0
BBX 10 33 0 -5
BITMAP
FFC0
FFC0
FFC0
FFC0
FFC0
FFC0
FFC0
FFC0
FFC0
FFC0
FFC0
FFC0
FFC0
FFC0
FFC0
FFC0
FFC0
FFC0
FFC0
FFC0
FFC0
FFC0
FFC0
FFC0
FFC0
FFC0
FFC0
FFC0
FFC0
FFC0
FFC0
FFC0
FFC0
ENDCHAR
STARTCHAR 258C
ENCODING 9612
SWIDTH 990 0
DWIDTH 33 0
BBX 8 33 0 -5
BITMAP
FF
FF
FF
FF
FF
FF
FF
FF
FF
FF
FF
FF
FF
FF
FF
FF
FF
FF
FF
FF
FF
FF
FF
FF
FF
FF
FF
FF
FF
FF
FF
FF
FF
ENDCHAR
STARTCHAR 258D
ENCODING 9613
SWIDTH 990 0
DWIDTH 33 0
BBX 6 33 0 -5
BITMAP
FC
FC
FC
FC
FC
FC
FC
FC
FC
FC
FC
FC
FC
FC
FC
FC
FC
FC
FC
FC
FC
FC
FC
FC
FC
FC
FC
FC
FC
FC
FC
FC
FC
ENDCHAR
STARTCHAR 258E
ENCODING 9614
SWIDTH 990 0
DWIDTH 33 0
BBX 4 33 0 -5
BITMAP
F0
F0
F0
F0
F0
F0
F0
F0
F0
F0
F0
F0
F0
F0
F0
F0
F0
F0
F0
F0
F0
F0
F0
F0
F0
F0
F0
F0
F0
F0
F0
F0
F0
ENDCHAR
STARTCHAR 258F
ENCODING 9615
SWIDTH 990 0
DWIDTH 33 0
BBX 2 33 0 -5
BITMAP
C0
C0
C0
C0
C0
C0
C0
C0
C0
C0
C0
C0
C0
C0
C0
C0
C0
C0
C0
C0
C0
C0
C0
C0
C0
C0
C0
C0
C0
C0
C0
C0
C0
ENDCHAR
STARTCHAR 25A0
ENCODING 9632
SWIDTH 990 0
DWIDTH 33 0
BBX 27 27 3 -2
BITMAP
FFFFFFE0
FFFFFFE0
FFFFFFE0
FFFFFFE0
FFFFFFE0
FFFFFFE0
FFFFFFE0
FFFFFFE0
FFFFFFE0
FFFFFFE0
FFFFFFE0
FFFFFFE0
FFFFFFE0
FFFFFFE0
FFFFFFE0
FFFFFFE0
FFFFFFE0
FFFFFFE0
FFFFFFE0
FFFFFFE0
FFFFFFE0
FFFFFFE0
FFFFFFE0
FFFFFFE0
FFFFFFE0
FFFFFFE0
FFFFFFE0
ENDCHAR
STARTCHAR 25A1
ENCODING 9633
SWIDTH 990 0
DWIDTH 33 0
BBX 27 27 3 -2
BITMAP
FFFFFFE0
80000020
80000020
80000020
80000020
80000020
80000020
80000020
80000020
80000020
80000020
80000020
80000020
80000020
80000020
80000020
80000020
80000020
80000020
80000020
80000020
80000020
80000020
80000020
80000020
80000020
FFFFFFE0
ENDCHAR
STARTCHAR 25B2
ENCODING 9650
SWIDTH 990 0
DWIDTH 33 0
BBX 28 24 2 1
BITMAP
00060000
00060000
000F0000
000F0000
001F8000
001F8000
003FC000
007FE000
007FE000
00FFF000
00FFF000
01FFF800
03FFFC00
03FFFC00
07FFFE00
07FFFE00
0FFFFF00
1FFFFF80
1FFFFF80
3FFFFFC0
3FFFFFC0
7FFFFFE0
FFFFFFF0
FFFFFFF0
ENDCHAR
STARTCHAR 25B3
ENCODING 9651
SWIDTH 990 0
DWIDTH 33 0
BBX 28 24 2 1
BITMAP
00060000
00060000
000B0000
000B0000
00108000
00108000
00204000
00402000
00402000
00801000
00801000
01000800
02000400
02000400
04000200
04000200
08000100
10000080
10000080
20000040
20000040
40000020
80000010
FFFFFFF0
ENDCHAR
STARTCHAR 25BC
ENCODING 9660
SWIDTH 990 0
DWIDTH 33 0
BBX 28 25 2 -2
BITMAP
FFFFFFF0
FFFFFFF0
7FFFFFE0
3FFFFFC0
3FFFFFC0
1FFFFF80
1FFFFF80
0FFFFF00
07FFFE00
07FFFE00
03FFFC00
03FFFC00
01FFF800
00FFF000
00FFF000
007FE000
007FE000
003FC000
001F8000
001F8000
000F0000
000F0000
00060000
00060000
00060000
ENDCHAR
STARTCHAR 25BD
ENCODING 9661
SWIDTH 990 0
DWIDTH 33 0
BBX 28 25 2 -2
BITMAP
FFFFFFF0
80000010
40000020
20000040
20000040
10000080
10000080
08000100
04000200
04000200
02000400
02000400
01000800
00801000
00801000
00402000
00402000
00204000
00108000
00108000
000B0000
000B0000
00060000
00060000
00060000
ENDCHAR
STARTCHAR 25C6
ENCODING 9670
SWIDTH 990 0
DWIDTH 33 0
BBX 31 31 1 -4
BITMAP
00038000
0007C000
000FE000
001FF000
003FF800
007FFC00
00FFFE00
01FFFF00
03FFFF80
07FFFFC0
0FFFFFE0
1FFFFFF0
3FFFFFF8
7FFFFFFC
FFFFFFFE
FFFFFFFE
7FFFFFFC
3FFFFFF8
1FFFFFF0
0FFFFFE0
07FFFFC0
03FFFF80
01FFFF00
00FFFE00
007FFC00
003FF800
001FF000
001FF000
000FE000
0007C000
00038000
ENDCHAR
STARTCHAR 25C7
ENCODING 9671
SWIDTH 990 0
DWIDTH 33 0
BBX 31 31 1 -4
BITMAP
00038000
00044000
00082000
00101000
00200800
00400400
00800200
01000100
02000080
04000040
08000020
10000010
20000008
40000004
80000002
80000002
40000004
20000008
10000010
08000020
04000040
02000080
01000100
00800200
00400400
00200800
00101000
00101000
00082000
00044000
00038000
ENDCHAR
STARTCHAR 25CB
ENCODING 9675
SWIDTH 990 0
DWIDTH 33 0
BBX 31 31 1 -4
BITMAP
000FE000
00701C00
01800300
02000080
04000040
08000020
10000010
20000008
20000008
40000004
40000004
40000004
80000002
80000002
80000002
80000002
80000002
80000002
40000004
40000004
40000004
20000008
20000008
10000010
08000020
04000040
02000080
02000080
01800300
00701C00
000FE000
ENDCHAR
STARTCHAR 25CE
ENCODING 9678
SWIDTH 990 0
DWIDTH 33 0
BBX 31 31 1 -4
BITMAP
000FE000
00701C00
01800300
02000080
04000040
08000020
100FE010
20301808
20400408
40800204
41000104
41000104
82000082
82000082
82000082
82000082
82000082
82000082
41000104
41000104
40800204
20400408
20301808
100FE010
08000020
04000040
02000080
02000080
01800300
00701C00
000FE000
ENDCHAR
STARTCHAR 25CF
ENCODING 9679
SWIDTH 990 0
DWIDTH 33 0
BBX 31 31 1 -4
BITMAP
000FE000
007FFC00
01FFFF00
03FFFF80
07FFFFC0
0FFFFFE0
1FFFFFF0
3FFFFFF8
3FFFFFF8
7FFFFFFC
7FFFFFFC
7FFFFFFC
FFFFFFFE
FFFFFFFE
FFFFFFFE
FFFFFFFE
FFFFFFFE
FFFFFFFE
7FFFFFFC
7FFFFFFC
7FFFFFFC
3FFFFFF8
3FFFFFF8
1FFFFFF0
0FFFFFE0
07FFFFC0
03FFFF80
03FFFF80
01FFFF00
007FFC00
000FE000
ENDCHAR
STARTCHAR 25EF
ENCODING 9711
SWIDTH 990 0
DWIDTH 33 0
BBX 33 33 0 -5
BITMAP
000FF80000
0070070000
018000C000
0200002000
0400001000
0800000800
1000000400
2000000200
2000000200
4000000100
4000000100
4000000100
8000000080
8000000080
8000000080
8000000080
8000000080
8000000080
8000000080
8000000080
4000000100
4000000100
4000000100
2000000200
2000000200
1000000400
0800000800
0400001000
0400001000
0200002000
018000C000
0070070000
000FF80000
ENDCHAR
STARTCHAR 2605
ENCODING 9733
SWIDTH 990 0
DWIDTH 33 0
BBX 30 31 1 -4
BITMAP
00030000
00030000
00030000
00078000
00078000
00078000
000FC000
000FC000
000FC000
001FE000
001FE000
FFFFFFFC
3FFFFFF0
1FFFFFE0
07FFFF80
01FFFE00
00FFFC00
003FF000
007FF800
007FF800
00FFFC00
00FDFC00
00F87C00
01F03E00
01E01E00
03C00F00
03800700
03800700
03000300
06000180
04000080
ENDCHAR
STARTCHAR 2606
ENCODING 9734
SWIDTH 990 0
DWIDTH 33 0
BBX 30 31 1 -4
BITMAP
00030000
00030000
00030000
00058000
00058000
00058000
00084000
00084000
00084000
00102000
00102000
FFF03FFC
20000010
18000060
06000180
01000200
00C00C00
00201000
00400800
00400800
00830400
00858400
00884400
01102200
01201200
02400900
02800500
02800500
05000280
06000180
04000080
ENDCHAR
STARTCHAR 2640
ENCODING 9792
SWIDTH 990 0
DWIDTH 33 0
BBX 23 31 5 -4
BITMAP
007C00
018300
020080
040040
040040
080020
080020
080020
080020
040040
040040
020080
018300
007C00
003000
003000
003000
FFFFFE
003000
003000
003000
003000
003000
003000
003000
003000
003000
003000
003000
003000
003000
ENDCHAR
STARTCHAR 2642
ENCODING 9794
SWIDTH 990 0
DWIDTH 33 0
BBX 30 30 1 -4
BITMAP
0001FFFC
0000000C
00000014
00000024
00000044
00000084
00000104
00000204
00000404
00000804
00001004
00002004
00004004
00018004
00030000
07840000
18680000
20100000
40080000
40080000
80040000
80040000
80040000
80040000
40080000
40080000
40080000
20100000
18600000
07800000
ENDCHAR
STARTCHAR 266A
ENCODING 9834
SWIDTH 990 0
DWIDTH 33 0
BBX 20 29 7 -3
BITMAP
00C000
00C000
00E000
00F000
00F800
00DC00
00CE00
00C300
00C180
00C0C0
00C060
00C020
00C030
00C010
00C030
00C020
00C060
00C040
00C080
00C100
00C000
00C000
0FC000
3F0000
7F0000
FE0000
FE0000
FC0000
700000
ENDCHAR
STARTCHAR 266D
ENCODING 9837
SWIDTH 990 0
DWIDTH 33 0
BBX 14 29 10 -3
BITMAP
8000
8000
8000
8000
8000
8000
8000
8000
8000
8000
8000
87C0
9830
B018
E00C
C00C
800C
800C
8018
8018
8030
8060
80C0
8780
8E00
B000
B000
C000
8000
ENDCHAR
STARTCHAR 266F
ENCODING 9839
SWIDTH 990 0
DWIDTH 33 0
BBX 21 29 6 -3
BITMAP
040100
040100
040100
040100
040100
040100
0401F8
043FF8
07FF00
FFE100
FC0100
040100
040100
040100
040100
040100
040100
0401F8
043FF8
07FF00
FFE100
FC0100
040100
040100
040100
040100
040100
040100
040100
ENDCHAR
STARTCHAR 3000
ENCODING 12288
SWIDTH 990 0
DWIDTH 33 0
BBX 0 0 0 0
BITMAP
ENDCHAR
STARTCHAR 3001
ENCODING 12289
SWIDTH 990 0
DWIDTH 33 0
BBX 8 9 1 -4
BITMAP
80
60
38
1C
0E
0E
07
07
03
ENDCHAR
STARTCHAR 3002
ENCODING 12290
SWIDTH 990 0
DWIDTH 33 0
BBX 8 9 2 -3
BITMAP
3C
66
C3
81
81
C3
C3
66
3C
ENDCHAR
STARTCHAR 3003
ENCODING 12291
SWIDTH 990 0
DWIDTH 33 0
BBX 13 17 9 4
BITMAP
0C18
0C18
0C18
0C18
0C18
0C18
1830
1830
1830
1830
1020
3060
2040
2040
4180
4180
8300
ENDCHAR
STARTCHAR 3005
ENCODING 12293
SWIDTH 990 0
DWIDTH 33 0
BBX 23 25 4 -1
BITMAP
004000
007800
007C00
006000
00C008
00C01C
00FFFE
018018
018030
030030
020060
060040
0C00C0
088080
104100
203A00
401C00
800E00
000300
000380
000180
0001C0
0000C0
0000C0
0000C0
ENDCHAR
STARTCHAR 3006
ENCODING 12294
SWIDTH 990 0
DWIDTH 33 0
BBX 33 33 0 -5
BITMAP
0000000300
0000000180
0000000380
0000000780
0000001E00
0000003800
000000E000
0000018000
0000070000
00000C0000
0000180000
0000200000
0078C00000
0187800000
0205C00000
0408E00000
0810380000
08201C0000
10400E0000
1080060000
1080000000
1100000000
2200000000
2600000000
2C00000000
2800000000
3800000000
3000000000
3000000000
7000000000
6000000000
E000000000
C000000000
ENDCHAR
STARTCHAR 3007
ENCODING 12295
SWIDTH 990 0
DWIDTH 33 0
BBX 31 29 1 -3
BITMAP
001FF000
00F83E00
03800380
060000C0
0C000060
18000030
30000018
20000008
40000004
40000004
40000004
80000002
80000002
80000002
80000002
80000002
80000002
40000004
40000004
40000004
20000008
30000018
18000030
0C000060
060000C0
03800380
03800380
00F83E00
001FF000
ENDCHAR
STARTCHAR 3008
ENCODING 12296
SWIDTH 990 0
DWIDTH 33 0
BBX 11 33 19 -5
BITMAP
0020
0020
0040
0080
0080
0100
0200
0200
0400
0800
0800
1000
2000
2000
4000
8000
8000
4000
2000
2000
1000
0800
0800
0400
0200
0200
0100
0080
0080
0080
0040
0020
0020
ENDCHAR
STARTCHAR 3009
ENCODING 12297
SWIDTH 990 0
DWIDTH 33 0
BBX 11 33 3 -5
BITMAP
8000
8000
4000
2000
2000
1000
0800
0800
0400
0200
0200
0100
0080
0080
0040
0020
0020
0040
0080
0080
0100
0200
0200
0400
0800
0800
1000
2000
2000
2000
4000
8000
8000
ENDCHAR
STARTCHAR 300A
ENCODING 12298
SWIDTH 990 0
DWIDTH 33 0
BBX 17 33 13 -5
BITMAP
001080
001080
002100
004200
004200
008400
010800
010800
021000
042000
042000
184000
308000
308000
410000
820000
820000
410000
308000
308000
184000
042000
042000
021000
010800
010800
008400
004200
004200
004200
002100
001080
001080
ENDCHAR
STARTCHAR 300B
ENCODING 12299
SWIDTH 990 0
DWIDTH 33 0
BBX 17 33 3 -5
BITMAP
840000
840000
420000
210000
210000
108000
084000
084000
042000
021000
021000
010C00
008600
008600
004100
002080
002080
004100
008600
008600
010C00
021000
021000
042000
084000
084000
108000
210000
210000
210000
420000
840000
840000
ENDCHAR
STARTCHAR 300C
ENCODING 12300
SWIDTH 990 0
DWIDTH 33 0
BBX 9 29 21 -1
BITMAP
FF80
8000
8000
8000
8000
8000
8000
8000
8000
8000
8000
8000
8000
8000
8000
8000
8000
8000
8000
8000
8000
8000
8000
8000
8000
8000
8000
8000
8000
ENDCHAR
STARTCHAR 300D
ENCODING 12301
SWIDTH 990 0
DWIDTH 33 0
BBX 9 29 3 -5
BITMAP
0080
0080
0080
0080
0080
0080
0080
0080
0080
0080
0080
0080
0080
0080
0080
0080
0080
0080
0080
0080
0080
0080
0080
0080
0080
0080
0080
0080
FF80
ENDCHAR
STARTCHAR 300E
ENCODING 12302
SWIDTH 990 0
DWIDTH 33 0
BBX 12 29 19 -1
BITMAP
FFF0
8010
8010
8010
8FF0
8800
8800
8800
8800
8800
8800
8800
8800
8800
8800
8800
8800
8800
8800
8800
8800
8800
8800
8800
8800
8800
8800
F800
F800
ENDCHAR
STARTCHAR 300F
ENCODING 12303
SWIDTH 990 0
DWIDTH 33 0
BBX 12 29 2 -5
BITMAP
01F0
0110
0110
0110
0110
0110
0110
0110
0110
0110
0110
0110
0110
0110
0110
0110
0110
0110
0110
0110
0110
0110
0110
FF10
FF10
8010
8010
8010
FFF0
ENDCHAR
STARTCHAR 3010
ENCODING 12304
SWIDTH 990 0
DWIDTH 33 0
BBX 7 33 23 -5
BITMAP
FE
FC
F8
F8
F0
F0
E0
E0
E0
E0
C0
C0
C0
C0
C0
C0
C0
C0
C0
C0
C0
C0
E0
E0
E0
E0
F0
F0
F0
F8
F8
FC
FE
ENDCHAR
STARTCHAR 3011
ENCODING 12305
SWIDTH 990 0
DWIDTH 33 0
BBX 7 33 3 -5
BITMAP
FE
7E
3E
3E
1E
1E
0E
0E
0E
0E
06
06
06
06
06
06
06
06
06
06
06
06
0E
0E
0E
0E
1E
1E
1E
3E
3E
7E
FE
ENDCHAR
STARTCHAR 3012
ENCODING 12306
SWIDTH 990 0
DWIDTH 33 0
BBX 27 28 2 -3
BITMAP
FFFFFFE0
FFFFFFE0
FFFFFFE0
00000000
00000000
00000000
00000000
FFFFFFE0
FFFFFFE0
FFFFFFE0
000F0000
000F0000
000F0000
000F0000
000F0000
000F0000
000F0000
000F0000
000F0000
000F0000
000F0000
000F0000
000F0000
000F0000
000F0000
000F0000
000F0000
000F0000
ENDCHAR
STARTCHAR 3013
ENCODING 12307
SWIDTH 990 0
DWIDTH 33 0
BBX 25 14 4 5
BITMAP
FFFFFF80
FFFFFF80
FFFFFF80
FFFFFF80
FFFFFF80
00000000
00000000
00000000
00000000
FFFFFF80
FFFFFF80
FFFFFF80
FFFFFF80
FFFFFF80
ENDCHAR
STARTCHAR 3014
ENCODING 12308
SWIDTH 990 0
DWIDTH 33 0
BBX 10 33 22 -5
BITMAP
00C0
0300
0C00
3000
C000
8000
8000
8000
8000
8000
8000
8000
8000
8000
8000
8000
8000
8000
8000
8000
8000
8000
8000
8000
8000
8000
8000
C000
C000
3000
0C00
0300
00C0
ENDCHAR
STARTCHAR 3015
ENCODING 12309
SWIDTH 990 0
DWIDTH 33 0
BBX 10 33 1 -5
BITMAP
C000
3000
0C00
0300
00C0
0040
0040
0040
0040
0040
0040
0040
0040
0040
0040
0040
0040
0040
0040
0040
0040
0040
0040
0040
0040
0040
0040
00C0
00C0
0300
0C00
3000
C000
ENDCHAR
STARTCHAR 301C
ENCODING 12316
SWIDTH 990 0
DWIDTH 33 0
BBX 33 8 0 8
BITMAP
03E0000000
0E78000000
181E000080
2007800100
4001E00200
8000F80C00
00001F3800
000007E000
ENDCHAR
STARTCHAR 301D
ENCODING 12317
SWIDTH 990 0
DWIDTH 33 0
BBX 13 7 18 20
BITMAP
1C38
1C38
1830
3060
2040
4080
8100
ENDCHAR
STARTCHAR 301F
ENCODING 12319
SWIDTH 990 0
DWIDTH 33 0
BBX 13 8 1 -3
BITMAP
1C38
1C38
1830
3060
2040
2040
4080
8100
ENDCHAR
STARTCHAR 3041
ENCODING 12353
SWIDTH 990 0
DWIDTH 33 0
BBX 22 25 6 -4
BITMAP
018000
00E000
00F000
00E000
00E380
40BF00
3FF800
1E8000
008000
018000
017FC0
018870
073018
193018
31600C
61800C
41800C
C3000C
C78018
9D8018
F88030
F88030
600060
0000C0
000700
ENDCHAR
STARTCHAR 3042
ENCODING 12354
SWIDTH 990 0
DWIDTH 33 0
BBX 27 31 3 -4
BITMAP
00300000
001C0000
001E0000
001C1000
00303800
1030F800
0FFFE000
03FF0000
00300000
00300000
0021FC00
003F8F00
00708380
00E101C0
034700C0
066600E0
0C6E0060
186C0060
307C0060
30700060
60600060
60F000E0
C1B000C0
C73001C0
DE000180
F8000300
60000600
60000600
00001C00
00007000
000F8000
ENDCHAR
STARTCHAR 3043
ENCODING 12355
SWIDTH 990 0
DWIDTH 33 0
BBX 22 18 6 -2
BITMAP
800000
400300
6000C0
700060
600030
600018
600018
400018
40000C
42000C
62000C
240000
340000
1C0000
1E0000
0E0000
0E0000
060000
ENDCHAR
STARTCHAR 3044
ENCODING 12356
SWIDTH 990 0
DWIDTH 33 0
BBX 25 21 4 1
BITMAP
80000000
E0000000
70000000
60000000
60000000
60007000
40001C00
C0000600
C0000700
C0000300
C0000380
C0000180
C0800180
41000100
61000000
63000000
32000000
3A000000
1E000000
0F000000
06000000
ENDCHAR
STARTCHAR 3045
ENCODING 12357
SWIDTH 990 0
DWIDTH 33 0
BBX 15 24 8 -4
BITMAP
0800
0600
03E0
01E0
0200
0000
0000
03F0
9E1C
780C
3006
0006
0006
0006
0006
0006
000C
000C
000C
0018
0018
0030
00E0
0780
ENDCHAR
STARTCHAR 3046
ENCODING 12358
SWIDTH 990 0
DWIDTH 33 0
BBX 18 32 6 -4
BITMAP
080000
060000
03F800
00FC00
018000
020000
040000
000000
000000
00FC00
878300
DE0180
7C0180
7000C0
0000C0
0000C0
0000C0
0000C0
0000C0
0000C0
0001C0
000180
000180
000300
000300
000600
000C00
003800
003800
007000
018000
060000
ENDCHAR
STARTCHAR 3047
ENCODING 12359
SWIDTH 990 0
DWIDTH 33 0
BBX 20 23 7 -3
BITMAP
020000
01E000
00FC00
011C00
020000
000000
001800
21EC00
1F1E00
0E1800
007000
00E000
01C000
030000
020000
07C000
0CE000
186000
306000
707000
707000
E07FF0
C00FF0
ENDCHAR
STARTCHAR 3048
ENCODING 12360
SWIDTH 990 0
DWIDTH 33 0
BBX 22 29 6 -2
BITMAP
020000
010000
01F800
00FC00
018800
020000
000000
000000
000000
000E00
10FF00
1F8700
0F0E00
043C00
003800
007000
00E000
018000
030000
07E000
0E7000
1C3000
383000
703800
603800
E03C1C
C00FFC
C00FFC
4007F8
ENDCHAR
STARTCHAR 3049
ENCODING 12361
SWIDTH 990 0
DWIDTH 33 0
BBX 23 24 5 -4
BITMAP
060000
030000
038000
034000
0330F0
03381C
02780E
83F00E
7F8010
3A0000
020000
0207E0
023830
02C018
03000C
06000C
0E180C
1A300C
7A3018
721C70
721C70
0E07C0
060000
060000
ENDCHAR
STARTCHAR 304A
ENCODING 12362
SWIDTH 990 0
DWIDTH 33 0
BBX 28 25 3 -1
BITMAP
07000000
0B800000
01800000
01800000
01000000
013001C0
013C07F0
01FC0870
83E00070
7F800080
3D800000
01800000
0181FE00
019F0700
01F00300
01C00180
03800180
07810180
9D860180
F9860300
77860300
23870E00
0301FC00
0000F000
0000F000
ENDCHAR
STARTCHAR 304B
ENCODING 12363
SWIDTH 990 0
DWIDTH 33 0
BBX 30 25 1 -1
BITMAP
00C00000
03E00000
00E00000
00C00000
00C00000
00800300
00FF00C0
83E38070
CF81C038
7D81C018
7100401C
0100407C
030041B8
0201C010
0601C000
0601C000
04038000
0C038000
1C038000
18070000
318F0000
70DC0000
60780000
00700000
00700000
ENDCHAR
STARTCHAR 304C
ENCODING 12364
SWIDTH 990 0
DWIDTH 33 0
BBX 31 29 1 -1
BITMAP
00000020
00000018
0000000C
0000010E
00C000C6
03E00060
00E00070
00C00030
00C00000
00800300
00FF00C0
83E38070
CF81C038
7D81C018
7100401C
0100407C
030041B8
0201C010
0601C000
0601C000
04038000
0C038000
1C038000
18070000
318F0000
70DC0000
60780000
00700000
00700000
ENDCHAR
STARTCHAR 304D
ENCODING 12365
SWIDTH 990 0
DWIDTH 33 0
BBX 19 30 7 -3
BITMAP
1C0000
2E0000
060000
060000
030800
21DC00
1FF800
0FE000
007140
0010E0
8019C0
400F80
7FFE00
1FEC00
000200
000300
000100
000180
0001C0
07F0C0
181CC0
3007C0
600380
400000
400000
600000
307800
307800
3FF800
0FF000
ENDCHAR
STARTCHAR 304E
ENCODING 12366
SWIDTH 990 0
DWIDTH 33 0
BBX 25 30 6 -3
BITMAP
1C000800
2E000600
06000300
06004380
03083180
21BC1800
1FF81C00
0FE00C00
00714000
0030E000
8039C000
400F8000
7FFE0000
1FEC0000
00020000
00030000
00010000
00018000
0001C000
07F0C000
183CC000
3007C000
60038000
40000000
40000000
60000000
30780000
30780000
3FF80000
0FF00000
ENDCHAR
STARTCHAR 304F
ENCODING 12367
SWIDTH 990 0
DWIDTH 33 0
BBX 12 30 8 -3
BITMAP
0380
01E0
00F0
00F0
01E0
01C0
03C0
0380
0600
0C00
1800
3000
6000
4000
C000
4000
6000
3000
1800
0C00
0E00
0780
0380
01C0
01E0
00E0
00F0
00F0
0030
0030
ENDCHAR
STARTCHAR 3050
ENCODING 12368
SWIDTH 990 0
DWIDTH 33 0
BBX 21 30 8 -3
BITMAP
038000
01E000
00F000
00F080
01E060
01C030
03C438
038318
060180
0C01C0
1800C0
300000
600000
400000
C00000
400000
600000
300000
180000
0C0000
0E0000
078000
038000
01C000
01E000
00E000
00F000
00F000
003000
003000
ENDCHAR
STARTCHAR 3051
ENCODING 12369
SWIDTH 990 0
DWIDTH 33 0
BBX 24 28 5 -3
BITMAP
8000E0
400030
600038
600030
700030
700033
600037
60183F
6007FC
6001F0
400030
C00030
C00030
840030
880030
880030
980030
900030
D00030
F00060
E00060
600060
7000C0
3800C0
380180
380180
180100
000600
ENDCHAR
STARTCHAR 3052
ENCODING 12370
SWIDTH 990 0
DWIDTH 33 0
BBX 30 31 3 -3
BITMAP
00000040
00000030
00000418
8000E31C
4000318C
600039C0
600030C0
70003000
70003300
60003700
60103F00
600FFC00
6001F000
40003000
C0003000
C0003000
84003000
88003000
88003000
98003000
90003000
D0003000
F0006000
E0006000
60006000
7000C000
3800C000
38018000
38018000
18010000
000E0000
ENDCHAR
STARTCHAR 3053
ENCODING 12371
SWIDTH 990 0
DWIDTH 33 0
BBX 20 22 6 1
BITMAP
1FFC00
07FF00
003F00
007000
008000
000000
000000
000000
000000
000000
000000
000000
000000
000000
000000
800000
800000
400000
600000
380070
1FFFF0
07FFE0
ENDCHAR
STARTCHAR 3054
ENCODING 12372
SWIDTH 990 0
DWIDTH 33 0
BBX 25 26 6 1
BITMAP
00000800
00000600
00000300
00004380
1FFC3180
07FF1800
003F1C00
00700C00
00800000
00000000
00000000
00000000
00000000
00000000
00000000
00000000
00000000
00000000
00000000
80000000
80000000
40000000
60000000
38007000
1FFFF000
07FFE000
ENDCHAR
STARTCHAR 3055
ENCODING 12373
SWIDTH 990 0
DWIDTH 33 0
BBX 22 27 5 -1
BITMAP
038000
073080
071FC0
0383C0
01C380
007F00
803E00
41FE00
7FC300
3F0180
0000C0
000060
000030
000038
000018
03FE1C
0E03DC
1800FC
100038
300000
300000
300000
180000
1E0380
0FFF80
03FF00
03FF00
ENDCHAR
STARTCHAR 3056
ENCODING 12374
SWIDTH 990 0
DWIDTH 33 0
BBX 27 28 5 -1
BITMAP
00000200
03800180
073080C0
071FD0E0
0383CC60
01C38600
007F0700
803E0300
41FE0000
7FC30000
3F018000
0000C000
00006000
00003000
00003800
00001800
03FE1C00
0E03DC00
1800FC00
10003800
30000000
30000000
30000000
18000000
1E038000
0FFF8000
03FF0000
03FF0000
ENDCHAR
STARTCHAR 3057
ENCODING 12375
SWIDTH 990 0
DWIDTH 33 0
BBX 22 29 6 -2
BITMAP
C00000
600000
700000
700000
700000
700000
600000
600000
600000
600000
600000
C00000
C00000
C00000
C00000
C00000
C00000
C00004
C00004
C00008
C00018
600030
600060
7000C0
380380
1E0F00
0FFC00
0FFC00
03F000
ENDCHAR
STARTCHAR 3058
ENCODING 12376
SWIDTH 990 0
DWIDTH 33 0
BBX 22 29 6 -2
BITMAP
C00000
600000
700200
700180
7000C0
7030E0
600C60
600600
600700
600300
600000
C00000
C00000
C00000
C00000
C00000
C00000
C00004
C00004
C00008
C00018
600030
600060
7000C0
380380
1E0F00
0FFC00
0FFC00
03F000
ENDCHAR
STARTCHAR 3059
ENCODING 12377
SWIDTH 990 0
DWIDTH 33 0
BBX 29 31 1 -4
BITMAP
00038000
0001C000
0001E000
0001E000
0001D800
0001C600
0001C3F8
801FFFF8
FFF9C000
7E018000
10018000
00018000
00078000
000FC000
0019E000
00106000
00306000
00206000
00206000
00306000
0019E000
001FE000
00076000
0001C000
0001C000
00038000
00038000
00038000
00070000
000C0000
00100000
ENDCHAR
STARTCHAR 305A
ENCODING 12378
SWIDTH 990 0
DWIDTH 33 0
BBX 32 32 1 -4
BITMAP
00000008
00038086
0001C063
0001E033
0001E039
0001D818
0001C600
0001C3F8
801FFFF8
FFF9C000
7E018000
10018000
00018000
00078000
000FC000
0019E000
00106000
00306000
00206000
00206000
00306000
0019E000
001FE000
00076000
0001C000
0001C000
00038000
00038000
00038000
00070000
000C0000
00100000
ENDCHAR
STARTCHAR 305B
ENCODING 12379
SWIDTH 990 0
DWIDTH 33 0
BBX 30 24 1 1
BITMAP
00003800
00001C00
01000E00
07800C00
01C00C80
00E00C60
00C00C3C
00C00FFC
00C7FC0C
00FF1800
87E01800
FFC01800
7CC01800
30C03800
00C3F000
00C1F000
00C06000
00C04000
00C00000
00C00000
00C00000
00600F00
007FFF00
001FFC00
ENDCHAR
STARTCHAR 305C
ENCODING 12380
SWIDTH 990 0
DWIDTH 33 0
BBX 32 27 1 1
BITMAP
00000008
00000006
00000003
00003843
00001C31
01000E18
07800C1C
01C00C8C
00E00C60
00C00C3C
00C00FFC
00C7FC0C
00FF1800
87E01800
FFC01800
7CC01800
30C03800
00C3F000
00C1F000
00C06000
00C04000
00C00000
00C00000
00C00000
00600F00
007FFF00
001FFC00
ENDCHAR
STARTCHAR 305D
ENCODING 12381
SWIDTH 990 0
DWIDTH 33 0
BBX 20 30 6 -3
BITMAP
003800
11EC00
0F8600
0E0E00
043E00
007800
007000
00E000
018000
030000
060000
0400C0
0807F0
107FF0
23F000
6E8000
F90000
F20000
C20000
040000
040000
040000
040000
060000
030000
030000
01F000
01F000
00FF00
003E00
ENDCHAR
STARTCHAR 305E
ENCODING 12382
SWIDTH 990 0
DWIDTH 33 0
BBX 26 30 5 -3
BITMAP
00380000
11DC0000
0F860400
0E1E0300
043E0180
007821C0
007018C0
00C00C00
01800E00
03000600
06000000
0400C000
0807F000
107FF000
23F00000
6E800000
F9000000
F2000000
C2000000
04000000
04000000
04000000
04000000
06000000
03000000
03000000
01F00000
01F00000
00FF0000
003E0000
ENDCHAR
STARTCHAR 305F
ENCODING 12383
SWIDTH 990 0
DWIDTH 33 0
BBX 28 29 2 -2
BITMAP
01C00000
00E00000
00E00000
00D00000
00CE0000
80DE0000
61F80000
3FE00700
1F803FC0
018000E0
01000070
030000F0
03000100
02000000
06000000
06000000
06000000
0C000000
0C000000
0C000000
18060000
18060000
38060000
30030000
70038000
7000E000
20007FC0
20007FC0
00001FC0
ENDCHAR
STARTCHAR 3060
ENCODING 12384
SWIDTH 990 0
DWIDTH 33 0
BBX 32 30 1 -2
BITMAP
00000010
01C0000C
00E00006
00E00087
00D00063
00CC0030
80DC0038
61F80018
3FE00700
1F803FC0
018000E0
01000070
030000F0
03000100
02000000
06000000
06000000
06000000
0C000000
0C000000
0C000000
18040000
18040000
38040000
30030000
70038000
7001E000
20007FC0
20007FC0
00001FC0
ENDCHAR
STARTCHAR 3061
ENCODING 12385
SWIDTH 990 0
DWIDTH 33 0
BBX 23 30 4 -3
BITMAP
070000
038000
01C000
018000
01A000
019C00
811E00
7FFE00
1FF800
030000
030000
020000
020000
060000
060000
0603E0
061C38
06600C
0CC00C
0D8006
0F0006
060006
060006
00000C
00000C
000018
000070
000070
0001C0
001E00
ENDCHAR
STARTCHAR 3062
ENCODING 12386
SWIDTH 990 0
DWIDTH 33 0
BBX 25 30 4 -3
BITMAP
07000000
03800000
01C00000
01800000
01A00800
019C0600
811E0300
7FFE4380
1FF83180
03001800
03001C00
02000C00
02000000
06000000
06000000
0603E000
061C3800
06600C00
0CC00C00
0D800600
0F000600
06000600
06000600
00000C00
00000C00
00001800
00007000
00007000
0001C000
001E0000
ENDCHAR
STARTCHAR 3063
ENCODING 12387
SWIDTH 990 0
DWIDTH 33 0
BBX 23 14 5 1
BITMAP
0007C0
007C30
01F018
8F800C
FE000E
780006
000006
000006
00000C
00000C
000018
000070
0000C0
000700
ENDCHAR
STARTCHAR 3064
ENCODING 12388
SWIDTH 990 0
DWIDTH 33 0
BBX 29 19 1 2
BITMAP
00007E00
0007C380
001C00C0
00700060
81C00030
CF800038
7E000018
38000018
00000018
00000018
00000018
00000038
00000030
00000070
000000E0
000001C0
00000700
00001C00
0003E000
ENDCHAR
STARTCHAR 3065
ENCODING 12389
SWIDTH 990 0
DWIDTH 33 0
BBX 32 26 1 1
BITMAP
00000010
0000000C
00000006
00000087
00000063
00000030
00000038
00007E18
0007C380
001C00C0
00700060
81C00030
CF800038
7E000018
38000018
00000018
00000018
00000018
00000038
00000030
00000070
000000E0
000001C0
00000700
00001C00
0003E000
ENDCHAR
STARTCHAR 3066
ENCODING 12390
SWIDTH 990 0
DWIDTH 33 0
BBX 26 27 3 -2
BITMAP
00000780
00003FC0
0007F0C0
003E4000
81E08000
C7810000
7E070000
78060000
200E0000
000C0000
001C0000
001C0000
00100000
00300000
00300000
00300000
00300000
00300000
00300000
00300000
00300000
00300000
001C0000
001F0C00
000FFC00
000FFC00
0001F800
ENDCHAR
STARTCHAR 3067
ENCODING 12391
SWIDTH 990 0
DWIDTH 33 0
BBX 31 27 2 -2
BITMAP
00000780
00003FC0
0007F0C0
003E4000
81E08020
C7830018
7E07000C
7806010E
200E00C6
00080060
00180070
00180030
00100000
00300000
00300000
00300000
00300000
00300000
00300000
00300000
00300000
00300000
00180000
001F0C00
000FFC00
000FFC00
0003F800
ENDCHAR
STARTCHAR 3068
ENCODING 12392
SWIDTH 990 0
DWIDTH 33 0
BBX 14 30 9 -3
BITMAP
3000
1800
1C00
1C00
1800
1800
1800
3000
3000
3000
3000
1000
1878
1BF8
0FE0
0F00
1800
3000
6000
4000
C000
8000
8000
8000
C000
C000
700C
700C
3FFC
0FF8
ENDCHAR
STARTCHAR 3069
ENCODING 12393
SWIDTH 990 0
DWIDTH 33 0
BBX 20 30 9 -3
BITMAP
300000
180000
1C0100
1C00C0
180060
180870
180630
300300
300380
300180
300000
100000
187800
1BF800
0FE000
0F0000
180000
300000
600000
400000
C00000
800000
800000
800000
C00000
C00000
700C00
700C00
3FFC00
0FF800
ENDCHAR
STARTCHAR 306A
ENCODING 12394
SWIDTH 990 0
DWIDTH 33 0
BBX 25 30 3 -3
BITMAP
03800000
01C00000
01900000
41BC0000
61FC0000
3FE00000
1F800C00
03000700
02000380
06000380
06001F80
04006180
0C004000
0C008000
18008000
18008000
30008000
30008000
60008000
E0008000
C000C000
0000C000
00FFC000
0181F000
0300DC00
0300CE00
0181C600
0181C600
01FF8000
007E0000
ENDCHAR
STARTCHAR 306B
ENCODING 12395
SWIDTH 990 0
DWIDTH 33 0
BBX 25 25 4 -1
BITMAP
40000000
20000000
30200C00
301FFE00
3801FE00
38000000
30000000
30000000
20000000
60000000
60000000
40000000
44000000
C4000000
C8000000
C8000000
C8000000
D8000000
F0000000
70200000
701C0180
380FFF80
3801FF00
18000000
18000000
ENDCHAR
STARTCHAR 306C
ENCODING 12396
SWIDTH 990 0
DWIDTH 33 0
BBX 27 23 2 1
BITMAP
02000000
01000000
0183F000
00CE1C00
00F00600
00600300
41C00300
43600380
46600180
64600180
28600180
38C00180
38C00180
28C00180
6D800180
47800380
43800380
C3C0F300
C7439F00
86060F80
CE060DC0
F807F8E0
7000E0E0
ENDCHAR
STARTCHAR 306D
ENCODING 12397
SWIDTH 990 0
DWIDTH 33 0
BBX 28 30 3 -3
BITMAP
03800000
01C00000
01C00000
01C00000
01800000
01800000
01800000
01807C00
01F18700
07F60180
1F4C0180
3D700180
71E000C0
41C000C0
418000C0
230000C0
230000C0
170000C0
1D0000C0
1D0000C0
390000C0
350000C0
7501F9C0
67071F80
E3860380
638607E0
0387FE70
0387FE70
0181F830
01000000
ENDCHAR
STARTCHAR 306E
ENCODING 12398
SWIDTH 990 0
DWIDTH 33 0
BBX 28 26 3 -2
BITMAP
001FE000
00EC1C00
03060700
06060180
0C0600C0
180600C0
30060060
20060060
600E0030
600C0030
C01C0030
C01C0030
C0300030
C0300030
C0600030
C0600070
C0C00060
C1C00060
E38000C0
7F0000C0
7E000180
18000300
00000E00
00003800
00003800
0001C000
ENDCHAR
STARTCHAR 306F
ENCODING 12399
SWIDTH 990 0
DWIDTH 33 0
BBX 26 28 4 -3
BITMAP
0000E000
C0007000
60003800
30003400
38003200
38003180
30203380
30183F00
601FFE00
600FF000
60003000
40003000
40003000
C0003000
80003000
88003000
88003000
90003000
90003000
D01FF800
D0203C00
E0403700
E0403380
606071C0
703FE0C0
703FE0C0
701FC000
30000000
ENDCHAR
STARTCHAR 3070
ENCODING 12400
SWIDTH 990 0
DWIDTH 33 0
BBX 30 31 3 -3
BITMAP
00000040
00000030
00000018
0000E21C
C000718C
600038C0
300034E0
38003060
38003180
30203380
30103F00
601FFE00
600FF000
60003000
40003000
40003000
C0003000
80003000
88003000
88003000
90003000
90003000
D01FF800
D0203C00
E0403700
E0403380
606071C0
703FE0C0
703FE0C0
701FC000
30000000
ENDCHAR
STARTCHAR 3071
ENCODING 12401
SWIDTH 990 0
DWIDTH 33 0
BBX 29 31 3 -3
BITMAP
000000E0
00000110
00000208
0000E208
C0007208
60003910
300034E0
38003000
38003180
30203380
30103F00
601FFE00
600FF000
60003000
40003000
40003000
C0003000
80003000
88003000
88003000
90003000
90003000
D01FF800
D0203C00
E0403700
E0403380
606071C0
703FE0C0
703FE0C0
701FC000
30000000
ENDCHAR
STARTCHAR 3072
ENCODING 12402
SWIDTH 990 0
DWIDTH 33 0
BBX 27 28 4 -2
BITMAP
00006000
0000E000
01806000
43C06000
7FC06000
7E006000
2C003000
08003000
18003800
10002800
30002C00
20002600
60002380
600021E0
400020E0
C0004000
C0004000
C0004000
C0004000
C0008000
C0008000
C0018000
E0030000
600E0000
703C0000
3FF80000
3FF80000
0FC00000
ENDCHAR
STARTCHAR 3073
ENCODING 12403
SWIDTH 990 0
DWIDTH 33 0
BBX 28 30 4 -2
BITMAP
00000100
000000C0
00006060
0000E870
01806630
43C06300
7FC06380
7E006180
2C003000
08003000
18003800
10002800
30002C00
20002600
60002380
600021E0
400020E0
C0004000
C0004000
C0004000
C0004000
C0008000
C0008000
C0018000
E0030000
600E0000
703C0000
3FF80000
3FF80000
0FC00000
ENDCHAR
STARTCHAR 3074
ENCODING 12404
SWIDTH 990 0
DWIDTH 33 0
BBX 28 29 4 -2
BITMAP
000001C0
00006220
0000E410
01806410
43C06410
7FC06220
7E0061C0
2C003000
08003000
18003800
10002800
30002C00
20002600
60002380
600021E0
400020E0
C0004000
C0004000
C0004000
C0004000
C0008000
C0008000
C0018000
E0030000
600E0000
703C0000
3FF80000
3FF80000
0FC00000
ENDCHAR
STARTCHAR 3075
ENCODING 12405
SWIDTH 990 0
DWIDTH 33 0
BBX 29 23 1 2
BITMAP
00030000
00038000
0001C000
0001F000
0001F000
00036000
00040000
00080000
00100000
00100000
00080000
000C0000
00070000
00038000
0007FF00
0019C3C0
0061E0E0
01806070
07006030
0C806038
B861E018
F03FC018
600F8000
ENDCHAR
STARTCHAR 3076
ENCODING 12406
SWIDTH 990 0
DWIDTH 33 0
BBX 29 23 1 2
BITMAP
00030080
00038060
0001C030
0001F438
0001F318
00036180
000401C0
000800C0
00100000
00100000
00080000
000C0000
00070000
00038000
0007FF00
0019C3C0
0061E0E0
01806070
07006030
0C806038
B861E018
F03FC018
600F8000
ENDCHAR
STARTCHAR 3077
ENCODING 12407
SWIDTH 990 0
DWIDTH 33 0
BBX 30 23 1 2
BITMAP
00030070
00038088
0001C104
0001F104
0001F104
00036088
00040070
00080000
00100000
00100000
00080000
000C0000
00070000
00038000
0007FF00
0019C3C0
0061E0E0
01806070
07006030
0C806038
B861E018
F03FC018
600F8000
ENDCHAR
STARTCHAR 3078
ENCODING 12408
SWIDTH 990 0
DWIDTH 33 0
BBX 32 15 1 5
BITMAP
00380000
006C0000
00C70000
01838000
0301C000
06006000
9C003800
FC001C00
78000700
30000380
000000E0
00000078
0000003F
0000000F
00000002
ENDCHAR
STARTCHAR 3079
ENCODING 12409
SWIDTH 990 0
DWIDTH 33 0
BBX 32 20 1 5
BITMAP
00000100
000000C0
00000060
00000870
00000630
00380300
006C0380
00C70180
01838000
0301C000
06006000
9C003800
FC001C00
78000700
30000380
000000E0
00000078
0000003F
0000000F
00000002
ENDCHAR
STARTCHAR 307A
ENCODING 12410
SWIDTH 990 0
DWIDTH 33 0
BBX 32 20 1 5
BITMAP
00000380
00000440
00000820
00000820
00000820
00380440
006C0380
00C70000
01838000
0301C000
06006000
9C003800
FC001C00
78000700
30000380
000000E0
00000078
0000003F
0000000F
00000002
ENDCHAR
STARTCHAR 307B
ENCODING 12411
SWIDTH 990 0
DWIDTH 33 0
BBX 27 28 3 -2
BITMAP
00000E00
30067E00
1801FC00
18000000
18000000
18007000
38003800
30003800
300030C0
600033C0
60103F80
600FFE00
4001F800
40001000
C0001000
88001000
88001000
90001800
90001800
D0003800
F007FE00
600E1F80
70101BC0
701018E0
381C7860
380FF000
380FF000
1807C000
ENDCHAR
STARTCHAR 307C
ENCODING 12412
SWIDTH 990 0
DWIDTH 33 0
BBX 31 30 2 -2
BITMAP
00000020
00000018
00000C0C
30067D0E
1803F8C6
18000060
18000070
18007030
38003800
30003800
300030C0
600033C0
60103F80
600FFE00
4003F800
40001000
C0001000
88001000
88001000
90001800
90001800
D0003800
F007FE00
600E1F80
70101BC0
701018E0
38187860
380FF000
380FF000
1807C000
ENDCHAR
STARTCHAR 307D
ENCODING 12413
SWIDTH 990 0
DWIDTH 33 0
BBX 30 29 2 -2
BITMAP
00000070
00000C88
30067D04
1803F904
18000104
18000088
18007070
38003800
30003800
300030C0
600033C0
60103F80
600FFE00
4003F800
40001000
C0001000
88001000
88001000
90001800
90001800
D0003800
F007FE00
600E1F80
70101BC0
701018E0
38187860
380FF000
380FF000
1807C000
ENDCHAR
STARTCHAR 307E
ENCODING 12414
SWIDTH 990 0
DWIDTH 33 0
BBX 20 31 5 -3
BITMAP
003C00
001E00
001E00
001C00
001C00
021B80
03FF80
01FF00
001800
001800
001880
001870
8018F0
601BE0
3FFF80
0FFC00
001800
001800
001800
001800
001C00
001C00
0FFC00
187F00
301FC0
201DE0
303870
1CF830
1CF830
0FF000
030000
ENDCHAR
STARTCHAR 307F
ENCODING 12415
SWIDTH 990 0
DWIDTH 33 0
BBX 29 26 2 -1
BITMAP
000F8000
047FC000
07E3C000
03C78000
010F0000
000E0000
00180000
00180000
00300C00
00200600
00600700
00400300
01FF8300
0783FB00
1B003F00
33000F80
660007E0
46000CF0
CC000C78
8C001838
98003010
F8006000
6000C000
00038000
000E0000
000E0000
ENDCHAR
STARTCHAR 3080
ENCODING 12416
SWIDTH 990 0
DWIDTH 33 0
BBX 28 28 3 -2
BITMAP
0E000000
07000000
03400000
03200000
82700000
C6E00000
7FC00000
3F000000
020007C0
02000860
0E000830
1F000830
130008F0
23800870
23800800
23000800
23000800
23000800
36000800
3E000800
1C000800
04000C00
04000C00
04001C00
07007C00
03FFF800
03FFF800
01FFC000
ENDCHAR
STARTCHAR 3081
ENCODING 12417
SWIDTH 990 0
DWIDTH 33 0
BBX 26 27 3 -1
BITMAP
000F0000
00078000
0001C000
40018000
20018000
30078000
183FF800
18E71E00
0F0E0700
0E0E0380
0C0C0180
1E1C01C0
331000C0
33B000C0
61F000C0
60E000C0
60FC00C0
C0DE01C0
C18E0180
C3000180
7E000300
78000600
00001C00
00003000
0001C000
001E0000
001E0000
ENDCHAR
STARTCHAR 3082
ENCODING 12418
SWIDTH 990 0
DWIDTH 33 0
BBX 17 30 8 -3
BITMAP
0C0000
060000
078000
060000
060000
460000
360000
1F8000
0FC000
0DC000
180000
380000
480000
980000
901000
500800
700400
39C600
1FC300
178300
100100
100180
100180
180180
180180
0C0300
0E0700
0E0700
07FE00
01F800
ENDCHAR
STARTCHAR 3083
ENCODING 12419
SWIDTH 990 0
DWIDTH 33 0
BBX 25 24 5 -3
BITMAP
00040000
00060000
07FE0000
083E0000
0800FC00
08070600
0C3C0300
04F00300
03800380
8F000380
FD020700
F881FE00
20C07C00
00C00000
00700000
00700000
00380000
00380000
00380000
003C0000
001C0000
001C0000
001C0000
001C0000
ENDCHAR
STARTCHAR 3084
ENCODING 12420
SWIDTH 990 0
DWIDTH 33 0
BBX 29 29 1 -3
BITMAP
00040000
00030000
00038000
07C3C000
0C3F8000
080F1F80
0C01F0E0
0C078030
061C0030
03700018
01E00018
83800018
CF800018
7CC18038
78606070
30301FE0
00300780
00180000
00180000
000C0000
000C0000
000F0000
00070000
00070000
00078000
00078000
00078000
00038000
00030000
ENDCHAR
STARTCHAR 3085
ENCODING 12421
SWIDTH 990 0
DWIDTH 33 0
BBX 22 22 6 -5
BITMAP
003800
E06400
306600
38BFC0
30E630
308318
318318
22830C
24830C
64830C
68830C
68830C
708608
706618
306470
303FC0
000C00
000C00
003800
003000
006000
008000
ENDCHAR
STARTCHAR 3086
ENCODING 12422
SWIDTH 990 0
DWIDTH 33 0
BBX 28 27 3 -3
BITMAP
000F8000
E011F800
7027E700
703C6180
702070C0
60C03060
60C03060
61403030
E2403030
C2403030
C4403030
C4403030
CC403030
48203030
48303060
68107060
681C60C0
3C0E6380
3C07FF00
0800C800
0000C000
00018000
00010000
00060000
00060000
000C0000
00300000
ENDCHAR
STARTCHAR 3087
ENCODING 12423
SWIDTH 990 0
DWIDTH 33 0
BBX 16 24 7 -2
BITMAP
0300
01C0
01E0
01C0
01C0
01C7
01FF
01C0
01C0
01C0
00C0
00C0
00C0
00C0
00E0
00E0
00E0
7FF0
80FC
80EE
81C7
7FC3
7FC3
1E00
ENDCHAR
STARTCHAR 3088
ENCODING 12424
SWIDTH 990 0
DWIDTH 33 0
BBX 19 29 5 -2
BITMAP
01C000
00F000
007800
007800
007000
007000
007000
0040C0
0043E0
007F80
004000
004000
004000
004000
007000
007000
007000
003000
003000
003800
0FB800
3BFC00
407F00
803BC0
8079E0
C0F060
7FC000
7FC000
1F0000
ENDCHAR
STARTCHAR 3089
ENCODING 12425
SWIDTH 990 0
DWIDTH 33 0
BBX 19 30 7 -3
BITMAP
020000
01C000
00E000
00F000
1FF000
20E000
400000
400000
600000
600000
600000
600000
C00000
C00000
C00000
C00000
C07E00
C1E380
C700C0
CC00C0
F80060
F00060
600060
000060
0000C0
0001C0
000380
000380
000E00
01F000
ENDCHAR
STARTCHAR 308A
ENCODING 12426
SWIDTH 990 0
DWIDTH 33 0
BBX 14 30 9 -3
BITMAP
4000
2000
2800
3000
3000
3060
63F0
6718
6818
D00C
D00C
E00C
E00C
C00C
C00C
C00C
C00C
E00C
600C
6018
0018
0018
0030
0030
0060
01C0
0380
0380
0C00
3000
ENDCHAR
STARTCHAR 308B
ENCODING 12427
SWIDTH 990 0
DWIDTH 33 0
BBX 20 26 6 -1
BITMAP
007800
01EC00
270E00
3E3C00
1C3800
087000
00E000
018000
010000
030000
060000
047F00
0D81C0
1E0060
380060
300030
600030
E00030
C00030
C3E070
067060
0638E0
0305C0
03FF80
00FE00
00FE00
ENDCHAR
STARTCHAR 308C
ENCODING 12428
SWIDTH 990 0
DWIDTH 33 0
BBX 31 28 2 -2
BITMAP
0E000000
07000000
03800000
03800000
03007800
0303CC00
03070600
03CE0600
0FD00600
3F200600
73C00600
C3800600
C7000600
46000C00
4E000C00
2E000C00
3A000C02
1A000C02
32001C04
62001C0C
72000C18
EA000E70
C70007E0
C7000180
03000000
07000000
07000000
06000000
ENDCHAR
STARTCHAR 308D
ENCODING 12429
SWIDTH 990 0
DWIDTH 33 0
BBX 25 28 4 -3
BITMAP
000E0000
007F8000
11E38000
1F8F0000
0F0E0000
061E0000
001C0000
00380000
00600000
00C00000
00800000
018FF800
03381E00
02C00700
07000300
0E000380
1C000180
38000180
30000380
60000300
E0000300
C0000600
C0000C00
00001800
00006000
00006000
00018000
000E0000
ENDCHAR
STARTCHAR 308E
ENCODING 12430
SWIDTH 990 0
DWIDTH 33 0
BBX 22 25 6 -4
BITMAP
0C0000
060000
070000
070000
060000
060000
060000
040000
0603C0
0F0C70
BE7018
74E018
2D800C
2F000C
16000C
1C000C
340018
240018
740030
D40060
CC00C0
CC00C0
0C0700
0C0000
0C0000
ENDCHAR
STARTCHAR 308F
ENCODING 12431
SWIDTH 990 0
DWIDTH 33 0
BBX 26 29 3 -2
BITMAP
06000000
03800000
03C00000
01C00000
01800000
01800000
01800000
01000000
01000000
01C00000
03C1F800
0F8F1E00
1DB00700
F9600380
E3C00180
438001C0
270000C0
1F0000C0
1B0000C0
1B0000C0
3B0000C0
67000180
67000180
C7000300
C3000600
03000C00
03803800
03803800
0301C000
ENDCHAR
STARTCHAR 3090
ENCODING 12432
SWIDTH 990 0
DWIDTH 33 0
BBX 27 26 3 -1
BITMAP
003F0000
08CF8000
0F870000
0F0E0000
040E0000
001C0000
0010FC00
003F0F00
00300380
00600180
01C000C0
034000C0
0EC000E0
1C800060
39800060
61800060
810000E0
830000C0
830000C0
C60001C0
660F0180
6E1DC300
3C106600
1C1C3C00
000FE000
000FE000
ENDCHAR
STARTCHAR 3091
ENCODING 12433
SWIDTH 990 0
DWIDTH 33 0
BBX 26 30 3 -4
BITMAP
000F8000
047DC000
03E7C000
03CF8000
010E0000
001C0000
00300000
0027E000
005C3800
00E01C00
01C00C00
03800E00
03800C00
07301C00
074C3800
027C7000
003FC000
00200000
00400000
00800000
01800000
03007C00
06018700
0F870380
1CEE0180
303E01C0
303E01C0
703C07C0
E03C0980
601C0000
ENDCHAR
STARTCHAR 3092
ENCODING 12434
SWIDTH 990 0
DWIDTH 33 0
BBX 25 30 4 -3
BITMAP
01C00000
00E00000
00CC0000
40DC0000
3FFC0000
1FE00000
01800000
01000400
03001F00
02002380
06004180
0C008780
0BE11F00
1E3A3800
383CE000
701F8000
E01E0000
603C0000
007C0000
009C0000
019C0000
031C0000
02180000
06000000
04000000
06000000
03007000
03007000
03FFF000
00FFC000
ENDCHAR
STARTCHAR 3093
ENCODING 12435
SWIDTH 990 0
DWIDTH 33 0
BBX 27 29 4 -4
BITMAP
00200000
00380000
001C0000
001E0000
001E0000
003C0000
00780000
00600000
00C00000
01800000
01800000
03000000
06000000
047E0000
0D830000
0A030000
14018000
38018000
30018000
20018000
60018020
60018020
E0018040
C00180C0
C0018180
C0018180
C001C700
C000FE00
00007800
ENDCHAR
STARTCHAR 309B
ENCODING 12443
SWIDTH 990 0
DWIDTH 33 0
BBX 9 7 1 19
BITMAP
0800
0600
8300
6180
3180
1800
1800
ENDCHAR
STARTCHAR 309C
ENCODING 12444
SWIDTH 990 0
DWIDTH 33 0
BBX 6 6 1 20
BITMAP
30
48
84
84
48
30
ENDCHAR
STARTCHAR 309D
ENCODING 12445
SWIDTH 990 0
DWIDTH 33 0
BBX 12 13 10 5
BITMAP
8000
4000
3000
1E00
0F80
03C0
00E0
0070
00F0
0380
0E00
1000
2000
ENDCHAR
STARTCHAR 309E
ENCODING 12446
SWIDTH 990 0
DWIDTH 33 0
BBX 17 18 10 5
BITMAP
000800
000600
008300
006180
003180
801800
401800
300000
1E0000
0F8000
03C000
00E000
007000
00F000
038000
0E0000
100000
200000
ENDCHAR
STARTCHAR 30A1
ENCODING 12449
SWIDTH 990 0
DWIDTH 33 0
BBX 21 21 6 -3
BITMAP
0000C0
800FE0
83F870
FF80F8
7C01C0
300300
00EC00
007000
007000
007000
00E000
00E000
018000
010000
030000
060000
040000
080000
080000
100000
200000
ENDCHAR
STARTCHAR 30A2
ENCODING 12450
SWIDTH 990 0
DWIDTH 33 0
BBX 25 27 4 -3
BITMAP
00000C00
00007E00
807FC700
FFF80380
7E000780
30000F00
00003800
003C6000
001F8000
000F0000
000E0000
001E0000
001C0000
001C0000
00380000
00380000
00600000
00600000
00C00000
00800000
01800000
03000000
02000000
04000000
04000000
08000000
10000000
ENDCHAR
STARTCHAR 30A3
ENCODING 12451
SWIDTH 990 0
DWIDTH 33 0
BBX 17 25 5 -3
BITMAP
000400
000700
000780
001E00
001C00
003C00
003800
007000
00F800
01BC00
03BC00
073800
0C1800
181800
301800
C01800
001800
003800
003800
003800
003800
003800
003800
003800
003800
ENDCHAR
STARTCHAR 30A4
ENCODING 12452
SWIDTH 990 0
DWIDTH 33 0
BBX 19 30 4 -3
BITMAP
000300
0001C0
0001E0
000380
000300
000E00
000E00
001C00
003C00
006000
007C00
00DE00
019E00
031C00
061C00
0C1C00
181C00
301C00
C01C00
001C00
001C00
001C00
001C00
001C00
001C00
001C00
001E00
001E00
001E00
001C00
ENDCHAR
STARTCHAR 30A5
ENCODING 12453
SWIDTH 990 0
DWIDTH 33 0
BBX 19 22 7 -4
BITMAP
01C000
00E000
00F000
00E000
00E080
E0FFC0
7FE0E0
7C00C0
600180
600180
600180
600300
600300
600600
000600
000C00
001800
007000
007000
00E000
01C000
060000
ENDCHAR
STARTCHAR 30A6
ENCODING 12454
SWIDTH 990 0
DWIDTH 33 0
BBX 23 29 6 -3
BITMAP
01E000
00F800
007800
007000
007008
80707C
EFFFFE
7F800C
70001C
300018
300038
300030
300030
300060
300060
3000C0
3000C0
300180
200300
000300
000600
000C00
003800
007000
00E000
038000
038000
060000
180000
ENDCHAR
STARTCHAR 30A7
ENCODING 12455
SWIDTH 990 0
DWIDTH 33 0
BBX 25 16 4 -1
BITMAP
0800F000
0FFFF800
07B80000
021C0000
001C0000
001C0000
001C0000
00180000
00180000
00180000
00181E00
83FFFF80
FF800780
78000000
20000000
20000000
ENDCHAR
STARTCHAR 30A8
ENCODING 12456
SWIDTH 990 0
DWIDTH 33 0
BBX 31 18 1 4
BITMAP
00000400
04003F00
07FFFF80
03F40000
01070000
00038000
0003C000
0003C000
00038000
00038000
00038000
00038000
00030000
00030010
803FFFFC
7FFFFFFE
3FC0000E
18000000
ENDCHAR
STARTCHAR 30A9
ENCODING 12457
SWIDTH 990 0
DWIDTH 33 0
BBX 20 23 6 -3
BITMAP
007000
003800
003C00
003800
003800
0038E0
803FF0
FFF800
7C7800
00F800
00E800
018800
030800
060800
0C0800
180800
300C00
C00C00
00FC00
007C00
007C00
003C00
003800
ENDCHAR
STARTCHAR 30AA
ENCODING 12458
SWIDTH 990 0
DWIDTH 33 0
BBX 25 28 4 -3
BITMAP
00030000
001F8000
0003C000
00018000
00018000
00018000
00018200
4001BF80
607FFF80
3FFF8000
1F0F8000
001D8000
003D8000
00398000
00798000
00618000
00C18000
01818000
03018000
06018000
0C018000
30218000
C01D8000
000FC000
0003C000
0003C000
00038000
00018000
ENDCHAR
STARTCHAR 30AB
ENCODING 12459
SWIDTH 990 0
DWIDTH 33 0
BBX 25 27 3 -1
BITMAP
000E0000
00078000
0007C000
00078000
00078000
00070000
00070200
000E0F00
207FFF80
3FFF0380
1F8E0380
081C0300
001C0300
00300700
00300600
00600600
00600600
00C00E00
01800C00
01000C00
030C1800
06061800
0C073000
1801F000
2001E000
C000C000
C000C000
ENDCHAR
STARTCHAR 30AC
ENCODING 12460
SWIDTH 990 0
DWIDTH 33 0
BBX 31 29 2 -1
BITMAP
00000020
00000018
000E000C
0007810E
0007C0C6
00078060
00078070
00070030
00070200
000E0F00
207FFF80
3FFF0380
1F8E0380
08180300
00180300
00300700
00300600
00600600
00600600
00C00E00
01800C00
01000C00
03081800
06061800
0C073000
1803F000
2003E000
C000C000
C000C000
ENDCHAR
STARTCHAR 30AD
ENCODING 12461
SWIDTH 990 0
DWIDTH 33 0
BBX 29 30 2 -3
BITMAP
00600000
00F00000
00780000
00300000
00300000
00380C00
00183E00
001BFE00
103F8000
1FF80000
0FCE0000
020E0000
00060000
000703F0
00071FF8
00037F00
001FC000
C3FB8000
7FC38000
3E008000
1000C000
0000C000
00006000
00006000
00006000
00007000
00003000
00003000
00003000
00003000
ENDCHAR
STARTCHAR 30AE
ENCODING 12462
SWIDTH 990 0
DWIDTH 33 0
BBX 31 31 2 -3
BITMAP
00000020
00600018
00F0000C
0078010E
003000C6
00300060
00380C70
00183E30
001BFE00
103F8000
1FF80000
0FCE0000
020E0000
00060000
000703F0
00071FF8
00037F00
001FC000
C3FB8000
7FC38000
3E008000
1000C000
0000C000
00006000
00006000
00006000
00007000
00003000
00003000
00003000
00003000
ENDCHAR
STARTCHAR 30AF
ENCODING 12463
SWIDTH 990 0
DWIDTH 33 0
BBX 25 26 4 -1
BITMAP
00380000
001E0000
001E0000
001C0E00
003FFF00
003B8780
00780700
00E00E00
01C01C00
03801800
07003000
0C007000
18006000
6000C000
00018000
00030000
000E0000
001C0000
00380000
00600000
01C00000
03000000
06000000
18000000
E0000000
E0000000
ENDCHAR
STARTCHAR 30B0
ENCODING 12464
SWIDTH 990 0
DWIDTH 33 0
BBX 31 29 2 -1
BITMAP
00000020
00000018
0000000C
0030010E
001E00C6
001E0060
00180E70
003FFF30
00378780
00700700
00E00E00
01C01C00
03801800
07003000
0C007000
18006000
6000C000
00038000
00070000
000E0000
00180000
00300000
00600000
01C00000
03000000
06000000
18000000
E0000000
E0000000
ENDCHAR
STARTCHAR 30B1
ENCODING 12465
SWIDTH 990 0
DWIDTH 33 0
BBX 26 27 3 -2
BITMAP
03000000
01C00000
00E00000
00E00000
00C00000
01C00000
01801F80
031FFFC0
03FF81C0
0601C000
0601E000
0C01C000
18018000
30018000
60070000
80070000
000E0000
000E0000
001C0000
001C0000
00300000
00600000
00C00000
01800000
02000000
02000000
0C000000
ENDCHAR
STARTCHAR 30B2
ENCODING 12466
SWIDTH 990 0
DWIDTH 33 0
BBX 30 30 2 -2
BITMAP
00000040
00000030
00000018
0300021C
01C0018C
00E000C0
00E000E0
00C00060
01C00000
01801F80
031FFFC0
03FF81C0
0603C000
0603E000
0C03C000
18038000
30038000
60070000
80070000
000E0000
000E0000
00180000
00180000
00300000
00600000
00C00000
01800000
02000000
02000000
0C000000
ENDCHAR
STARTCHAR 30B3
ENCODING 12467
SWIDTH 990 0
DWIDTH 33 0
BBX 23 16 4 4
BITMAP
800038
7FFFFC
3FF81E
1C001C
000018
000018
000030
000030
000030
000060
000060
000060
8000C0
C7FFF0
7FFFF8
380000
ENDCHAR
STARTCHAR 30B4
ENCODING 12468
SWIDTH 990 0
DWIDTH 33 0
BBX 29 24 4 4
BITMAP
00000080
00000060
00000030
00000438
00000318
00000180
000001C0
000000C0
80003800
7FFFFC00
3FF81E00
1C001C00
00001800
00001800
00003000
00003000
00003000
00006000
00006000
00006000
8000C000
C7FFF000
7FFFF800
38000000
ENDCHAR
STARTCHAR 30B5
ENCODING 12469
SWIDTH 990 0
DWIDTH 33 0
BBX 32 29 0 -3
BITMAP
0000F000
00003C00
00001E00
00C00C00
00700C00
00380C00
00380C00
00300C00
00300CFE
8037FFFF
7FFE0C07
3FB00C00
08300C00
00300C00
00301C00
00301800
00301800
00301800
00303000
00203000
00003000
0000E000
0000C000
0001C000
00038000
00020000
00020000
00040000
00080000
ENDCHAR
STARTCHAR 30B6
ENCODING 12470
SWIDTH 990 0
DWIDTH 33 0
BBX 33 31 0 -3
BITMAP
0000000800
0000000600
0000F00300
00003C4380
00001E3180
00C00C1800
00700C1C00
00380C0C00
00380C0000
00300C0000
00300CFE00
8037FFFF00
7FFE0C0700
3FB00C0000
08300C0000
00300C0000
00301C0000
0030180000
0030180000
0030180000
0030300000
0020300000
0000300000
0000E00000
0000C00000
0001C00000
0003800000
0002000000
0002000000
0004000000
0008000000
ENDCHAR
STARTCHAR 30B7
ENCODING 12471
SWIDTH 990 0
DWIDTH 33 0
BBX 25 24 3 -1
BITMAP
07000000
01C00000
00E00000
00700000
00300080
00000080
E0000100
38000200
1C000600
0E000C00
06001800
00003000
00006000
0000C000
00018000
000F0000
001E0000
00700000
41E00000
6F800000
3F000000
1C000000
08000000
08000000
ENDCHAR
STARTCHAR 30B8
ENCODING 12472
SWIDTH 990 0
DWIDTH 33 0
BBX 29 29 3 -1
BITMAP
00000080
00000060
00000030
00000438
00000318
07000180
01C001C0
00E000C0
00700000
00300000
00000080
E0000100
38000200
1C000600
0E000C00
06001800
06003000
00006000
0000C000
00018000
000F0000
001E0000
00700000
41E00000
6F800000
3F000000
1C000000
08000000
08000000
ENDCHAR
STARTCHAR 30B9
ENCODING 12473
SWIDTH 990 0
DWIDTH 33 0
BBX 24 21 4 1
BITMAP
000040
2003E0
3FFFF0
1FC0E0
0C00C0
0001C0
000180
000380
000300
000E00
001C00
001E00
003980
0060C0
00C060
018030
030018
06000C
1C000E
300007
C00007
ENDCHAR
STARTCHAR 30BA
ENCODING 12474
SWIDTH 990 0
DWIDTH 33 0
BBX 28 27 4 1
BITMAP
00000100
000000C0
00000060
00000870
00000630
00000300
00004380
2003E180
3FFFF000
1FC0E000
0C00C000
0001C000
00018000
00038000
00030000
000E0000
001C0000
001E0000
00398000
0060C000
00C06000
01803000
03001800
06000C00
1C000E00
30000700
C0000700
ENDCHAR
STARTCHAR 30BB
ENCODING 12475
SWIDTH 990 0
DWIDTH 33 0
BBX 26 23 2 2
BITMAP
00C00000
00700000
00380000
00380000
00300400
00301E00
0030FF00
0037E380
007E03C0
81F00600
DFB00C00
7C301800
30302000
00300000
00300000
00300000
00300000
00300000
00300000
00300000
00180180
001FFF80
0007FF00
ENDCHAR
STARTCHAR 30BC
ENCODING 12476
SWIDTH 990 0
DWIDTH 33 0
BBX 31 26 2 2
BITMAP
00000020
00000018
0000000C
00C0010E
007000C6
00380060
00380070
00300430
00301E00
0030FF00
0037E380
007E03C0
81F00600
DFB00C00
7C301800
30302000
00300000
00300000
00300000
00300000
00300000
00300000
00300000
00180180
001FFF80
0007FF00
ENDCHAR
STARTCHAR 30BD
ENCODING 12477
SWIDTH 990 0
DWIDTH 33 0
BBX 21 23 6 -1
BITMAP
0000C0
000070
800038
400030
600070
300060
1800E0
1C00C0
0C0180
0C0180
000300
000700
000600
000C00
003800
007000
00E000
018000
030000
060000
180000
600000
600000
ENDCHAR
STARTCHAR 30BE
ENCODING 12478
SWIDTH 990 0
DWIDTH 33 0
BBX 28 29 5 -1
BITMAP
00000100
000000C0
00000060
00000870
00000630
00000300
0000C380
00007180
80003800
40003000
60007000
30006000
1800E000
1C00C000
0C018000
0C018000
00030000
00070000
00060000
001C0000
00380000
00700000
00C00000
01800000
03000000
06000000
18000000
60000000
60000000
ENDCHAR
STARTCHAR 30BF
ENCODING 12479
SWIDTH 990 0
DWIDTH 33 0
BBX 25 27 2 -2
BITMAP
00F00000
00380000
00380400
00300E00
007FFF00
006F8F80
00E00E00
00C01C00
01801800
03003800
06603000
04186000
080EE000
1007C000
20038000
0007C000
000F6000
001E7000
00383000
00603800
00C01800
03800000
06000000
0C000000
30000000
30000000
C0000000
ENDCHAR
STARTCHAR 30C0
ENCODING 12480
SWIDTH 990 0
DWIDTH 33 0
BBX 32 30 1 -2
BITMAP
00000010
0000000C
00000006
00F00087
00380063
00380430
00300E38
007FFF18
006F8F80
00E00E00
00C01C00
01801800
03003800
06603000
04186000
080DE000
1007C000
20038000
0007C000
000F6000
001C7000
00383000
00603800
00C01800
03800000
06000000
0C000000
30000000
30000000
C0000000
ENDCHAR
STARTCHAR 30C1
ENCODING 12481
SWIDTH 990 0
DWIDTH 33 0
BBX 30 29 1 -3
BITMAP
00001000
00003800
00007E00
0003F000
000F8000
007F0000
07C78000
0003C000
00038000
00038020
00038FF8
807FFFFC
7FE38000
3E038000
10038000
00070000
00070000
00070000
000C0000
000C0000
00180000
00180000
00300000
00600000
00C00000
01800000
01800000
03000000
0C000000
ENDCHAR
STARTCHAR 30C2
ENCODING 12482
SWIDTH 990 0
DWIDTH 33 0
BBX 32 31 1 -3
BITMAP
00000010
0000000C
00001006
00003887
00007E63
0003F030
000F8038
007F0018
07C78000
0003C000
00038000
00038020
00038FF8
807FFFFC
7FE38000
3E038000
10038000
00070000
00070000
00070000
000C0000
000C0000
00180000
00180000
00300000
00600000
00C00000
01800000
01800000
03000000
0C000000
ENDCHAR
STARTCHAR 30C3
ENCODING 12483
SWIDTH 990 0
DWIDTH 33 0
BBX 20 19 7 -2
BITMAP
020000
01C040
00E060
80F070
607060
3000E0
3800E0
1801C0
000180
000380
000700
000600
000C00
001800
007000
00E000
030000
030000
0C0000
ENDCHAR
STARTCHAR 30C4
ENCODING 12484
SWIDTH 990 0
DWIDTH 33 0
BBX 25 24 4 -1
BITMAP
01000000
00C00400
00600600
00380300
803C0380
601C0700
301C0600
38000E00
18000C00
1C001800
0C001800
00003000
00006000
00006000
0000C000
00018000
00030000
000E0000
001C0000
00780000
00C00000
03000000
0C000000
0C000000
ENDCHAR
STARTCHAR 30C5
ENCODING 12485
SWIDTH 990 0
DWIDTH 33 0
BBX 30 29 3 -1
BITMAP
00000040
00000030
00000018
0000021C
0000018C
010000C0
00C000E0
00600060
00300600
803C0300
601C0780
301C0600
38000E00
18000C00
1C001800
0C001800
00003000
00006000
00006000
0000C000
00018000
00070000
000E0000
001C0000
00700000
00C00000
03000000
0C000000
0C000000
ENDCHAR
STARTCHAR 30C6
ENCODING 12486
SWIDTH 990 0
DWIDTH 33 0
BBX 25 28 3 -3
BITMAP
0007C000
047FE000
03FC0000
00C00000
00000000
00000000
00000000
0000FF00
807FFF80
FFEC0380
7E0E0000
200F8000
000F0000
000E0000
001C0000
001C0000
001C0000
00300000
00300000
00600000
00600000
00C00000
01800000
03000000
06000000
06000000
08000000
30000000
ENDCHAR
STARTCHAR 30C7
ENCODING 12487
SWIDTH 990 0
DWIDTH 33 0
BBX 30 31 3 -3
BITMAP
00000040
00000030
00000018
0007C21C
047FE18C
03FC00C0
00C000E0
00000060
00000000
00000000
0000FF00
807FFF80
FFEC0380
7E0E0000
200F8000
000F0000
000E0000
001C0000
001C0000
001C0000
00300000
00300000
00600000
00600000
00C00000
01800000
03000000
06000000
06000000
08000000
30000000
ENDCHAR
STARTCHAR 30C8
ENCODING 12488
SWIDTH 990 0
DWIDTH 33 0
BBX 15 31 11 -4
BITMAP
7000
FC00
3C00
3C00
3000
3000
3000
3000
3000
3000
3000
3F00
31C0
3070
3038
301C
300E
3006
3000
3000
3000
3000
3000
3000
3000
3000
7000
7000
7000
3000
3000
ENDCHAR
STARTCHAR 30C9
ENCODING 12489
SWIDTH 990 0
DWIDTH 33 0
BBX 20 32 10 -4
BITMAP
000100
7000C0
F80060
380870
380630
300300
300380
300180
300000
300000
300000
300000
3F0000
33C000
307000
303800
301C00
300E00
300600
300000
300000
300000
300000
300000
300000
300000
300000
700000
700000
700000
300000
300000
ENDCHAR
STARTCHAR 30CA
ENCODING 12490
SWIDTH 990 0
DWIDTH 33 0
BBX 28 28 3 -2
BITMAP
001E0000
00078000
0007C000
00078000
00070000
00070000
00070000
00070040
80073FE0
FFFFFFF0
7FC70000
30070000
000F0000
000E0000
000E0000
000E0000
001C0000
001C0000
001C0000
00300000
00200000
00600000
00C00000
00800000
01000000
02000000
02000000
04000000
ENDCHAR
STARTCHAR 30CB
ENCODING 12491
SWIDTH 990 0
DWIDTH 33 0
BBX 27 14 3 6
BITMAP
0407FC00
07FFFC00
03FC0000
00000000
00000000
00000000
00000000
00000000
00000000
00000000
8000FFC0
FFFFFFE0
7FFE01E0
30000000
ENDCHAR
STARTCHAR 30CC
ENCODING 12492
SWIDTH 990 0
DWIDTH 33 0
BBX 24 22 2 1
BITMAP
00001C
0400FE
07FFEE
03F80C
018018
000038
000030
000070
038060
0070C0
001FC0
000780
000EE0
001E38
00381C
00600E
00C007
038007
060000
0C0000
300000
C00000
ENDCHAR
STARTCHAR 30CD
ENCODING 12493
SWIDTH 990 0
DWIDTH 33 0
BBX 27 30 2 -3
BITMAP
00200000
00180000
000F0000
0007C000
0003C000
0000C000
00000000
00000000
00078000
10FFE000
1FF3C000
0F838000
04078000
000F0000
000E2000
001F1800
00378600
00670380
00C701C0
018300E0
07030060
0C030000
30070000
C0070000
00070000
00070000
00070000
00070000
00070000
00070000
ENDCHAR
STARTCHAR 30CE
ENCODING 12494
SWIDTH 990 0
DWIDTH 33 0
BBX 19 24 6 -1
BITMAP
000780
0001C0
0001E0
0001C0
000180
000380
000300
000700
000600
000E00
000C00
003800
007000
007000
00E000
018000
030000
070000
0C0000
180000
300000
400000
800000
800000
ENDCHAR
STARTCHAR 30CF
ENCODING 12495
SWIDTH 990 0
DWIDTH 33 0
BBX 29 14 0 5
BITMAP
00E00800
00700600
00780300
00E00180
00C000C0
01C000E0
03800060
03000070
06000030
0C000038
18000018
30000018
60000000
80000000
ENDCHAR
STARTCHAR 30D0
ENCODING 12496
SWIDTH 990 0
DWIDTH 33 0
BBX 32 22 0 5
BITMAP
00000010
0000000C
00000006
00000007
00000083
00000060
00000030
00000038
00E00818
00700600
00780300
00E00180
00C000C0
01C000E0
03800060
03000070
06000030
0C000038
18000018
30000018
60000000
80000000
ENDCHAR
STARTCHAR 30D1
ENCODING 12497
SWIDTH 990 0
DWIDTH 33 0
BBX 31 21 0 5
BITMAP
00000038
00000044
00000082
00000082
00000082
00000044
00000038
00E00800
00700600
00780300
00E00180
00C000C0
01C000E0
03800060
03000070
06000030
0C000038
18000018
30000018
60000000
80000000
ENDCHAR
STARTCHAR 30D2
ENCODING 12498
SWIDTH 990 0
DWIDTH 33 0
BBX 20 22 6 1
BITMAP
F00000
3C0000
1C0000
180000
180600
180180
1803C0
1807C0
180E00
187800
19E000
1E0000
180000
180000
180000
180000
180000
180000
180000
1C0070
0FFFF0
03FFC0
ENDCHAR
STARTCHAR 30D3
ENCODING 12499
SWIDTH 990 0
DWIDTH 33 0
BBX 25 27 6 1
BITMAP
00000800
00000600
00000300
00004380
00003180
F0001800
3C001C00
1C000C00
18000000
18060000
18018000
1803C000
1807C000
180E0000
18780000
19E00000
1E000000
18000000
18000000
18000000
18000000
18000000
18000000
18000000
1C007000
0FFFF000
03FFC000
ENDCHAR
STARTCHAR 30D4
ENCODING 12500
SWIDTH 990 0
DWIDTH 33 0
BBX 24 26 6 1
BITMAP
00001C
000022
000041
000041
F00041
3C0022
1C001C
180000
180600
180180
1803C0
1807C0
180E00
187800
19E000
1E0000
180000
180000
180000
180000
180000
180000
180000
1C0070
0FFFF0
03FFC0
ENDCHAR
STARTCHAR 30D5
ENCODING 12501
SWIDTH 990 0
DWIDTH 33 0
BBX 24 24 3 -1
BITMAP
000038
801FFC
FFFE0E
7F800F
38001C
000018
000038
000030
000070
000060
0000C0
000180
000700
000700
000E00
001C00
003000
006000
00C000
018000
030000
040000
180000
180000
ENDCHAR
STARTCHAR 30D6
ENCODING 12502
SWIDTH 990 0
DWIDTH 33 0
BBX 31 29 2 -1
BITMAP
00000020
00000018
0000000C
0000010E
000000C6
00003860
801FFC70
FFFE0E30
7F800F00
38001C00
00001800
00003800
00003000
00007000
00006000
0000C000
00038000
00070000
00070000
000E0000
00180000
00300000
00600000
00C00000
01800000
03000000
04000000
18000000
18000000
ENDCHAR
STARTCHAR 30D7
ENCODING 12503
SWIDTH 990 0
DWIDTH 33 0
BBX 30 29 2 -1
BITMAP
00000070
00000088
00000104
00000104
00000104
00003888
801FFC70
FFFE0E00
7F800F00
38001C00
00001800
00003800
00003000
00007000
00006000
0000C000
00038000
00070000
00070000
000E0000
00180000
00300000
00600000
00C00000
01800000
03000000
04000000
18000000
18000000
ENDCHAR
STARTCHAR 30D8
ENCODING 12504
SWIDTH 990 0
DWIDTH 33 0
BBX 31 12 1 6
BITMAP
00380000
006C0000
00C70000
0183C000
07006000
8E003800
FC000E00
78000780
300001E0
000000FC
0000003E
0000000C
ENDCHAR
STARTCHAR 30D9
ENCODING 12505
SWIDTH 990 0
DWIDTH 33 0
BBX 31 19 1 6
BITMAP
00000200
00000180
000000C0
000010E0
00000C60
00000600
00000700
00380300
006C0000
00C70000
0183C000
07006000
8E003800
FC000E00
78000780
300001E0
000000FC
0000003E
0000000C
ENDCHAR
STARTCHAR 30DA
ENCODING 12506
SWIDTH 990 0
DWIDTH 33 0
BBX 31 19 1 6
BITMAP
00000380
00000440
00000820
00000820
00000820
00000440
00000380
00380000
006C0000
00C70000
0183C000
07006000
8E003800
FC000E00
78000780
300001E0
000000FC
0000003E
0000000C
ENDCHAR
STARTCHAR 30DB
ENCODING 12507
SWIDTH 990 0
DWIDTH 33 0
BBX 28 25 3 -1
BITMAP
003E0000
001F0000
000F0000
000E0000
000E0000
000E0180
800E0FE0
FFFFFFF0
7FCE0000
300E0000
000E0000
000E0000
040E0800
040E0600
0C0E0300
180E0180
380E01C0
700E00E0
F06E00E0
C03E0060
001E0000
001F0000
000E0000
000C0000
000C0000
ENDCHAR
STARTCHAR 30DC
ENCODING 12508
SWIDTH 990 0
DWIDTH 33 0
BBX 30 29 3 -1
BITMAP
00000040
00000030
00000018
0000021C
003E018C
001F00C0
000F00E0
000E0060
000E0000
000E0180
800E0FE0
FFFFFFF0
7FCE0000
300E0000
000E0000
000E0000
040E0800
040E0600
0C0E0300
180E0180
380E01C0
700E00E0
F06E00E0
C03E0060
001E0000
001F0000
000E0000
000C0000
000C0000
ENDCHAR
STARTCHAR 30DD
ENCODING 12509
SWIDTH 990 0
DWIDTH 33 0
BBX 29 29 3 -1
BITMAP
000000E0
00000110
00000208
00000208
003E0208
001F0110
000F00E0
000E0000
000E0000
000E0180
800E0FE0
FFFFFFF0
7FCE0000
300E0000
000E0000
000E0000
040E0800
040E0600
0C0E0300
180E0180
380E01C0
700E00E0
F06E00E0
C03E0060
001E0000
001F0000
000E0000
000C0000
000C0000
ENDCHAR
STARTCHAR 30DE
ENCODING 12510
SWIDTH 990 0
DWIDTH 33 0
BBX 27 16 2 4
BITMAP
00000F00
801FFF80
FFFE01C0
7F8003E0
38000700
00000E00
00001800
00003000
00602000
00184000
000F8000
00078000
0003C000
0000E000
0000E000
00006000
ENDCHAR
STARTCHAR 30DF
ENCODING 12511
SWIDTH 990 0
DWIDTH 33 0
BBX 15 24 9 1
BITMAP
3F00
03E0
0078
003C
001C
0000
0000
F800
1F80
07E0
01F0
0060
0000
0000
0000
0000
F000
1F00
07C0
01E0
0078
003C
001E
000C
ENDCHAR
STARTCHAR 30E0
ENCODING 12512
SWIDTH 990 0
DWIDTH 33 0
BBX 25 21 3 3
BITMAP
00400000
00300000
003C0000
003E0000
00300000
00600000
00600000
00C00000
00C00000
00800000
01804000
01003000
03001800
02000C00
02003E00
0401C700
043F0300
8BF00380
FF800180
7C000180
30000000
ENDCHAR
STARTCHAR 30E1
ENCODING 12513
SWIDTH 990 0
DWIDTH 33 0
BBX 21 23 3 1
BITMAP
000060
000030
000038
000038
000070
000060
0180E0
0060C0
0031C0
001F80
000F00
000F80
001DC0
003CE0
003060
006070
00C030
018030
030000
0E0000
180000
300000
C00000
ENDCHAR
STARTCHAR 30E2
ENCODING 12514
SWIDTH 990 0
DWIDTH 33 0
BBX 29 21 1 1
BITMAP
00001E00
0403FE00
07FFE000
03E80000
000C0000
000F0000
000F0000
000C0060
000C07F8
000FFFF8
81FF0000
FFCC0000
7C0C0000
200C0000
000C0000
000C0000
000C0000
00070000
00078040
0003FFE0
00007FE0
ENDCHAR
STARTCHAR 30E3
ENCODING 12515
SWIDTH 990 0
DWIDTH 33 0
BBX 23 24 5 -3
BITMAP
010000
03C000
01C000
00C000
00C03C
00C1FE
007E0E
83F01C
FE3010
703020
203840
003800
001800
001C00
000400
000400
000600
000600
000600
000300
000300
000300
000380
000180
ENDCHAR
STARTCHAR 30E4
ENCODING 12516
SWIDTH 990 0
DWIDTH 33 0
BBX 30 28 1 -4
BITMAP
00300000
00F00000
00700000
00380000
001801C0
00181FF0
001BF07C
003F0078
83EC00E0
FF0C0180
7C040300
10070400
00070800
00030000
00038000
00038000
00018000
0001C000
0001C000
0001C000
00006000
00006000
00006000
00007000
00007000
00003000
00003000
00003000
ENDCHAR
STARTCHAR 30E5
ENCODING 12517
SWIDTH 990 0
DWIDTH 33 0
BBX 25 13 4 1
BITMAP
00038000
0C7FE000
07C1C000
03018000
00018000
00018000
00018000
00018000
00010000
00030000
8003FF00
FFFFFF80
7C000000
ENDCHAR
STARTCHAR 30E6
ENCODING 12518
SWIDTH 990 0
DWIDTH 33 0
BBX 31 16 1 4
BITMAP
00001800
0201FC00
03FFFE00
01F81C00
00C01800
00001000
00003000
00003000
00003000
00002000
00006000
00006000
80004018
E00FFFFC
7FFFC0FE
3F000006
ENDCHAR
STARTCHAR 30E7
ENCODING 12519
SWIDTH 990 0
DWIDTH 33 0
BBX 17 16 8 1
BITMAP
000600
80FF00
FFC380
700300
000300
000300
000300
C3FF00
7E0600
300600
000600
000600
800600
C3FE00
7E0600
300600
ENDCHAR
STARTCHAR 30E8
ENCODING 12520
SWIDTH 990 0
DWIDTH 33 0
BBX 21 20 6 3
BITMAP
000040
0000E0
80FFF0
FFF038
7C0038
200030
000030
000030
0000F0
60FFF0
3FF830
1C0030
000060
000060
000060
000060
400FE0
7FFF60
3E0060
100060
ENDCHAR
STARTCHAR 30E9
ENCODING 12521
SWIDTH 990 0
DWIDTH 33 0
BBX 22 26 6 -2
BITMAP
107F80
1FFF80
0F8000
000000
000000
000000
0000F0
80FFF8
FFF83C
7F0038
300070
0000E0
0000C0
000180
000300
000300
000600
000C00
003800
007000
00E000
018000
030000
0C0000
0C0000
300000
ENDCHAR
STARTCHAR 30EA
ENCODING 12522
SWIDTH 990 0
DWIDTH 33 0
BBX 15 29 9 -4
BITMAP
0038
001E
F00E
780E
380C
300C
300C
300C
300C
300C
300C
300C
3018
3018
3018
3818
3030
1030
0060
0060
01C0
0180
0380
0700
0400
0400
0800
1000
6000
ENDCHAR
STARTCHAR 30EB
ENCODING 12523
SWIDTH 990 0
DWIDTH 33 0
BBX 30 18 1 2
BITMAP
01C3C000
0061E004
0061E004
00E1C008
00C1C008
00C1C010
00C1C030
0181C060
0181C0C0
0301C180
0201C300
0601CE00
0C03FC00
0801F800
10006000
20004000
40000000
80000000
ENDCHAR
STARTCHAR 30EC
ENCODING 12524
SWIDTH 990 0
DWIDTH 33 0
BBX 25 18 5 3
BITMAP
E0000000
70000000
38000000
38000080
30000100
30000600
30000C00
30001800
30007000
3000C000
30038000
301E0000
303C0000
30F00000
37C00000
FF000000
7C000000
30000000
ENDCHAR
STARTCHAR 30ED
ENCODING 12525
SWIDTH 990 0
DWIDTH 33 0
BBX 21 17 5 3
BITMAP
E001E0
707FF0
3FC038
300038
300070
300060
300060
180060
180060
1800C0
1800C0
1800C0
1801E0
1FFFF0
1C0000
180000
180000
ENDCHAR
STARTCHAR 30EE
ENCODING 12526
SWIDTH 990 0
DWIDTH 33 0
BBX 19 20 7 -3
BITMAP
800180
C01FC0
7FF8E0
7E01C0
600180
600180
600300
600300
600300
600600
400600
000C00
000C00
001800
007000
00E000
01C000
01C000
030000
0C0000
ENDCHAR
STARTCHAR 30EF
ENCODING 12527
SWIDTH 990 0
DWIDTH 33 0
BBX 23 25 5 -2
BITMAP
000078
C007FC
7FFF1E
7F801C
30001C
300018
300038
300030
300030
300060
300060
3000C0
3000C0
200180
000300
000300
000600
001C00
003800
003000
004000
008000
010000
010000
020000
ENDCHAR
STARTCHAR 30F0
ENCODING 12528
SWIDTH 990 0
DWIDTH 33 0
BBX 29 30 1 -4
BITMAP
0007C000
0003E000
0001E000
0001C000
0001C000
0001C200
0401FF80
07FFFF80
03FDC000
0081C000
00E1C000
00C1C000
00C1C000
00C1C000
0081C1E0
80FFFFF8
FFFDC078
7E01C000
3001C000
0001C000
0001C000
0001C000
0001C000
0001C000
0001C000
0003C000
0003C000
0003C000
0001C000
0001C000
ENDCHAR
STARTCHAR 30F1
ENCODING 12529
SWIDTH 990 0
DWIDTH 33 0
BBX 31 18 1 3
BITMAP
00000F00
080FF980
0FFF03C0
07C007E0
03000E00
00001800
001F2000
0007C000
0003C000
00038000
00038000
00038000
00038000
00030000
80070FF8
FFFFFFFE
7F80000E
30000000
ENDCHAR
STARTCHAR 30F2
ENCODING 12530
SWIDTH 990 0
DWIDTH 33 0
BBX 21 27 6 -3
BITMAP
000060
000030
000E38
41FF30
7FE070
3C0060
100060
0000C0
0000F8
003FF8
87F980
FF0380
780300
200600
000600
000C00
000C00
003800
007000
007000
00E000
018000
030000
060000
060000
0C0000
300000
ENDCHAR
STARTCHAR 30F3
ENCODING 12531
SWIDTH 990 0
DWIDTH 33 0
BBX 27 24 4 -1
BITMAP
20000000
18000000
0E000000
07000000
03000000
03800020
01800040
01800080
00000100
00000600
00000C00
00001800
00003000
00006000
0001C000
00038000
001E0000
003C0000
80E00000
47C00000
7F000000
3C000000
18000000
18000000
ENDCHAR
STARTCHAR 30F4
ENCODING 12532
SWIDTH 990 0
DWIDTH 33 0
BBX 29 31 4 -3
BITMAP
00000080
00000060
01C00030
00F80438
00780318
00600180
006009C0
80607CC0
EFFFFE00
7F800C00
70001C00
30001800
30003800
30003000
30003000
30006000
30006000
3000C000
3000C000
30018000
20030000
00030000
000E0000
001C0000
00380000
00600000
00C00000
03800000
03800000
06000000
18000000
ENDCHAR
STARTCHAR 30F5
ENCODING 12533
SWIDTH 990 0
DWIDTH 33 0
BBX 22 23 5 -2
BITMAP
001800
001E00
000700
000600
001C00
001C00
201C78
3FFFFC
1FBC18
083818
007010
007030
007030
00C030
018020
018060
030060
0630C0
0C1DC0
180780
300700
300700
C00600
ENDCHAR
STARTCHAR 30F6
ENCODING 12534
SWIDTH 990 0
DWIDTH 33 0
BBX 21 23 7 -4
BITMAP
060000
030000
03C000
070000
060000
0C01F0
0FFFF8
19D800
180C00
300C00
601800
801800
007000
007000
00E000
00C000
01C000
030000
060000
060000
0C0000
180000
600000
ENDCHAR
STARTCHAR 30FB
ENCODING 12539
SWIDTH 990 0
DWIDTH 33 0
BBX 5 4 14 10
BITMAP
70
F8
F8
70
ENDCHAR
STARTCHAR 30FC
ENCODING 12540
SWIDTH 990 0
DWIDTH 33 0
BBX 31 4 1 10
BITMAP
80000000
7FFFFFFC
3FFFFFFE
18000000
ENDCHAR
STARTCHAR 30FD
ENCODING 12541
SWIDTH 990 0
DWIDTH 33 0
BBX 12 11 9 7
BITMAP
8000
6000
1800
0C00
0780
03C0
01E0
01E0
0070
0030
0030
ENDCHAR
STARTCHAR 30FE
ENCODING 12542
SWIDTH 990 0
DWIDTH 33 0
BBX 17 17 9 7
BITMAP
000800
000600
000300
004180
003180
001800
800C00
600C00
180000
0C0000
078000
03C000
01E000
01E000
007000
003000
003000
ENDCHAR
STARTCHAR 3231
ENCODING 12849
SWIDTH 990 0
DWIDTH 33 0
BBX 31 33 1 -5
BITMAP
04000040
08000020
10000010
10E00E10
30C18C18
20C1EC08
60C1CD8C
60D9FFCC
6FFDCC0C
60C18C0C
C1C18C06
C1E30CC6
C1D7FFE6
C1D83E06
C3CC3E06
C2CC2D06
C2C02D06
C4C06D86
C4C06C86
C8C04CC6
D0C1CC76
C0C18C66
60C30C2C
60C40C0C
60C00C0C
60C00C0C
20C00C08
30C00C18
30C00C18
10C00C10
10000010
08000020
04000040
ENDCHAR
STARTCHAR 3232
ENCODING 12850
SWIDTH 990 0
DWIDTH 33 0
BBX 31 33 1 -5
BITMAP
04000040
08000020
10000010
10078010
30070018
20070008
6007018C
63FFFFCC
600C000C
600C000C
C0180006
C0180C06
C03FFE06
C0300C06
C0700C06
C0B00C06
C13FFC06
C2300C06
C4300C06
C0300C06
C03FFC06
C0300C06
60300C0C
60300C0C
60300C0C
60300C0C
20300C08
30307C18
30307C18
10301810
10000010
08000020
04000040
ENDCHAR
STARTCHAR 3239
ENCODING 12857
SWIDTH 990 0
DWIDTH 33 0
BBX 31 33 1 -5
BITMAP
04000040
08000020
10000010
10407010
30706C18
20606608
6060630C
6060630C
60C0600C
60C060CC
C0FFFFE6
C1806006
C1806006
C3806006
C3806006
C5806006
C9803006
C1803006
C1803006
C1803006
C1803006
C1801906
6180190C
6180190C
61800D0C
61800F0C
21800708
31800398
31800398
11800190
10000010
08000020
04000040
ENDCHAR
STARTCHAR 32A4
ENCODING 12964
SWIDTH 990 0
DWIDTH 33 0
BBX 31 31 1 -4
BITMAP
000FE000
00701C00
01800300
02000080
04000040
0803C020
10038010
20038008
20038008
40038004
40038004
40038604
8003FF02
80038002
80038002
80038002
80038002
80038002
40038004
40038004
40038004
20038188
27FFFFC8
10000010
08000020
04000040
02000080
02000080
01800300
00701C00
000FE000
ENDCHAR
STARTCHAR 32A5
ENCODING 12965
SWIDTH 990 0
DWIDTH 33 0
BBX 31 31 1 -4
BITMAP
000FE000
00701C00
01800300
02000080
04000040
0803C020
10038010
20038008
20038008
41038304
41FFFF84
41838304
81838302
81838302
81838302
81838302
81FFFF02
81838302
40038004
40038004
40038004
20038008
20038008
10038010
08038020
04000040
02000080
02000080
01800300
00701C00
000FE000
ENDCHAR
STARTCHAR 32A6
ENCODING 12966
SWIDTH 990 0
DWIDTH 33 0
BBX 31 31 1 -4
BITMAP
000FE000
00701C00
01800300
02000080
04000040
08000020
10000190
27FFFFC8
20038008
40038004
40038004
4003E004
80039802
80038E02
80038702
80038302
80038002
80038002
40038004
40038004
40038004
20038008
20038008
10038010
08038020
04000040
02000080
02000080
01800300
00701C00
000FE000
ENDCHAR
STARTCHAR 32A7
ENCODING 12967
SWIDTH 990 0
DWIDTH 33 0
BBX 31 31 1 -4
BITMAP
000FE000
00701C00
01800300
02000080
04000040
08078020
10070010
20070008
20070188
43FFFFC4
400C0004
400C0004
80180002
80180002
80300C02
807FFE02
80C38002
81038002
46038004
40038004
40038004
20038308
21FFFF88
10000010
08000020
04000040
02000080
02000080
01800300
00701C00
000FE000
ENDCHAR
STARTCHAR 32A8
ENCODING 12968
SWIDTH 990 0
DWIDTH 33 0
BBX 31 31 1 -4
BITMAP
000FE000
00701C00
01800300
02000080
04000040
08078020
10070010
20070008
20070188
43FFFFC4
400C0004
400C0004
80180002
80180002
80300C02
807FFE02
80B00C02
81300C02
46300C04
40300C04
40300C04
20300C08
203FFC08
10300C10
08000020
04000040
02000080
02000080
01800300
00701C00
000FE000
ENDCHAR
STARTCHAR 3303
ENCODING 13059
SWIDTH 990 0
DWIDTH 33 0
BBX 31 31 1 -4
BITMAP
00080000
007C0000
87EF0000
7E1F0000
78380000
26600000
03830000
0303FFFC
0301FFFE
03004000
03000000
06000000
06000000
04000000
0C038000
0801C000
1061E000
2031C000
0039C000
0031C000
0031C020
0031C040
0031C080
0031C300
0061C600
0061DC00
00C3F800
00C3F800
0081E000
01004000
02000000
ENDCHAR
STARTCHAR 330D
ENCODING 13069
SWIDTH 990 0
DWIDTH 33 0
BBX 31 32 1 -4
BITMAP
0C000000
06000000
07000030
063061F8
87F83F9C
FF1C3018
76183018
26183018
0C181810
0C301830
0C301830
1A301830
11E01830
30E01FF0
20C01830
C0000000
00600000
30300000
18380000
1C300000
18300000
18318000
1831FFFC
18307FFE
10302000
00300000
00600000
00600000
00600000
00C00000
01800000
06000000
ENDCHAR
STARTCHAR 3314
ENCODING 13076
SWIDTH 990 0
DWIDTH 33 0
BBX 31 29 0 -2
BITMAP
1C000000
0E000000
0C000000
0E000000
06600000
06F00000
87800000
7E000000
3B000000
13000000
030C0000
017E0000
01F00004
8380303E
7E801FFE
38C0180C
10C0180C
00C0180C
00C0180C
00600C0C
00600C18
00600C18
00600C18
00600C18
00000C18
00000FF8
00000C18
00000C18
00000C00
ENDCHAR
STARTCHAR 3318
ENCODING 13080
SWIDTH 990 0
DWIDTH 33 0
BBX 30 32 1 -4
BITMAP
08040000
0E238000
0C19C1E0
0C6DFFF0
0FEC1C00
18600030
186303F8
10C1FF1C
20C07818
21802030
41800030
83000060
02000060
060000C0
0C000180
18070300
30038C00
6003C000
80038000
00038000
00038000
00070000
00070000
00042000
000C1000
00080C00
00080600
0011FF00
0011FF00
03FF8380
01E00180
01000180
ENDCHAR
STARTCHAR 3322
ENCODING 13090
SWIDTH 990 0
DWIDTH 33 0
BBX 32 33 0 -5
BITMAP
18000000
0C002000
0E001800
0C0C0F00
0C7E0700
0DEC0001
8E180002
FC100004
6C200018
0C00C070
0C0021C0
04003F80
06001E00
03F80800
00FC0000
00000800
00001E00
00003800
0003E000
003F8000
0001C000
0001CFC0
0207FFE0
01FDC000
00F1C000
00438000
00038000
00020000
00020000
00060000
00040000
00080000
00300000
ENDCHAR
STARTCHAR 3323
ENCODING 13091
SWIDTH 990 0
DWIDTH 33 0
BBX 31 31 1 -4
BITMAP
18004000
0C003000
0E001E00
0C180E00
0C7C0000
0DDC0002
8F10000C
FC200018
6C018070
2C0041C0
04007F80
06043E00
03FF1000
00FC0000
00000000
00070000
00038000
0003C000
00038000
00038000
0003C000
0003B800
00038E00
00038700
00038300
00038000
00038000
00038000
00038000
00038000
00038000
ENDCHAR
STARTCHAR 3326
ENCODING 13094
SWIDTH 990 0
DWIDTH 33 0
BBX 28 31 4 -4
BITMAP
C0200000
621C0000
718E0000
60CE0000
60C00000
60000000
60000000
7C000000
67000000
63800000
61C00000
60C00000
6000C000
60006000
60387000
601C6000
601E6000
601C6000
601C6000
001C6000
001C6010
001C6020
00386040
00386080
00206300
00606E00
0040FC00
0040FC00
00807000
01002000
02000000
ENDCHAR
STARTCHAR 3327
ENCODING 13095
SWIDTH 990 0
DWIDTH 33 0
BBX 28 29 4 -1
BITMAP
E0000000
30000000
38000000
30000000
30000000
30000000
30000000
3E000000
33C00000
30E00000
30600000
30000000
30000000
300C0000
30020000
30018000
3000F000
30007010
30000020
00000040
000000C0
00000180
00000300
00180E00
000C7800
000FF000
000FC000
00020000
00020000
ENDCHAR
STARTCHAR 332B
ENCODING 13099
SWIDTH 990 0
DWIDTH 33 0
BBX 32 31 0 -4
BITMAP
1803C000
0C042000
0E442000
0C242000
0C13C000
0C182000
0C0C3FFE
180C1FFF
180E0800
10060000
30060000
20060000
40000000
80000000
00000180
180000C0
0C0800E0
0E0600C0
0C63E0C0
0CF1E0C0
0F6000F0
9E4002CE
FC8004C7
6D0018C3
4C08F0C0
040FC0C0
060780C0
060780C0
03F200C0
01F000C0
000000C0
ENDCHAR
STARTCHAR 3336
ENCODING 13110
SWIDTH 990 0
DWIDTH 33 0
BBX 33 32 0 -4
BITMAP
0000010000
000001C000
0300018C00
068001FC00
0440030C00
0C20031800
0830061800
98180C3000
700C103000
700E006000
200600C000
0006018000
0000030000
0000060000
0000180000
0000000000
0800000000
0E0000C000
0C60006000
0FF00C7000
1860066000
18C0066000
34D0066000
679FE66080
838FF66100
03080C6200
06000C6C00
0C0008F800
0C0008F800
1800107000
3000202000
C000C00000
ENDCHAR
STARTCHAR 333B
ENCODING 13115
SWIDTH 990 0
DWIDTH 33 0
BBX 32 30 0 -3
BITMAP
000E0000
00118000
00118000
06118000
0D0E0000
08C02000
18603FFE
B0301FFF
70180800
600C0000
000E0000
00078000
00038000
00000000
00000100
001000C0
000C0860
00078660
00438300
00200300
003C0000
001C0000
00000100
00000600
00801800
0041F000
007FC000
007FC000
003E0000
00100000
ENDCHAR
STARTCHAR 3349
ENCODING 13129
SWIDTH 990 0
DWIDTH 33 0
BBX 29 31 1 -5
BITMAP
30000000
0E000000
03800000
01C00000
00E00000
00600000
000000E0
00004030
38003038
06001838
03801C30
01C01830
00C01830
00001830
00001830
00001830
E0001830
18001830
0E001830
03801030
01C00030
00E00060
00600060
00000060
000000C0
000000C0
000000C0
00000180
00000100
00000200
00000C00
ENDCHAR
STARTCHAR 334A
ENCODING 13130
SWIDTH 990 0
DWIDTH 33 0
BBX 32 32 0 -4
BITMAP
1E000060
03C03030
00F01838
00301C30
00001830
1C001830
03801830
01C01830
00C01830
00000030
00000060
38000060
07000040
01C000C0
00E00080
00600300
00100000
008C00C0
00660060
02360C70
31300660
19800660
18900660
18DFE660
18CFF661
18680C62
10600C6C
306008F8
306008F8
20601870
40601020
80002000
ENDCHAR
STARTCHAR 334D
ENCODING 13133
SWIDTH 990 0
DWIDTH 33 0
BBX 31 31 1 -4
BITMAP
00400000
00700000
00E00000
30C00000
0D800000
07030000
0383FFFC
06C1FFFE
0CE04000
08700000
10300000
20300000
C0000000
00000000
18000E00
0C000300
0E006380
0C003300
0C003300
0F003300
0CE03302
0C703304
0C306308
0C006330
0C01C360
0C0187C0
0C030380
0C030380
0C0C0100
0C000000
0C000000
ENDCHAR
STARTCHAR 3351
ENCODING 13137
SWIDTH 990 0
DWIDTH 33 0
BBX 29 31 3 -4
BITMAP
03800000
C0C00000
70E00000
60C00000
60C00000
60C04180
60C030C0
60C618E0
00C198C0
0180C180
0180C180
03000300
06000600
18000C00
00001800
30006000
18001800
1C000C00
18018E00
1800CC00
1E00CC00
1B80CC08
18E0CC10
1860CC20
18018CC0
18018D80
18071F00
18071F00
18060E00
180C0400
10100000
ENDCHAR
STARTCHAR 3357
ENCODING 13143
SWIDTH 990 0
DWIDTH 33 0
BBX 27 30 2 -4
BITMAP
00300000
C1F80000
7F9E0000
60182000
601818C0
60330C60
6030CC60
403060C0
006060C0
00600180
00C00180
01800300
03000600
0C181800
000E0000
000F0000
000E0000
000E0000
000E0000
000F8000
000EE000
000E3800
000E1C00
000E0C00
000E0000
000E0000
000E0000
000E0000
000E0000
00080000
ENDCHAR
STARTCHAR 337B
ENCODING 13179
SWIDTH 990 0
DWIDTH 33 0
BBX 33 29 0 -3
BITMAP
0000003800
000C003000
7FFE003600
0180003300
0180003300
2188003000
118E103300
198C1FFF80
198C183000
1998183000
1990183000
01A0183200
0186183380
FFFF99B300
01801FB300
018019B300
018019B600
018019B600
0180199600
0180199400
0180199C00
0180119C80
018011BC80
0180373500
0180236700
0180204700
0180204700
0180208380
0180C10180
ENDCHAR
STARTCHAR 337C
ENCODING 13180
SWIDTH 990 0
DWIDTH 33 0
BBX 33 29 0 -3
BITMAP
0006030000
03FF878000
00660E0000
8666FC0000
FF660C0000
C6660C4300
C6660C7F80
C6460D6300
C6C6FFE300
C6BC0C6300
C71C1C6300
FE181E6300
C6001D6300
C6001D6300
C68C3DE300
C6FE2D6300
C6CC2C6300
C6CC2C6300
FECCCC6300
C6CCCC6300
C6CD8C6300
C0CC0C7F00
00CC0C6300
00CC0C6300
00CC0C6000
00FC0C0000
00FC0C0000
00CC0C0000
00CC0C0000
ENDCHAR
STARTCHAR 337D
ENCODING 13181
SWIDTH 990 0
DWIDTH 33 0
BBX 33 29 0 -3
BITMAP
01C0000000
0180000600
01803FFF00
018000C000
018000C000
018600C000
FFFF80C000
018000C000
01800EC000
01800CC000
01800CC000
01800CCC00
03400CFE00
03400CC000
03400CC000
03400CC000
03400CC000
06200CC000
06200CC000
06200CC000
0C300CC000
0C100CC000
08180CC000
18180CC000
100C0CC000
200F8CC300
200F8CC300
4006FFFF80
8006000000
ENDCHAR
STARTCHAR 337E
ENCODING 13182
SWIDTH 990 0
DWIDTH 33 0
BBX 33 29 0 -3
BITMAP
0086C02000
00FFB03800
86C6183000
FEC61C3000
C6C60C3000
C6C7803000
C6C6E02800
C6C6326400
C6FE3A4600
C6C61A4300
FEC6048F00
C6C607F180
C6C605C180
C6C60D0180
C6C6080000
C6FE188600
C6C7F8FF00
FEC638C600
C6C638C600
C0C618C600
00C618C600
00C618C600
00C618C600
008618C600
018618C600
01061CFE00
01061CFE00
023E1CC600
040C0CC600
ENDCHAR
STARTCHAR 338E
ENCODING 13198
SWIDTH 990 0
DWIDTH 33 0
BBX 32 22 0 -3
BITMAP
00000007
0000000F
331803C8
F7BC0C30
39CC1818
318C1818
318C1818
318C1818
318C0C30
318C0BC0
318C1000
318C1000
318C1800
318C0FF8
318C07FE
318C0807
318C1003
318C1003
FBDF9006
FBDF9006
0000080C
000007F0
ENDCHAR
STARTCHAR 338F
ENCODING 13199
SWIDTH 990 0
DWIDTH 33 0
BBX 31 28 1 -3
BITMAP
30000000
F0000000
30000000
30000000
30000000
30000000
3000000E
3000001E
30000790
30FF1860
30103030
30203030
38403030
3C803030
35001860
36001780
33002000
31802000
31803000
30C01FF0
30600FFC
3030100E
30302006
30182006
FCFF200C
FCFF200C
00001018
00000FE0
ENDCHAR
STARTCHAR 339C
ENCODING 13212
SWIDTH 990 0
DWIDTH 33 0
BBX 33 18 0 -1
BITMAP
3318198C00
F7BCFBDE00
39CC1CE600
318C18C600
318C18C600
318C18C600
318C18C600
318C18C600
318C18C600
318C18C600
318C18C600
318C18C600
318C18C600
318C18C600
318C18C600
318C18C600
FBDFBDEF80
FBDFBDEF80
ENDCHAR
STARTCHAR 339D
ENCODING 13213
SWIDTH 990 0
DWIDTH 33 0
BBX 31 18 1 -1
BITMAP
07038C30
18CFBEF8
3073C718
60338618
60338618
C0038618
C0038618
C0038618
C0038618
C0038618
C0138618
C0138618
C0338618
60238618
60638618
30C38618
0F0FDFBE
0F0FDFBE
ENDCHAR
STARTCHAR 339E
ENCODING 13214
SWIDTH 990 0
DWIDTH 33 0
BBX 32 26 0 -1
BITMAP
30000000
F0000000
30000000
30000000
30000000
30000000
30000000
30000000
3001C618
30FFDF7C
3011E38C
3021C30C
3841C30C
3C81C30C
3501C30C
3601C30C
3301C30C
3181C30C
3181C30C
30C1C30C
3061C30C
3031C30C
3031C30C
3019C30C
FCFFF7DF
FCFFF7DF
ENDCHAR
STARTCHAR 33A1
ENCODING 13217
SWIDTH 990 0
DWIDTH 33 0
BBX 30 28 1 -1
BITMAP
00000070
00000088
0000018C
0000018C
00000018
00000030
00000060
00000084
00000084
000001FC
18F03DFC
7B39CE00
1C0F0300
180C0300
180C0300
180C0300
180C0300
180C0300
180C0300
180C0300
180C0300
180C0300
180C0300
180C0300
180C0300
180C0300
FF7FDFE0
FF7FDFE0
ENDCHAR
STARTCHAR 33C4
ENCODING 13252
SWIDTH 990 0
DWIDTH 33 0
BBX 29 18 2 -1
BITMAP
0F000780
30C01860
60703038
60303018
C0306018
C0006000
C0006000
C0006000
C0006000
C0106008
C0106008
C0106008
C0306018
60203010
60603030
30C01860
0F000780
0F000780
ENDCHAR
STARTCHAR 33CD
ENCODING 13261
SWIDTH 990 0
DWIDTH 33 0
BBX 33 25 0 -1
BITMAP
FCFCFE7E00
3020181000
3040182000
3040182000
3080184000
3100188000
3100188000
3200190000
34001A0000
3C001E0000
3C001E0000
36001B0000
36001B0000
3300198000
3300198000
318018C000
318018C000
30C0186000
30C0187000
3060183000
3060183000
3033981980
3033981980
FCFCFE7E00
FCFCFE7E00
ENDCHAR
STARTCHAR 4E00
ENCODING 19968
SWIDTH 990 0
DWIDTH 33 0
BBX 33 4 0 12
BITMAP
0000000400
0000000E00
0000001F00
FFFFFFFF80
ENDCHAR
STARTCHAR 4E01
ENCODING 19969
SWIDTH 990 0
DWIDTH 33 0
BBX 33 31 0 -5
BITMAP
0000000200
0000000700
FFFFFFFF80
0001C00000
0001C00000
0001C00000
0001C00000
0001C00000
0001C00000
0001C00000
0001C00000
0001C00000
0001C00000
0001C00000
0001C00000
0001C00000
0001C00000
0001C00000
0001C00000
0001C00000
0001C00000
0001C00000
0001C00000
0001C00000
0001C00000
0001C00000
0001C00000
0001C00000
003FC00000
000F800000
0006000000
ENDCHAR
STARTCHAR 4E03
ENCODING 19971
SWIDTH 990 0
DWIDTH 33 0
BBX 33 30 0 -3
BITMAP
0020000000
0038000000
0030000000
0030000000
0030000000
0030000000
0030000000
0030000200
0030000700
0030003F80
003001E000
00301F0000
0033F00000
003E000000
01F0000000
1F30000000
F030000000
0030000000
0030000000
0030000000
0030000800
0030000800
0030000800
0030000800
0030000800
0030001800
0030001C00
0030001C00
003FFFFC00
001FFFF000
ENDCHAR
STARTCHAR 4E07
ENCODING 19975
SWIDTH 990 0
DWIDTH 33 0
BBX 33 31 0 -5
BITMAP
0000000200
0000000700
FFFFFFFF80
0018000000
0018000000
0018000000
0018000000
0018000000
0018004000
001800E000
001FFFF000
0018006000
0018006000
0018006000
0018006000
0018006000
0030006000
0030006000
0030006000
0030006000
006000C000
006000C000
00C000C000
00C000C000
0180018000
0300018000
0300018000
0600030000
0C00FF0000
18001E0000
60000C0000
ENDCHAR
STARTCHAR 4E08
ENCODING 19976
SWIDTH 990 0
DWIDTH 33 0
BBX 33 33 0 -5
BITMAP
0001800000
0001E00000
0001C00000
0001C00000
0001C00000
0001C00000
0001C00000
0001C00200
0001C00700
FFFFFFFF80
0001C00000
0001C00000
0041C00000
0041C00000
0021C00000
0021C00000
0011C00000
0011C00000
0009C00000
000DC00000
0007800000
0003800000
0007800000
0006C00000
000C300000
0018180000
00300E0000
0060078000
0060078000
01C001F000
0300007F80
1C00001F00
E000000200
ENDCHAR
STARTCHAR 4E09
ENCODING 19977
SWIDTH 990 0
DWIDTH 33 0
BBX 33 28 0 -2
BITMAP
0000001000
0000003800
1FFFFFFC00
0000000000
0000000000
0000000000
0000000000
0000000000
0000000000
0000000000
0000000000
0000004000
000000E000
07FFFFF000
0000000000
0000000000
0000000000
0000000000
0000000000
0000000000
0000000000
0000000000
0000000000
0000000000
0000000200
0000000700
0000000700
FFFFFFFF80
ENDCHAR
STARTCHAR 4E0A
ENCODING 19978
SWIDTH 990 0
DWIDTH 33 0
BBX 33 31 0 -3
BITMAP
0002000000
0003C00000
0003800000
0003800000
0003800000
0003800000
0003800000
0003800000
0003800000
0003800000
0003800000
0003802000
0003807000
0003FFF800
0003800000
0003800000
0003800000
0003800000
0003800000
0003800000
0003800000
0003800000
0003800000
0003800000
0003800000
0003800000
0003800000
0003800200
0003800200
0003800700
FFFFFFFF80
ENDCHAR
STARTCHAR 4E0B
ENCODING 19979
SWIDTH 990 0
DWIDTH 33 0
BBX 33 31 0 -5
BITMAP
0000000200
0000000700
FFFFFFFF80
0001C00000
0001C00000
0001C00000
0001C00000
0001C00000
0001F00000
0001CC0000
0001C30000
0001C1C000
0001C07000
0001C03800
0001C01C00
0001C00C00
0001C00000
0001C00000
0001C00000
0001C00000
0001C00000
0001C00000
0001C00000
0001C00000
0001C00000
0001C00000
0001C00000
0001C00000
0001C00000
0001C00000
0001C00000
ENDCHAR
STARTCHAR 4E0D
ENCODING 19981
SWIDTH 990 0
DWIDTH 33 0
BBX 33 31 0 -5
BITMAP
0000000200
0000000700
FFFFFFFF80
0000200000
0000380000
0000300000
0000E00000
0000E00000
0001C00000
0003800000
0003880000
0007E60000
000DC18000
0019C0C000
0031C07000
0061C03800
00C1C01C00
0181C00E00
0701C00600
0C01C00600
3001C00000
C001C00000
0001C00000
0001C00000
0001C00000
0001C00000
0001C00000
0001C00000
0001C00000
0001C00000
0001C00000
ENDCHAR
STARTCHAR 4E0E
ENCODING 19982
SWIDTH 990 0
DWIDTH 33 0
BBX 33 33 0 -5
BITMAP
0040000000
0070000000
0060000000
0060000000
0060008000
006001C000
007FFFE000
0060000000
00C0000000
00C0000000
00C0000000
00C0020000
00C0070000
01FFFF8000
0180030000
0180030000
0000030000
0000030200
0000030700
FFFFFFFF80
0000030000
0000030000
0000030000
0000060000
0000060000
0000060000
00000C0000
00000C0000
00000C0000
0000180000
0007F80000
0001F00000
0000E00000
ENDCHAR
STARTCHAR 4E10
ENCODING 19984
SWIDTH 990 0
DWIDTH 33 0
BBX 33 32 0 -5
BITMAP
0000000200
0000000700
FFFFFFFF80
0001C00000
0001C00000
0001C00000
0201C01000
0381C03800
0301FFFC00
0301C00000
0301C00000
0301C00000
0601C00400
0601C00E00
07FFFFFF00
0C00000600
0C00000600
0000000600
0000000600
0000000600
0000000600
0000000C00
0000000C00
0000000C00
0000001800
0000001800
0000003000
0000003000
0000007000
00000FE000
000001C000
0000018000
ENDCHAR
STARTCHAR 4E11
ENCODING 19985
SWIDTH 990 0
DWIDTH 33 0
BBX 33 30 0 -3
BITMAP
0000010000
0000038000
07FFFFC000
000C018000
000C018000
000C018000
000C018000
000C018000
000C018000
000C018000
000C018000
0018018000
0018018200
0018018700
FFFFFFFF80
0018018000
0018018000
0018018000
0018018000
0018018000
0018018000
0030018000
0030018000
0030018000
0030018000
0030018000
0030018200
0030018200
0030018700
FFFFFFFF80
ENDCHAR
STARTCHAR 4E14
ENCODING 19988
SWIDTH 990 0
DWIDTH 33 0
BBX 33 30 0 -3
BITMAP
0080010000
00C0038000
00FFFFC000
00C0018000
00C0018000
00C0018000
00C0018000
00C0018000
00C0018000
00C0018000
00FFFF8000
00C0018000
00C0018000
00C0018000
00C0018000
00C0018000
00C0018000
00C0018000
00C0018000
00FFFF8000
00C0018000
00C0018000
00C0018000
00C0018000
00C0018000
00C0018000
00C0018200
00C0018200
00C0018700
FFFFFFFF80
ENDCHAR
STARTCHAR 4E15
ENCODING 19989
SWIDTH 990 0
DWIDTH 33 0
BBX 33 30 0 -3
BITMAP
0000000400
0000000E00
7FFFFFFF00
0000200000
0000380000
0000F00000
0000E00000
0001E00000
0001C00000
0003C00000
0007DC0000
000DC30000
0019C0C000
0031C06000
00E1C03800
0181C01C00
0601C00E00
1801C00600
6001C00000
0001C00000
0001C00000
0001C00000
0001C00000
0001C00000
0001C00000
0001C00000
0000000200
0000000200
0000000700
FFFFFFFF80
ENDCHAR
STARTCHAR 4E16
ENCODING 19990
SWIDTH 990 0
DWIDTH 33 0
BBX 33 33 0 -5
BITMAP
0202010000
0383C1C000
0303818000
0303818000
0303818000
0303818000
0303818000
0303818000
0303818000
0303818200
0303818700
FFFFFFFF80
0303818000
0303818000
0303818000
0303818000
0303818000
0303818000
0303818000
0303818000
0303818000
0303FF8000
0303818000
0303818000
0300000000
0300000000
0300000000
0300000400
0300000400
0300000E00
03FFFFFF00
0300000000
0300000000
ENDCHAR
STARTCHAR 4E17
ENCODING 19991
SWIDTH 990 0
DWIDTH 33 0
BBX 33 33 0 -5
BITMAP
0201804000
0381E07000
0301C06000
0301C06000
0301C06000
0301C06000
0301C06000
0301C06000
0301C06000
0301C06000
0301C06000
0301C06000
0301C06200
0301C06700
FFFFFFFF80
0301C06000
0301C06000
0301C06000
0301C06000
0301C06000
0301C06000
0301C06000
0301C06000
0301C06000
0301C06000
0301C06000
0301C06000
0301C06000
0301C06000
0301C06000
03FFFFE000
0300006000
0300006000
ENDCHAR
STARTCHAR 4E18
ENCODING 19992
SWIDTH 990 0
DWIDTH 33 0
BBX 33 31 0 -3
BITMAP
0000008000
000001C000
000007E000
00001E0000
0080F80000
00C7C00000
00F8000000
00C0000000
00C0000000
00C0000000
00C0000000
00C0000800
00C0001C00
00FFFFFE00
00C0060000
00C0060000
00C0060000
00C0060000
00C0060000
00C0060000
00C0060000
00C0060000
00C0060000
00C0060000
00C0060000
00C0060000
00C0060000
00C0060200
00C0060200
00C0060700
FFFFFFFF80
ENDCHAR
STARTCHAR 4E19
ENCODING 19993
SWIDTH 990 0
DWIDTH 33 0
BBX 33 31 0 -5
BITMAP
0000000200
0000000700
FFFFFFFF80
0001C00000
0001C00000
0001C00000
0001C00000
0401C02000
0601C07000
07FFFFF800
0601C03000
0603803000
0603C03000
0603A03000
0606183000
06060E3000
060C073000
061803B000
063001B000
066001B000
0780003000
0600003000
0600003000
0600003000
0600003000
0600003000
0600003000
0600003000
060007F000
060001E000
060000C000
ENDCHAR
STARTCHAR 4E1E
ENCODING 19998
SWIDTH 990 0
DWIDTH 33 0
BBX 33 30 0 -3
BITMAP
0000008000
000001C000
03FFFFE000
0000038000
0000060000
00000C0000
0000100000
0001A01000
0011E01C00
0039D01E00
FFFDD03800
0019C86000
0031CCC000
0031C50000
0061C60000
00C1C30000
00C1C18000
0181C0C000
0301C06000
0601C03800
0C01C01F80
3001C00F00
C001C00200
003FC00000
000F800000
0006000000
0000000800
0000000800
0000001C00
3FFFFFFE00
ENDCHAR
STARTCHAR 4E21
ENCODING 20001
SWIDTH 990 0
DWIDTH 33 0
BBX 33 31 0 -5
BITMAP
0000000200
0000000700
FFFFFFFF80
0001C00000
0001C00000
0001C00000
0801C01000
0C01C03800
0FFFFFFC00
0C01C01800
0C01C01800
0C41C21800
0C71C39800
0C61C31800
0C61C31800
0C61C31800
0C61C31800
0C61C31800
0C61C31800
0C61C31800
0C61C31800
0C7FFF1800
0C60031800
0C60031800
0C60001800
0C00001800
0C00001800
0C00001800
0C0003F800
0C0000F000
0C00006000
ENDCHAR
STARTCHAR 4E26
ENCODING 20006
SWIDTH 990 0
DWIDTH 33 0
BBX 33 31 0 -3
BITMAP
0000010000
020001C000
010001E000
00C0038000
0060030000
0030060000
0038040000
0018080000
0018101000
0000003800
1FFFFFFC00
0018180000
0018180000
0018180000
0018182000
1018183800
0818183C00
0418183000
0618186000
0318186000
031818C000
0398188000
0198190000
01981A0000
0018180000
0018180000
0018180000
0018180200
0018180200
0018180700
FFFFFFFF80
ENDCHAR
STARTCHAR 4E2A
ENCODING 20010
SWIDTH 990 0
DWIDTH 33 0
BBX 33 33 0 -5
BITMAP
0001C00000
0001C00000
0003A00000
0003A00000
0006100000
0006180000
000C080000
000C0C0000
0018060000
0030030000
0061818000
00C1E0C000
0181C06000
0701C03800
0C01C01F80
3001C00F00
C001C00300
0001C00000
0001C00000
0001C00000
0001C00000
0001C00000
0001C00000
0001C00000
0001C00000
0001C00000
0001C00000
0001C00000
0001C00000
0001C00000
0001C00000
0001C00000
0001C00000
ENDCHAR
STARTCHAR 4E2D
ENCODING 20013
SWIDTH 990 0
DWIDTH 33 0
BBX 28 33 3 -5
BITMAP
000C0000
000F0000
000E0000
000E0000
000E0000
000E0000
800E0040
C00E00E0
FFFFFFF0
C00E0060
C00E0060
C00E0060
C00E0060
C00E0060
C00E0060
C00E0060
C00E0060
C00E0060
C00E0060
FFFFFFE0
C00E0060
C00E0060
000E0000
000E0000
000E0000
000E0000
000E0000
000E0000
000E0000
000E0000
000E0000
000E0000
000E0000
ENDCHAR
STARTCHAR 4E31
ENCODING 20017
SWIDTH 990 0
DWIDTH 33 0
BBX 30 33 2 -5
BITMAP
00402000
00703800
00603000
00603000
80603010
E060301C
C0603018
C0603018
C0603018
C0603018
C0603018
C0603018
C0603018
C0603018
C0603018
C0603018
C0603018
C0603018
FFE03FF8
C0603018
C0603018
00603000
00C03000
00C03000
00C03000
01803000
01803000
03003000
03003000
06003000
0C003000
30003000
C0003000
ENDCHAR
STARTCHAR 4E32
ENCODING 20018
SWIDTH 990 0
DWIDTH 33 0
BBX 28 33 3 -5
BITMAP
000C0000
000F0000
000E0000
000E0000
200E0100
300E0380
3FFFFFC0
300E0180
300E0180
300E0180
300E0180
300E0180
3FFFFF80
300E0180
000E0000
800E0040
C00E00E0
FFFFFFF0
C00E0060
C00E0060
C00E0060
C00E0060
C00E0060
C00E0060
FFFFFFE0
C00E0060
C00E0060
000E0000
000E0000
000E0000
000E0000
000E0000
000E0000
ENDCHAR
STARTCHAR 4E36
ENCODING 20022
SWIDTH 990 0
DWIDTH 33 0
BBX 13 14 10 6
BITMAP
8000
4000
3000
1800
0E00
0700
0380
03C0
00E0
0070
0070
0038
0038
0018
ENDCHAR
STARTCHAR 4E38
ENCODING 20024
SWIDTH 990 0
DWIDTH 33 0
BBX 33 33 0 -5
BITMAP
0008000000
000E000000
000C000000
000C000000
000C000000
000C000000
000C000000
000C020000
000C070000
FFFFFF8000
000C030000
000C030000
000C030000
000C030000
0C0C030000
030C030000
00CC030000
006C030000
0038030000
001C030000
001E030000
0033830000
0031C30000
0060E30100
0060F30100
00C0330100
0180330180
0300030180
0300030180
0600030380
0C0003FF00
300001FE00
C000000000
ENDCHAR
STARTCHAR 4E39
ENCODING 20025
SWIDTH 990 0
DWIDTH 33 0
BBX 33 32 0 -5
BITMAP
0080008000
00C001C000
00FFFFE000
00C000C000
00C000C000
00C400C000
00C200C000
00C1C0C000
00C0E0C000
00C0F0C000
00C030C000
00C030C000
00C000C000
00C000C200
00C000C700
FFFFFFFF80
00C000C000
00C000C000
00C000C000
00C000C000
00C000C000
018000C000
018000C000
018000C000
030000C000
030000C000
060000C000
060000C000
0C0000C000
18001FC000
3000078000
C000030000
ENDCHAR
STARTCHAR 4E3B
ENCODING 20027
SWIDTH 990 0
DWIDTH 33 0
BBX 33 31 0 -3
BITMAP
0010000000
000C000000
0007800000
0003C00000
0001E00000
0000E00000
0000001000
0000003800
1FFFFFFC00
0001C00000
0001C00000
0001C00000
0001C00000
0001C00000
0001C00000
0001C00000
0001C02000
0001C07000
0FFFFFF800
0001C00000
0001C00000
0001C00000
0001C00000
0001C00000
0001C00000
0001C00000
0001C00000
0001C00200
0001C00200
0001C00700
FFFFFFFF80
ENDCHAR
STARTCHAR 4E3C
ENCODING 20028
SWIDTH 990 0
DWIDTH 33 0
BBX 33 33 0 -5
BITMAP
0020040000
0038070000
0030060000
0030060000
0030060000
0030060000
0030060400
0030060E00
7FFFFFFF00
0030060000
0030060000
0034060000
0033860000
0031C60000
0030E60000
0030E60000
0030E60000
0030060200
0030060700
FFFFFFFF80
0030060000
0030060000
0060060000
0060060000
0060060000
00C0060000
00C0060000
0180060000
0180060000
0300060000
0600060000
0C00060000
3000060000
ENDCHAR
STARTCHAR 4E3F
ENCODING 20031
SWIDTH 990 0
DWIDTH 33 0
BBX 15 33 4 -5
BITMAP
0018
001E
001C
001C
001C
001C
001C
001C
001C
001C
001C
001C
001C
001C
001C
001C
001C
001C
001C
0038
0038
0038
0038
0060
0060
00C0
00C0
0180
0180
0300
0600
1800
E000
ENDCHAR
STARTCHAR 4E42
ENCODING 20034
SWIDTH 990 0
DWIDTH 33 0
BBX 32 32 0 -4
BITMAP
00000200
00400380
00400300
00400300
00400300
00400300
00200300
00200600
00200600
00200600
00100600
00100C00
00100C00
00080800
00081800
00041000
00043000
00022000
0002E000
0001C000
0001C000
0003A000
00063000
000C1800
00180C00
00300600
00E00380
018001F0
018001F0
0600007F
3800001E
C0000006
ENDCHAR
STARTCHAR 4E43
ENCODING 20035
SWIDTH 990 0
DWIDTH 33 0
BBX 32 32 0 -5
BITMAP
00000200
00000700
1FFFFF80
00180300
00180300
00180300
00180300
00180300
00180600
00180600
00180604
0018060E
00180FFF
00180C06
00180C06
00180006
00300006
00300006
00300006
00300006
00600006
00600006
0060000C
00C0000C
00C0000C
01800018
03000018
03000018
06000030
0C0007F0
300001E0
C00000C0
ENDCHAR
STARTCHAR 4E45
ENCODING 20037
SWIDTH 990 0
DWIDTH 33 0
BBX 33 33 0 -5
BITMAP
0010000000
001C000000
001E000000
0018000000
0018000000
0018080000
00301C0000
003FFE0000
00300C0000
00600C0000
0060180000
00C0180000
00C0180000
0180300000
0300300000
0600E80000
0C00E80000
1801C80000
6001C40000
0003840000
0006020000
0006030000
000C010000
0018018000
003000C000
0060006000
00C0007000
0180003800
0180003800
0300001E00
0C00000F80
3000000700
C000000200
ENDCHAR
STARTCHAR 4E4B
ENCODING 20043
SWIDTH 990 0
DWIDTH 33 0
BBX 33 33 0 -5
BITMAP
0001800000
0001E00000
0001C00000
0001C00000
0001C00000
0001C04000
0001C0E000
3FFFFFF000
000000E000
000000C000
0000018000
0000030000
0000030000
0000060000
00000C0000
0000180000
0000300000
0000E00000
0001C00000
0003800000
0006000000
001C000000
0230000000
02C0000000
0500000000
0480000000
0840000000
1830000000
1830000000
301F800000
F007FFFF80
6000FFFF00
2000000000
ENDCHAR
STARTCHAR 4E4D
ENCODING 20045
SWIDTH 990 0
DWIDTH 33 0
BBX 33 33 0 -5
BITMAP
0040000000
0070000000
0078000000
0060000000
00E0000000
00C0000200
00C0000700
01FFFFFF80
0181C00000
0301C00000
0301C00000
0601C02000
0401C07000
0C01FFF800
1801C00000
1001C00000
2001C00000
4001C00000
8001C00800
0001C01C00
0001FFFE00
0001C00000
0001C00000
0001C00000
0001C00000
0001C00000
0001C00000
0001C00000
0001C00000
0001C00000
0001C00000
0001C00000
0001C00000
ENDCHAR
STARTCHAR 4E4E
ENCODING 20046
SWIDTH 990 0
DWIDTH 33 0
BBX 33 33 0 -5
BITMAP
0000004000
000001E000
00000FF000
0001FE0000
001FE00000
1FE1C00000
0001C04000
0001C07000
0401C07800
0301C06000
0181C0C000
00C1C0C000
00E1C18000
0061C10000
0061C20200
0001C40700
FFFFFFFF80
0001C00000
0001C00000
0001C00000
0001C00000
0001C00000
0001C00000
0001C00000
0001C00000
0001C00000
0001C00000
0001C00000
0001C00000
0001C00000
003FC00000
000F800000
0006000000
ENDCHAR
STARTCHAR 4E4F
ENCODING 20047
SWIDTH 990 0
DWIDTH 33 0
BBX 33 33 0 -5
BITMAP
0000004000
000001E000
000007F000
00001F0000
0001F80000
001FC00000
07F1800000
0001E00000
0001C00000
0001C04000
0001C0E000
FFFFFFF000
000000E000
000001C000
0000038000
0000030000
0000060000
00000C0000
0000180000
0000300000
0000E00000
0401C00000
0403800000
0C0E000000
0A18000000
1960000000
3180000000
70E0000000
70E0000000
F07C000000
601FFFFF80
6003FFFF00
2000000000
ENDCHAR
STARTCHAR 4E55
ENCODING 20053
SWIDTH 990 0
DWIDTH 33 0
BBX 32 33 0 -5
BITMAP
00000020
000000F0
040007F8
0601FE00
07FFA000
06003800
06003004
0600300E
07FFFFFF
06003000
06003000
06003004
0600300E
07FFFFFF
06003000
06003000
06803010
06C03038
06FFFFFC
06C03018
06C03018
06C03018
0CC03018
0CC03018
08C03018
18C03018
10C033F8
20C030F0
20C030F0
40C03060
80003000
00003000
00003000
ENDCHAR
STARTCHAR 4E56
ENCODING 20054
SWIDTH 990 0
DWIDTH 33 0
BBX 33 33 0 -5
BITMAP
0000006000
000003F000
00001F8000
0003F80000
0FFDC00000
0001C00000
0001C00200
0001C00700
FFFFFFFF80
0001C00000
0021C40000
0039C70000
0031C60000
0031C60800
7FF1C60C00
0031C61E00
0031C67800
0031C7C000
0031C60000
0031C60200
0071C60200
03B1C60200
7E31C60200
3831C60700
2031C7FF00
0031C3FE00
0031C00000
0001C00000
0001C00000
0001C00000
0001C00000
0001C00000
0001C00000
ENDCHAR
STARTCHAR 4E57
ENCODING 20055
SWIDTH 990 0
DWIDTH 33 0
BBX 33 33 0 -5
BITMAP
0000004000
000001E000
00000FF000
0003FE0000
03FFE00000
0001C00000
0001C00400
0001C00E00
7FFFFFFF00
0181C0C000
0181C0C000
0181C0C200
0181C0C700
FFFFFFFF80
0181C0C000
0181C0C000
0181C0C000
0181C0C400
0181C0CE00
7FFFFFFF00
0007D00000
000DC80000
001DCC0000
0039C60000
0071C30000
00E1C18000
0181C0E000
0301C07800
0301C07800
0C01C03F80
3001C00F00
C001C00200
0001C00000
ENDCHAR
STARTCHAR 4E58
ENCODING 20056
SWIDTH 990 0
DWIDTH 33 0
BBX 33 33 0 -5
BITMAP
0000006000
000001F000
00000F8000
0003FC0000
0FFFC00000
0001C00200
0001C00700
FFFFFFFF80
0001C00000
0021C40000
0039C70800
0031C61E00
7FF1C67800
0031C7C200
0031C60200
0033E60200
0073E60300
03B7D7FF00
7E37D3FE00
383DC80000
2009C40000
0019C60000
0031C30000
0061C18000
00C1C0C000
0181C07000
0701C03C00
0C01C00F80
0C01C00F80
3001C00700
C001C00100
0001C00000
0001C00000
ENDCHAR
STARTCHAR 4E59
ENCODING 20057
SWIDTH 990 0
DWIDTH 33 0
BBX 31 31 1 -4
BITMAP
00000200
00000700
FFFFFF80
00000E00
00001C00
00003800
00007000
0001E000
0003C000
00078000
000F0000
001C0000
00380000
00700000
00E00000
01C00000
03800000
07000000
06000000
0C000000
0C000000
18000004
18000004
18000004
18000006
0C000006
0E00000E
0E00000E
07C0003C
01FFFFF8
003FFFC0
ENDCHAR
STARTCHAR 4E5D
ENCODING 20061
SWIDTH 990 0
DWIDTH 33 0
BBX 33 33 0 -5
BITMAP
0010000000
001C000000
0018000000
0018000000
0018000000
0018000000
0018000000
0018000000
0018020000
0018070000
FFFFFF8000
0018030000
0018030000
0018030000
0018030000
0018030000
0018030000
0018030000
0018030000
0018030000
0030030000
0030030000
0030030100
0060030100
0060030100
00C0030100
0180030300
0300030300
0300030300
0600030780
0C0003FF80
300001FE00
C000000000
ENDCHAR
STARTCHAR 4E5E
ENCODING 20062
SWIDTH 990 0
DWIDTH 33 0
BBX 33 32 0 -4
BITMAP
0040000000
0070000000
0078000000
0060000000
00C0000000
00C0000400
0180000E00
01FFFFFF00
0300000000
0600000000
0400000000
0800020000
1000070000
27FFFF8000
40000E0000
80003C0000
0000F00000
0003E00000
0007800000
001E000000
0038000000
0070000000
00E0000100
01C0000100
0180000100
0300000100
0300000300
0380000300
0380000300
01E0000780
00FFFFFF80
001FFFFE00
ENDCHAR
STARTCHAR 4E5F
ENCODING 20063
SWIDTH 990 0
DWIDTH 33 0
BBX 33 32 0 -4
BITMAP
0001800000
0001E00000
0001C00000
0001C00000
0001C00000
0101C00000
01C1C04000
0181C0E000
0181C7F000
0181DC6000
0183F06000
019FC06000
01F1C06000
07C1C06000
3D81C06000
E181C06000
0181C06000
0181C06000
0181C06000
0181CFE000
0181C3C000
0181C18000
0181C00100
0181C00100
0181C00100
0180000100
0180000100
0180000300
0180000300
0180000380
01FFFFFF80
00FFFFFE00
ENDCHAR
STARTCHAR 4E62
ENCODING 20066
SWIDTH 990 0
DWIDTH 33 0
BBX 31 32 2 -4
BITMAP
00004000
04007000
07006000
06006000
06006000
06006000
06006000
86206000
E6386000
C6306000
C6306000
C6306000
C6306000
C6306000
C6306000
C6306000
C6306000
C6306000
C6306000
C6306000
C6306000
C6306004
FFF06004
C0306004
C0306004
C0006004
C0006006
00006006
00006006
0000600E
00007FFC
00003FF8
ENDCHAR
STARTCHAR 4E71
ENCODING 20081
SWIDTH 990 0
DWIDTH 33 0
BBX 33 33 0 -5
BITMAP
0002040000
0007870000
001FC60000
007C060000
01E0060000
0FC0060000
F0C0060000
00C0060000
00C0060000
00C0C60000
00C1E60000
FFFFF60000
00C0060000
00C0060000
00C0060000
00C0060000
00C0060000
10C4060000
18CE060000
1FFF860000
1806060000
1806060000
1806060100
1806060100
1806060100
1806060100
1806060100
1806060300
1806060300
1806060380
1FFE07FF80
180603FE00
1806000000
ENDCHAR
STARTCHAR 4E73
ENCODING 20083
SWIDTH 990 0
DWIDTH 33 0
BBX 33 33 0 -5
BITMAP
0002040000
0007870000
001FC60000
00FC060000
07C2060000
FA03C60000
0103E60000
2187860000
18C6060000
0CCC060000
0CC8060000
0C11860000
0003C60000
3FFFE60000
0007860000
000C060000
0050060000
0060060000
0060060000
0061E60000
00FE060000
FFF0060000
7F60060100
6060060100
2060060100
0060060100
0060060100
0060060300
0060060300
0060060380
0FE007FF80
03C003FE00
0180000000
ENDCHAR
STARTCHAR 4E7E
ENCODING 20094
SWIDTH 990 0
DWIDTH 33 0
BBX 33 33 0 -5
BITMAP
0080040000
00E0070000
00C0078000
00C2060000
00C7860000
FFFFCC0200
00C00C0700
10C40FFF80
18CE180000
1FFF900000
1806300000
1806200800
1806C01C00
1807BFFE00
1FFE003800
1806006000
180600C000
1806018000
1806030000
1FFE030000
18C6060000
00C00C0000
00C20C0000
00C7980100
FFFFD80100
00C0300100
00C0300180
00C0300180
00C0300180
00C0180380
00C01FFF00
00C007FE00
00C0000000
ENDCHAR
STARTCHAR 4E80
ENCODING 20096
SWIDTH 990 0
DWIDTH 33 0
BBX 33 32 0 -4
BITMAP
0020000000
0038100000
0070380000
007FFC0000
00C0300000
0180210000
0300C38000
07FFFFC000
0F03818000
3303818000
C3FFFF8000
0303818000
0303818000
0303818000
03FFFF8000
0303818000
0803806000
0FFFFFF000
0C03806000
0C03806000
0C03806000
0FFFFFE000
0C03806000
0C03806100
0C03806100
0FFFFFE100
0C03806100
0C03800180
0C03800180
0003800380
0003FFFF00
0001FFFE00
ENDCHAR
STARTCHAR 4E82
ENCODING 20098
SWIDTH 990 0
DWIDTH 33 0
BBX 32 33 1 -5
BITMAP
00078400
003FC700
03F30600
FF03C600
10C38600
0C670600
06640600
06680600
000C0600
7FFF0600
021C0600
01900600
40E00600
60C1C600
7FFFE600
60C1C600
60A1C600
6119C600
6FFDC600
670DC600
6401C600
6031C600
6FF9C600
6131C602
60E1C602
60F1C602
6199C602
6319C603
6319C603
6C01C607
601FC7FF
600783FE
60070000
ENDCHAR
STARTCHAR 4E85
ENCODING 20101
SWIDTH 990 0
DWIDTH 33 0
BBX 10 33 9 -5
BITMAP
0300
03C0
0380
0380
0380
0380
0380
0380
0380
0380
0380
0380
0380
0380
0380
0380
0380
0380
0380
0380
0380
0380
0380
0380
0380
0380
0380
0380
0380
0380
FF80
1F00
0C00
ENDCHAR
STARTCHAR 4E86
ENCODING 20102
SWIDTH 990 0
DWIDTH 33 0
BBX 31 31 1 -5
BITMAP
00000008
0000001C
FFFFFFFE
00000078
000000E0
000001C0
00000300
00000600
00018C00
0001D000
0001E000
0001C000
0001C000
0001C000
0001C000
0001C000
0001C000
0001C000
0001C000
0001C000
0001C000
0001C000
0001C000
0001C000
0001C000
0001C000
0001C000
0001C000
003FC000
000F8000
00070000
ENDCHAR
STARTCHAR 4E88
ENCODING 20104
SWIDTH 990 0
DWIDTH 33 0
BBX 33 32 0 -5
BITMAP
0000008000
000001C000
07FFFFE000
0000038000
0010070000
00080C0000
0006100000
0003A00000
0001C00000
0001E00000
0000E00200
0000C00700
FFFFFFFF80
0001C00600
0001C00C00
0001C00800
0001C01000
0001C00000
0001C00000
0001C00000
0001C00000
0001C00000
0001C00000
0001C00000
0001C00000
0001C00000
0001C00000
0001C00000
0001C00000
003FC00000
000F800000
0006000000
ENDCHAR
ENDFONT
